<svg width="256" height="108" viewBox="0 0 256 108" fill="none" xmlns="http://www.w3.org/2000/svg">
<g clip-path="url(#clip0_2_271)">
<path d="M156.37 108H99.6889C98.086 108 96.782 106.697 96.782 105.096V2.90387C96.782 1.30276 98.086 0 99.6889 0H156.37C157.973 0 159.277 1.30276 159.277 2.90387V105.096C159.277 106.697 157.973 108 156.37 108ZM121.843 0.484926C108.27 0.484926 97.2674 11.476 97.2674 25.0342V105.096C97.2674 106.432 98.3516 107.515 99.6889 107.515H156.37C157.707 107.515 158.791 106.432 158.791 105.096V2.90387C158.791 1.56792 157.707 0.484923 156.37 0.484923L121.843 0.484926Z" fill="#E6E6E6"/>
<path d="M158.983 26.9306C158.983 27.1037 159.177 27.2427 159.419 27.2427H234.305C234.547 27.2427 234.742 27.1037 234.742 26.9306C234.742 26.7576 234.547 26.6186 234.305 26.6186H159.419C159.177 26.6186 158.983 26.7576 158.983 26.9306Z" fill="#E6E6E6"/>
<path d="M98.0784 71.4971L98.8195 91.1164H97.0156V93.3375H102.058V91.1164H100.587L100.692 71.4971H98.0784Z" fill="#3F3D56"/>
<path d="M96.1329 87.9699C96.9004 87.9699 97.5226 88.5914 97.5226 89.3581V95.0958C97.5226 95.8625 96.9004 96.484 96.1329 96.484C95.3654 96.484 94.7433 95.8625 94.7433 95.0958V89.3581C94.7433 88.5914 95.3655 87.9699 96.1329 87.9699Z" fill="#3F3D56"/>
<path d="M103.174 87.9699C103.941 87.9699 104.563 88.5914 104.563 89.3581V95.0958C104.563 95.8625 103.941 96.484 103.174 96.484C102.406 96.484 101.784 95.8625 101.784 95.0958V89.3581C101.784 88.5914 102.406 87.9699 103.174 87.9699Z" fill="#3F3D56"/>
<path d="M114.476 59.2732L85.9422 57.9776L90.3891 55.9417L115.403 56.3118L114.476 59.2732Z" fill="#04C5CF"/>
<path d="M0.710938 62.1502L4.15695 60.8546L111.141 63.6309L115.588 61.5949L113.735 74.1809L28.7529 65.1351L0.710938 62.1502Z" fill="#04C5CF"/>
<path d="M28.2258 69.4612L28.7529 65.1351L113.735 74.1809L113.272 80.5664L28.2258 69.4612Z" fill="#3F3D56"/>
<path d="M85.3864 82.2322C90.2471 82.2322 94.1874 78.0475 94.1874 72.8853C94.1874 67.7231 90.2471 63.5384 85.3864 63.5384C80.5257 63.5384 76.5853 67.7231 76.5853 72.8853C76.5853 78.0475 80.5257 82.2322 85.3864 82.2322Z" fill="#3F3D56"/>
<path d="M85.3864 77.6976C88.9679 77.6976 91.8714 74.7973 91.8714 71.2195C91.8714 67.6418 88.9679 64.7415 85.3864 64.7415C81.8048 64.7415 78.9014 67.6418 78.9014 71.2195C78.9014 74.7973 81.8048 77.6976 85.3864 77.6976Z" fill="#04C5CF"/>
<path d="M157.74 71.4971L156.999 91.1164H158.803V93.3375H153.761V91.1164H155.232L155.127 71.4971H157.74Z" fill="#3F3D56"/>
<path d="M159.686 87.9699H159.686C158.918 87.9699 158.296 88.5914 158.296 89.3581V95.0958C158.296 95.8625 158.918 96.484 159.686 96.484H159.686C160.453 96.484 161.075 95.8625 161.075 95.0958V89.3581C161.075 88.5914 160.453 87.9699 159.686 87.9699Z" fill="#3F3D56"/>
<path d="M152.645 87.9699H152.645C151.878 87.9699 151.255 88.5914 151.255 89.3581V95.0958C151.255 95.8625 151.878 96.484 152.645 96.484H152.645C153.412 96.484 154.035 95.8625 154.035 95.0958V89.3581C154.035 88.5914 153.412 87.9699 152.645 87.9699Z" fill="#3F3D56"/>
<path d="M141.343 59.2732L169.877 57.9776L165.43 55.9417L140.416 56.3118L141.343 59.2732Z" fill="#04C5CF"/>
<path d="M131.13 55.2855L129.833 26.782L127.794 31.2241L128.165 56.211L131.13 55.2855Z" fill="#04C5CF"/>
<path d="M255.108 62.1502L251.662 60.8546L144.678 63.6309L140.231 61.5949L142.084 74.1809L227.066 65.1351L255.108 62.1502Z" fill="#04C5CF"/>
<path d="M227.593 69.4612L227.066 65.1351L142.084 74.1809L142.547 80.5664L227.593 69.4612Z" fill="#3F3D56"/>
<path d="M170.432 82.2322C175.293 82.2322 179.233 78.0475 179.233 72.8853C179.233 67.7231 175.293 63.5384 170.432 63.5384C165.572 63.5384 161.631 67.7231 161.631 72.8853C161.631 78.0475 165.572 82.2322 170.432 82.2322Z" fill="#3F3D56"/>
<path d="M170.432 77.6976C174.014 77.6976 176.917 74.7973 176.917 71.2195C176.917 67.6418 174.014 64.7415 170.432 64.7415C166.851 64.7415 163.947 67.6418 163.947 71.2195C163.947 74.7973 166.851 77.6976 170.432 77.6976Z" fill="#04C5CF"/>
<path d="M144.076 55.7227L143.655 58.8186L143.436 75.484C143.42 76.724 143.27 77.9493 142.988 79.1376C142.176 82.5987 140.281 85.7471 137.481 88.0292C134.941 90.1022 131.476 91.6717 126.89 91.3941C114.661 90.6537 113.581 80.2574 113.581 80.2574L114.043 61.4043L114.106 58.8186L114.661 54.1532C114.661 54.1532 116.144 41.0119 129.855 41.3821C143.566 41.7523 144.076 55.7227 144.076 55.7227Z" fill="#04C5CF"/>
<path d="M117.626 51.3768L120.405 46.9347L123.926 45.8242H135.969L138.934 46.9347L141.624 51.3768L136.71 49.1558H122.926L117.626 51.3768Z" fill="#E6E6E6"/>
<path d="M127.818 83.3127L128.294 95.8987H127.136V97.3235H130.371V95.8987H129.427L129.495 83.3127H127.818Z" fill="#3F3D56"/>
<path d="M126.57 93.8802C127.062 93.8802 127.461 94.2789 127.461 94.7707V98.4515C127.461 98.9433 127.062 99.342 126.57 99.342C126.078 99.342 125.679 98.9433 125.679 98.4515V94.7707C125.679 94.2789 126.078 93.8802 126.57 93.8802Z" fill="#3F3D56"/>
<path d="M131.086 93.8802C131.579 93.8802 131.977 94.2789 131.977 94.7707V98.4515C131.977 98.9433 131.579 99.342 131.086 99.342C130.594 99.342 130.195 98.9433 130.195 98.4515V94.7707C130.195 94.2789 130.594 93.8802 131.086 93.8802Z" fill="#3F3D56"/>
<path d="M124.369 43.0971L121.809 52.3024L122.302 52.439L124.861 43.2337L124.369 43.0971Z" fill="#04C5CF"/>
<path d="M135.976 44.565L135.475 44.6635L137.319 54.0385L137.82 53.94L135.976 44.565Z" fill="#04C5CF"/>
<path d="M188.723 29.8573C190.561 29.8573 192.051 28.3689 192.051 26.5328C192.051 24.6968 190.561 23.2083 188.723 23.2083C186.885 23.2083 185.395 24.6968 185.395 26.5328C185.395 28.3689 186.885 29.8573 188.723 29.8573Z" fill="#04C5CF"/>
<path d="M96.6097 40.7392C98.4478 40.7392 99.9378 39.2508 99.9378 37.4147C99.9378 35.5787 98.4478 34.0903 96.6097 34.0903C94.7717 34.0903 93.2817 35.5787 93.2817 37.4147C93.2817 39.2508 94.7717 40.7392 96.6097 40.7392Z" fill="#04C5CF"/>
<path d="M21.2536 99.8134C21.2536 99.9865 21.4478 100.125 21.6898 100.125H96.5763C96.8182 100.125 97.0125 99.9865 97.0125 99.8134C97.0125 99.6403 96.8182 99.5013 96.5763 99.5013H21.6898C21.4478 99.5013 21.2536 99.6403 21.2536 99.8134Z" fill="#E6E6E6"/>
<path d="M50.9939 102.74C52.8319 102.74 54.3219 101.252 54.3219 99.4155C54.3219 97.5795 52.8319 96.0911 50.9939 96.0911C49.1559 96.0911 47.6659 97.5795 47.6659 99.4155C47.6659 101.252 49.1559 102.74 50.9939 102.74Z" fill="#04C5CF"/>
</g>
<defs>
<clipPath id="clip0_2_271">
<rect width="254.397" height="108" fill="white" transform="translate(0.710938)"/>
</clipPath>
</defs>
</svg>
