<svg width="348" height="220" viewBox="0 0 348 220" fill="none" xmlns="http://www.w3.org/2000/svg">
<g clip-path="url(#clip0_5_582)">
<path d="M221.319 68.8287C221.975 61.7527 223.788 54.8326 226.685 48.3447C227.493 46.5392 228.381 44.7735 229.351 43.0475C229.4 42.9572 229.412 42.8516 229.384 42.7528C229.356 42.6541 229.292 42.5699 229.203 42.5182C229.115 42.4664 229.01 42.4511 228.91 42.4754C228.81 42.4997 228.724 42.5618 228.67 42.6485C225.142 48.935 222.671 55.7591 221.355 62.848C220.989 64.8276 220.713 66.8211 220.529 68.8287C220.482 69.3351 221.272 69.3319 221.319 68.8287Z" fill="#E6E6E6"/>
<path d="M231.264 44.3153C234.027 44.3153 236.266 42.0738 236.266 39.3086C236.266 36.5435 234.027 34.3019 231.264 34.3019C228.502 34.3019 226.262 36.5435 226.262 39.3086C226.262 42.0738 228.502 44.3153 231.264 44.3153Z" fill="#E6E6E6"/>
<path d="M221.831 68.9617C222.256 64.3711 223.433 59.8818 225.312 55.6728C225.836 54.5015 226.412 53.3559 227.042 52.2362C227.073 52.1776 227.081 52.1091 227.063 52.0451C227.045 51.981 227.003 51.9264 226.945 51.8929C226.888 51.8593 226.82 51.8493 226.755 51.8651C226.691 51.8809 226.635 51.9211 226.599 51.9774C224.311 56.0557 222.708 60.4828 221.854 65.0817C221.616 66.366 221.438 67.6593 221.318 68.9617C221.288 69.2902 221.8 69.2881 221.831 68.9617Z" fill="#E6E6E6"/>
<path d="M228.283 53.0587C230.075 53.0587 231.528 51.6045 231.528 49.8106C231.528 48.0168 230.075 46.5626 228.283 46.5626C226.491 46.5626 225.038 48.0168 225.038 49.8106C225.038 51.6045 226.491 53.0587 228.283 53.0587Z" fill="#E6E6E6"/>
<path d="M221.184 68.655C218.699 64.7733 216.868 60.5095 215.763 56.0337C215.457 54.7876 215.207 53.5294 215.016 52.2591C215.004 52.1935 214.968 52.1348 214.915 52.0953C214.861 52.0558 214.795 52.0387 214.729 52.0476C214.663 52.0564 214.603 52.0906 214.562 52.1428C214.52 52.195 214.501 52.2612 214.508 52.3274C215.209 56.952 216.666 61.4297 218.818 65.5815C219.42 66.7403 220.074 67.87 220.78 68.9705C220.958 69.2482 221.361 68.931 221.184 68.655Z" fill="#E6E6E6"/>
<path d="M214.504 52.8307C216.296 52.8307 217.749 51.3765 217.749 49.5826C217.749 47.7887 216.296 46.3345 214.504 46.3345C212.711 46.3345 211.259 47.7887 211.259 49.5826C211.259 51.3765 212.711 52.8307 214.504 52.8307Z" fill="#E6E6E6"/>
<path d="M211.222 71.5288V65.1471C211.223 64.5126 211.475 63.9043 211.923 63.4556C212.371 63.007 212.979 62.7546 213.613 62.7539H228.489C229.123 62.7546 229.731 63.007 230.179 63.4556C230.627 63.9043 230.879 64.5126 230.88 65.1471V71.5288C230.879 72.1633 230.627 72.7716 230.179 73.2202C229.731 73.6689 229.123 73.9213 228.489 73.922H213.613C212.979 73.9213 212.371 73.6689 211.923 73.2202C211.475 72.7716 211.223 72.1633 211.222 71.5288Z" fill="#F2F2F2"/>
<path d="M227.958 30.8451H221.582C220.949 30.8444 220.341 30.5921 219.893 30.1434C219.444 29.6948 219.192 29.0865 219.192 28.452V2.39316C219.192 1.75867 219.444 1.15039 219.893 0.701737C220.341 0.253088 220.949 0.000715053 221.582 0H227.958C228.592 0.000715053 229.2 0.253088 229.648 0.701737C230.096 1.15039 230.348 1.75867 230.349 2.39316V28.452C230.348 29.0865 230.096 29.6948 229.648 30.1434C229.2 30.5921 228.592 30.8444 227.958 30.8451Z" fill="#F2F2F2"/>
<path d="M230.083 5.05225H219.457V7.1795H230.083V5.05225Z" fill="#CCCCCC"/>
<path d="M230.083 21.5384H219.457V23.6656H230.083V21.5384Z" fill="#CCCCCC"/>
<path d="M243.897 30.8451H237.521C236.888 30.8444 236.28 30.5921 235.832 30.1434C235.383 29.6948 235.131 29.0865 235.131 28.452V2.39316C235.131 1.75867 235.383 1.15039 235.832 0.701737C236.28 0.253088 236.888 0.000715053 237.521 0H243.897C244.531 0.000715053 245.139 0.253088 245.587 0.701737C246.035 1.15039 246.287 1.75867 246.288 2.39316V28.452C246.287 29.0865 246.035 29.6948 245.587 30.1434C245.139 30.5921 244.531 30.8444 243.897 30.8451Z" fill="#F2F2F2"/>
<path d="M246.022 5.05225H235.396V7.1795H246.022V5.05225Z" fill="#CCCCCC"/>
<path d="M246.022 21.5384H235.396V23.6656H246.022V21.5384Z" fill="#CCCCCC"/>
<path d="M259.836 30.8451H253.46C252.827 30.8444 252.219 30.5921 251.771 30.1434C251.322 29.6948 251.07 29.0865 251.07 28.452V2.39316C251.07 1.75867 251.322 1.15039 251.771 0.701737C252.219 0.253088 252.827 0.000715053 253.46 0H259.836C260.47 0.000715053 261.078 0.253088 261.526 0.701737C261.974 1.15039 262.226 1.75867 262.227 2.39316V28.452C262.226 29.0865 261.974 29.6948 261.526 30.1434C261.078 30.5921 260.47 30.8444 259.836 30.8451Z" fill="#F2F2F2"/>
<path d="M261.961 5.05225H251.335V7.1795H261.961V5.05225Z" fill="#CCCCCC"/>
<path d="M261.961 21.5384H251.335V23.6656H261.961V21.5384Z" fill="#CCCCCC"/>
<path d="M268.337 73.922H261.961C261.327 73.9213 260.72 73.6689 260.271 73.2202C259.823 72.7716 259.571 72.1633 259.57 71.5288V45.47C259.571 44.8355 259.823 44.2272 260.271 43.7786C260.72 43.3299 261.327 43.0776 261.961 43.0768H268.337C268.971 43.0776 269.578 43.3299 270.027 43.7786C270.475 44.2272 270.727 44.8355 270.728 45.47V71.5288C270.727 72.1633 270.475 72.7716 270.027 73.2202C269.578 73.6689 268.971 73.9213 268.337 73.922Z" fill="#F2F2F2"/>
<path d="M270.462 48.129H259.836V50.2563H270.462V48.129Z" fill="#CCCCCC"/>
<path d="M270.462 64.6152H259.836V66.7425H270.462V64.6152Z" fill="#CCCCCC"/>
<path d="M284.276 73.922H277.9C277.266 73.9213 276.659 73.6689 276.21 73.2202C275.762 72.7716 275.51 72.1633 275.509 71.5288V45.47C275.51 44.8355 275.762 44.2272 276.21 43.7786C276.659 43.3299 277.266 43.0776 277.9 43.0768H284.276C284.91 43.0776 285.517 43.3299 285.965 43.7786C286.414 44.2272 286.666 44.8355 286.667 45.47V71.5288C286.666 72.1633 286.414 72.7716 285.965 73.2202C285.517 73.6689 284.91 73.9213 284.276 73.922Z" fill="#F2F2F2"/>
<path d="M286.401 48.129H275.775V50.2563H286.401V48.129Z" fill="#CCCCCC"/>
<path d="M286.401 64.6152H275.775V66.7425H286.401V64.6152Z" fill="#CCCCCC"/>
<path d="M300.215 73.922H293.839C293.205 73.9213 292.597 73.6689 292.149 73.2202C291.701 72.7716 291.449 72.1633 291.448 71.5288V45.47C291.449 44.8355 291.701 44.2272 292.149 43.7786C292.597 43.3299 293.205 43.0776 293.839 43.0768H300.215C300.849 43.0776 301.456 43.3299 301.904 43.7786C302.353 44.2272 302.605 44.8355 302.605 45.47V71.5288C302.605 72.1633 302.353 72.7716 301.904 73.2202C301.456 73.6689 300.849 73.9213 300.215 73.922Z" fill="#F2F2F2"/>
<path d="M302.34 48.129H291.714V50.2563H302.34V48.129Z" fill="#CCCCCC"/>
<path d="M302.34 64.6152H291.714V66.7425H302.34V64.6152Z" fill="#CCCCCC"/>
<path d="M226.364 116.999H219.989C219.355 116.998 218.747 116.746 218.299 116.297C217.851 115.848 217.598 115.24 217.598 114.606V88.5468C217.598 87.9124 217.851 87.3041 218.299 86.8554C218.747 86.4068 219.355 86.1544 219.989 86.1537H226.364C226.998 86.1544 227.606 86.4068 228.054 86.8554C228.502 87.3041 228.754 87.9124 228.755 88.5468V114.606C228.754 115.24 228.502 115.848 228.054 116.297C227.606 116.746 226.998 116.998 226.364 116.999Z" fill="#F2F2F2"/>
<path d="M228.489 91.2059H217.863V93.3331H228.489V91.2059Z" fill="#CCCCCC"/>
<path d="M228.489 107.692H217.863V109.819H228.489V107.692Z" fill="#CCCCCC"/>
<path d="M242.303 116.999H235.928C235.294 116.998 234.686 116.746 234.238 116.297C233.79 115.848 233.537 115.24 233.537 114.606V88.5468C233.537 87.9124 233.79 87.3041 234.238 86.8554C234.686 86.4068 235.294 86.1544 235.928 86.1537H242.303C242.937 86.1544 243.545 86.4068 243.993 86.8554C244.441 87.3041 244.693 87.9124 244.694 88.5468V114.606C244.693 115.24 244.441 115.848 243.993 116.297C243.545 116.746 242.937 116.998 242.303 116.999Z" fill="#F2F2F2"/>
<path d="M244.428 91.2059H233.802V93.3331H244.428V91.2059Z" fill="#CCCCCC"/>
<path d="M244.428 107.692H233.802V109.819H244.428V107.692Z" fill="#CCCCCC"/>
<path d="M258.242 116.999H251.867C251.233 116.998 250.625 116.746 250.177 116.297C249.729 115.848 249.476 115.24 249.476 114.606V88.5468C249.476 87.9124 249.729 87.3041 250.177 86.8554C250.625 86.4068 251.233 86.1544 251.867 86.1537H258.242C258.876 86.1544 259.484 86.4068 259.932 86.8554C260.38 87.3041 260.632 87.9124 260.633 88.5468V114.606C260.632 115.24 260.38 115.848 259.932 116.297C259.484 116.746 258.876 116.998 258.242 116.999Z" fill="#F2F2F2"/>
<path d="M260.367 91.2059H249.741V93.3331H260.367V91.2059Z" fill="#CCCCCC"/>
<path d="M260.367 107.692H249.741V109.819H260.367V107.692Z" fill="#CCCCCC"/>
<path d="M275.775 30.8451H269.399C268.766 30.8444 268.158 30.5921 267.71 30.1434C267.261 29.6948 267.009 29.0865 267.009 28.452V2.39316C267.009 1.75867 267.261 1.15039 267.71 0.701737C268.158 0.253088 268.766 0.000715053 269.399 0H275.775C276.409 0.000715053 277.017 0.253088 277.465 0.701737C277.913 1.15039 278.165 1.75867 278.166 2.39316V28.452C278.165 29.0865 277.913 29.6948 277.465 30.1434C277.017 30.5921 276.409 30.8444 275.775 30.8451Z" fill="#F2F2F2"/>
<path d="M277.9 5.05225H267.274V7.1795H277.9V5.05225Z" fill="#CCCCCC"/>
<path d="M277.9 21.5384H267.274V23.6656H277.9V21.5384Z" fill="#CCCCCC"/>
<path d="M291.714 30.8451H285.338C284.704 30.8444 284.097 30.5921 283.648 30.1434C283.2 29.6948 282.948 29.0865 282.947 28.452V2.39316C282.948 1.75867 283.2 1.15039 283.648 0.701737C284.097 0.253088 284.704 0.000715053 285.338 0H291.714C292.348 0.000715053 292.955 0.253088 293.404 0.701737C293.852 1.15039 294.104 1.75867 294.105 2.39316V28.452C294.104 29.0865 293.852 29.6948 293.404 30.1434C292.955 30.5921 292.348 30.8444 291.714 30.8451Z" fill="#F2F2F2"/>
<path d="M293.839 5.05225H283.213V7.1795H293.839V5.05225Z" fill="#CCCCCC"/>
<path d="M293.839 21.5384H283.213V23.6656H293.839V21.5384Z" fill="#CCCCCC"/>
<path d="M307.653 30.8451H301.277C300.643 30.8444 300.036 30.5921 299.587 30.1434C299.139 29.6948 298.887 29.0865 298.886 28.452V2.39316C298.887 1.75867 299.139 1.15039 299.587 0.701737C300.036 0.253088 300.643 0.000715053 301.277 0H307.653C308.287 0.000715053 308.894 0.253088 309.343 0.701737C309.791 1.15039 310.043 1.75867 310.044 2.39316V28.452C310.043 29.0865 309.791 29.6948 309.343 30.1434C308.894 30.5921 308.287 30.8444 307.653 30.8451Z" fill="#F2F2F2"/>
<path d="M309.778 5.05225H299.152V7.1795H309.778V5.05225Z" fill="#CCCCCC"/>
<path d="M309.778 21.5384H299.152V23.6656H309.778V21.5384Z" fill="#CCCCCC"/>
<path d="M323.592 30.8451H317.216C316.582 30.8444 315.975 30.5921 315.526 30.1434C315.078 29.6948 314.826 29.0865 314.825 28.452V2.39316C314.826 1.75867 315.078 1.15039 315.526 0.701737C315.975 0.253088 316.582 0.000715053 317.216 0H323.592C324.226 0.000715053 324.833 0.253088 325.282 0.701737C325.73 1.15039 325.982 1.75867 325.983 2.39316V28.452C325.982 29.0865 325.73 29.6948 325.282 30.1434C324.833 30.5921 324.226 30.8444 323.592 30.8451Z" fill="#F2F2F2"/>
<path d="M325.717 5.05225H315.091V7.1795H325.717V5.05225Z" fill="#CCCCCC"/>
<path d="M325.717 21.5384H315.091V23.6656H325.717V21.5384Z" fill="#CCCCCC"/>
<path d="M347.469 31.6428H196.049C195.908 31.6428 195.773 31.5868 195.673 31.4871C195.574 31.3873 195.518 31.2521 195.518 31.111C195.518 30.97 195.574 30.8347 195.673 30.735C195.773 30.6352 195.908 30.5792 196.049 30.5792H347.469C347.61 30.5792 347.745 30.6352 347.844 30.735C347.944 30.8347 348 30.97 348 31.111C348 31.2521 347.944 31.3873 347.844 31.4871C347.745 31.5868 347.61 31.6428 347.469 31.6428Z" fill="#CCCCCC"/>
<path d="M347.469 74.7197H196.049C195.908 74.7197 195.773 74.6637 195.673 74.5639C195.574 74.4642 195.518 74.3289 195.518 74.1879C195.518 74.0468 195.574 73.9116 195.673 73.8118C195.773 73.7121 195.908 73.6561 196.049 73.6561H347.469C347.61 73.6561 347.745 73.7121 347.844 73.8118C347.944 73.9116 348 74.0468 348 74.1879C348 74.3289 347.944 74.4642 347.844 74.5639C347.745 74.6637 347.61 74.7197 347.469 74.7197Z" fill="#CCCCCC"/>
<path d="M347.469 117.797H196.049C195.908 117.797 195.773 117.74 195.673 117.641C195.574 117.541 195.518 117.406 195.518 117.265C195.518 117.124 195.574 116.988 195.673 116.889C195.773 116.789 195.908 116.733 196.049 116.733H347.469C347.61 116.733 347.745 116.789 347.844 116.889C347.944 116.988 348 117.124 348 117.265C348 117.406 347.944 117.541 347.844 117.641C347.745 117.74 347.61 117.797 347.469 117.797Z" fill="#CCCCCC"/>
<path d="M308.983 111.905C309.639 104.829 311.452 97.9094 314.349 91.4215C315.157 89.616 316.046 87.8503 317.016 86.1243C317.064 86.034 317.076 85.9284 317.048 85.8296C317.021 85.7308 316.956 85.6467 316.867 85.595C316.779 85.5432 316.674 85.5279 316.574 85.5522C316.475 85.5765 316.388 85.6385 316.334 85.7253C312.806 92.0118 310.335 98.8359 309.019 105.925C308.653 107.904 308.378 109.898 308.193 111.905C308.146 112.412 308.937 112.409 308.983 111.905Z" fill="#E6E6E6"/>
<path d="M318.928 87.3921C321.691 87.3921 323.93 85.1505 323.93 82.3854C323.93 79.6203 321.691 77.3787 318.928 77.3787C316.166 77.3787 313.927 79.6203 313.927 82.3854C313.927 85.1505 316.166 87.3921 318.928 87.3921Z" fill="#E6E6E6"/>
<path d="M309.495 112.038C309.921 107.448 311.097 102.959 312.976 98.7496C313.5 97.5783 314.077 96.4327 314.706 95.313C314.737 95.2544 314.745 95.1859 314.727 95.1218C314.709 95.0578 314.667 95.0032 314.61 94.9696C314.552 94.9361 314.484 94.9261 314.419 94.9419C314.355 94.9576 314.299 94.9979 314.263 95.0541C311.975 99.1325 310.372 103.56 309.518 108.158C309.28 109.443 309.102 110.736 308.982 112.038C308.952 112.367 309.465 112.365 309.495 112.038Z" fill="#E6E6E6"/>
<path d="M315.947 96.1355C317.739 96.1355 319.192 94.6813 319.192 92.8874C319.192 91.0936 317.739 89.6393 315.947 89.6393C314.155 89.6393 312.702 91.0936 312.702 92.8874C312.702 94.6813 314.155 96.1355 315.947 96.1355Z" fill="#E6E6E6"/>
<path d="M308.848 111.732C306.363 107.85 304.532 103.586 303.428 99.1105C303.121 97.8645 302.872 96.6063 302.68 95.336C302.669 95.2704 302.632 95.2116 302.579 95.1721C302.525 95.1327 302.459 95.1156 302.393 95.1244C302.327 95.1333 302.267 95.1674 302.226 95.2196C302.185 95.2718 302.165 95.338 302.172 95.4042C302.873 100.029 304.33 104.507 306.482 108.658C307.084 109.817 307.738 110.947 308.444 112.047C308.622 112.325 309.025 112.008 308.848 111.732Z" fill="#E6E6E6"/>
<path d="M302.168 95.9075C303.96 95.9075 305.413 94.4533 305.413 92.6595C305.413 90.8656 303.96 89.4114 302.168 89.4114C300.376 89.4114 298.923 90.8656 298.923 92.6595C298.923 94.4533 300.376 95.9075 302.168 95.9075Z" fill="#E6E6E6"/>
<path d="M298.886 114.606V108.224C298.887 107.589 299.139 106.981 299.587 106.532C300.036 106.084 300.643 105.831 301.277 105.831H316.154C316.787 105.831 317.395 106.084 317.843 106.532C318.292 106.981 318.544 107.589 318.544 108.224V114.606C318.544 115.24 318.292 115.848 317.843 116.297C317.395 116.746 316.787 116.998 316.154 116.999H301.277C300.643 116.998 300.036 116.746 299.587 116.297C299.139 115.848 298.887 115.24 298.886 114.606Z" fill="#F2F2F2"/>
<path d="M202.956 193.314H0.531298C0.390389 193.314 0.255259 193.258 0.155621 193.158C0.0559836 193.058 0 192.923 0 192.782C0 192.641 0.0559836 192.506 0.155621 192.406C0.255259 192.306 0.390389 192.25 0.531298 192.25H202.956C203.097 192.25 203.232 192.306 203.331 192.406C203.431 192.506 203.487 192.641 203.487 192.782C203.487 192.923 203.431 193.058 203.331 193.158C203.232 193.258 203.097 193.314 202.956 193.314Z" fill="#3F3D56"/>
<path d="M105.76 123.646C113.682 123.646 120.105 117.218 120.105 109.288C120.105 101.357 113.682 94.9286 105.76 94.9286C97.837 94.9286 91.4146 101.357 91.4146 109.288C91.4146 117.218 97.837 123.646 105.76 123.646Z" fill="#2F2E41"/>
<path d="M92.1296 201.464L91.7498 194.956L116.65 190.391L117.211 199.997L92.1296 201.464Z" fill="#FFB8B8"/>
<path d="M93.3359 190.198L94.069 202.751L86.1731 203.213L84.9785 182.757C86.0154 182.696 87.0541 182.84 88.0353 183.181C89.0164 183.523 89.9209 184.054 90.6969 184.745C91.473 185.436 92.1055 186.273 92.5583 187.209C93.0111 188.144 93.2753 189.16 93.3359 190.198Z" fill="#2F2E41"/>
<path d="M102.96 201.405L98.8235 206.442L77.4462 192.87L83.5502 185.437L102.96 201.405Z" fill="#FFB8B8"/>
<path d="M94.4315 208.857L102.408 199.143L108.518 204.17L95.5196 220C94.7172 219.34 94.0525 218.528 93.5636 217.611C93.0746 216.693 92.771 215.689 92.6699 214.654C92.5689 213.619 92.6725 212.575 92.9747 211.58C93.277 210.585 93.772 209.66 94.4315 208.857Z" fill="#2F2E41"/>
<path d="M91.0573 177.982L88.231 191.319C88.1659 191.626 88.1695 191.944 88.2416 192.249C88.3137 192.555 88.4524 192.841 88.6478 193.086C88.8433 193.332 89.0906 193.531 89.372 193.669C89.6535 193.808 89.962 193.882 90.2756 193.887L118.061 194.336C118.375 194.341 118.685 194.277 118.97 194.148C119.256 194.019 119.509 193.828 119.713 193.589C119.916 193.351 120.064 193.07 120.146 192.768C120.228 192.465 120.243 192.148 120.188 191.839L117.758 178.053C117.671 177.561 117.414 177.115 117.031 176.793C116.648 176.472 116.165 176.296 115.665 176.296H93.1362C92.6492 176.296 92.1769 176.463 91.7985 176.77C91.42 177.077 91.1584 177.505 91.0573 177.982Z" fill="#2F2E41"/>
<path d="M95.665 182.678C95.665 182.678 68.5688 165.66 63.2558 174.7C60.5993 179.221 61.9276 183.608 63.9199 186.866C65.7689 189.831 68.4229 192.209 71.572 193.721L93.5398 204.482L101.509 195.973L96.1963 191.187L95.665 182.678Z" fill="#2F2E41"/>
<path d="M109.479 180.019C109.479 180.019 144.544 169.914 137.637 189.059C130.731 208.205 104.697 200.759 104.697 200.759L102.041 192.782L111.073 186.4L109.479 180.019Z" fill="#2F2E41"/>
<path d="M105.939 125.628C113.146 125.628 118.989 119.78 118.989 112.566C118.989 105.352 113.146 99.5045 105.939 99.5045C98.7326 99.5045 92.8903 105.352 92.8903 112.566C92.8903 119.78 98.7326 125.628 105.939 125.628Z" fill="#FFB8B8"/>
<path d="M106.623 182.129C101.201 182.047 95.8064 181.336 90.5478 180.009L90.3924 179.967L83.1106 146.439C82.4556 143.492 82.901 140.408 84.3627 137.768C85.8244 135.128 88.2013 133.115 91.0444 132.11C99.8267 128.956 109.399 128.764 118.3 131.565C121.286 132.528 123.801 134.584 125.34 137.32C126.88 140.057 127.332 143.275 126.607 146.331L118.473 179.939L118.359 179.993C114.979 181.596 110.752 182.129 106.623 182.129Z" fill="#CCCCCC"/>
<path d="M96.842 184.734C97.1064 183.998 97.5288 183.329 98.0793 182.775C98.6298 182.22 99.2952 181.793 100.028 181.524C100.762 181.255 101.545 181.149 102.323 181.216C103.101 181.282 103.856 181.519 104.533 181.909L118.871 169.451L120.168 179.241L106.353 189.57C105.624 190.665 104.518 191.454 103.246 191.788C101.974 192.122 100.624 191.977 99.4517 191.381C98.2792 190.784 97.366 189.779 96.885 188.554C96.404 187.328 96.3887 185.969 96.842 184.734Z" fill="#FFB8B8"/>
<path d="M110.516 187.451C110.283 187.451 110.051 187.417 109.828 187.35C109.465 187.244 109.133 187.053 108.859 186.792C108.585 186.532 108.377 186.209 108.254 185.852L106.523 180.944C106.361 180.49 106.34 179.998 106.464 179.533C106.588 179.067 106.849 178.65 107.215 178.337L126.75 166.598L119.049 132.21L119.245 132.163C119.325 132.143 127.215 130.346 130.448 138.976C132.712 145.02 141.091 158.162 140.5 167.043C140.387 168.819 139.68 170.506 138.492 171.83C137.305 173.155 135.705 174.04 133.953 174.343L111.964 186.954C111.549 187.275 111.04 187.45 110.516 187.451Z" fill="#CCCCCC"/>
<path d="M112.707 183.567C112.443 182.832 112.021 182.163 111.47 181.608C110.92 181.054 110.254 180.627 109.521 180.357C108.788 180.088 108.004 179.983 107.226 180.049C106.448 180.116 105.694 180.352 105.017 180.742L90.6788 168.285L89.3816 178.075L103.196 188.403C103.926 189.499 105.031 190.288 106.303 190.621C107.575 190.955 108.925 190.81 110.098 190.214C111.27 189.618 112.183 188.612 112.664 187.387C113.145 186.162 113.161 184.803 112.707 183.567Z" fill="#FFB8B8"/>
<path d="M100.472 187.451C99.9475 187.45 99.4385 187.275 99.0243 186.954L75.441 175.407C73.6887 175.104 72.0895 174.219 70.9017 172.894C69.7138 171.569 69.0067 169.883 68.8944 168.106C68.3033 159.225 78.2757 145.02 80.5398 138.976C83.7728 130.346 91.6629 132.143 91.7426 132.163L91.9385 132.21L82.6439 167.661L103.773 178.337C104.138 178.65 104.4 179.067 104.524 179.533C104.647 179.998 104.627 180.491 104.465 180.944L102.734 185.852C102.61 186.209 102.403 186.532 102.129 186.792C101.855 187.053 101.523 187.244 101.16 187.35C100.937 187.417 100.705 187.451 100.472 187.451Z" fill="#CCCCCC"/>
<path d="M128.605 192.782H81.3199C80.3339 192.781 79.3886 192.388 78.6914 191.69C77.9942 190.993 77.602 190.046 77.6008 189.059V163.001C77.602 162.014 77.9942 161.067 78.6914 160.369C79.3886 159.672 80.3339 159.279 81.3199 159.278H128.605C129.591 159.279 130.537 159.672 131.234 160.369C131.931 161.067 132.323 162.014 132.324 163.001V189.059C132.323 190.046 131.931 190.993 131.234 191.69C130.537 192.388 129.591 192.781 128.605 192.782Z" fill="#313B6B"/>
<path d="M104.963 179.221C106.723 179.221 108.15 177.792 108.15 176.03C108.15 174.268 106.723 172.839 104.963 172.839C103.202 172.839 101.775 174.268 101.775 176.03C101.775 177.792 103.202 179.221 104.963 179.221Z" fill="white"/>
<path d="M92.7596 112.035C91.9863 110.071 93.2552 107.731 95.1376 106.78C97.02 105.829 99.2915 106.01 101.305 106.636C102.997 107.163 104.583 107.98 106.234 108.625C107.861 109.347 109.639 109.663 111.415 109.548C113.176 109.349 114.929 108.361 115.649 106.74C116.396 105.061 115.888 103.011 114.738 101.577C113.514 100.191 111.931 99.1722 110.163 98.6336C106.28 97.2645 101.796 97.2245 98.1914 99.2146C94.587 101.205 92.1375 105.442 92.8826 109.495" fill="#2F2E41"/>
<path d="M17.3535 187.102C18.0099 180.026 19.8228 173.105 22.7199 166.618C23.5274 164.812 24.4161 163.046 25.386 161.32C25.4347 161.23 25.4464 161.124 25.4187 161.026C25.3911 160.927 25.3261 160.843 25.2377 160.791C25.1492 160.739 25.0441 160.724 24.9446 160.748C24.845 160.773 24.7588 160.835 24.7041 160.921C21.1767 167.208 18.7055 174.032 17.3893 181.121C17.0232 183.1 16.748 185.094 16.5638 187.102C16.517 187.608 17.307 187.605 17.3535 187.102Z" fill="#E6E6E6"/>
<path d="M27.2988 162.588C30.0613 162.588 32.3007 160.347 32.3007 157.581C32.3007 154.816 30.0613 152.575 27.2988 152.575C24.5364 152.575 22.297 154.816 22.297 157.581C22.297 160.347 24.5364 162.588 27.2988 162.588Z" fill="#18E7C3"/>
<path d="M17.8651 187.235C18.291 182.644 19.4671 178.155 21.3466 173.946C21.8704 172.774 22.4469 171.629 23.0762 170.509C23.1077 170.45 23.1154 170.382 23.0974 170.318C23.0794 170.254 23.0373 170.199 22.9799 170.166C22.9225 170.132 22.8544 170.122 22.7898 170.138C22.7252 170.154 22.6693 170.194 22.6338 170.25C20.3454 174.329 18.7422 178.756 17.8883 183.355C17.6508 184.639 17.4723 185.932 17.3528 187.235C17.3224 187.563 17.835 187.561 17.8651 187.235Z" fill="#E6E6E6"/>
<path d="M24.3171 171.331C26.1093 171.331 27.5621 169.877 27.5621 168.083C27.5621 166.29 26.1093 164.835 24.3171 164.835C22.525 164.835 21.0722 166.29 21.0722 168.083C21.0722 169.877 22.525 171.331 24.3171 171.331Z" fill="#18E7C3"/>
<path d="M17.2185 186.928C14.7335 183.046 12.9023 178.782 11.798 174.306C11.4913 173.06 11.242 171.802 11.0501 170.532C11.039 170.466 11.0029 170.408 10.9494 170.368C10.8959 170.329 10.8291 170.312 10.7632 170.32C10.6973 170.329 10.6374 170.363 10.5962 170.416C10.555 170.468 10.5356 170.534 10.5422 170.6C11.2439 175.225 12.7001 179.703 14.8527 183.854C15.4545 185.013 16.1085 186.143 16.8145 187.243C16.9924 187.521 17.3953 187.204 17.2185 186.928Z" fill="#E6E6E6"/>
<path d="M10.5381 171.104C12.3303 171.104 13.7831 169.649 13.7831 167.855C13.7831 166.062 12.3303 164.607 10.5381 164.607C8.74602 164.607 7.29321 166.062 7.29321 167.855C7.29321 169.649 8.74602 171.104 10.5381 171.104Z" fill="#18E7C3"/>
<path d="M7.25677 189.802V183.42C7.25749 182.785 7.50962 182.177 7.95783 181.728C8.40605 181.28 9.01374 181.027 9.64761 181.027H24.524C25.1578 181.027 25.7655 181.28 26.2137 181.728C26.6619 182.177 26.9141 182.785 26.9148 183.42V189.802C26.9141 190.436 26.6619 191.044 26.2137 191.493C25.7655 191.942 25.1578 192.194 24.524 192.195H9.64761C9.01374 192.194 8.40605 191.942 7.95783 191.493C7.50962 191.044 7.25749 190.436 7.25677 189.802Z" fill="#F2F2F2"/>
<path d="M167.045 197.25C167.045 200.747 164.212 202.337 160.718 202.337C157.223 202.337 154.39 200.747 154.39 197.25C154.39 193.752 155.796 189.671 160.718 191.078C165.639 188.967 167.045 193.752 167.045 197.25Z" fill="#FF6584"/>
<path d="M160.409 192.717C160.163 192.717 159.926 192.628 159.741 192.465C159.556 192.303 159.436 192.078 159.405 191.834C159.195 190.089 158.04 186.671 157.554 185.283L157.554 185.283C157.504 185.145 157.489 184.997 157.51 184.852C157.53 184.707 157.585 184.569 157.671 184.45C157.752 184.343 157.855 184.255 157.973 184.192C158.091 184.128 158.222 184.09 158.355 184.08C158.489 184.071 158.623 184.09 158.749 184.136C158.875 184.182 158.99 184.254 159.086 184.347C159.171 184.437 159.238 184.544 159.281 184.661C159.323 184.778 159.342 184.902 159.334 185.026C159.239 186.808 160.537 189.687 161.319 191.245C161.393 191.392 161.43 191.555 161.427 191.719C161.424 191.884 161.381 192.045 161.302 192.189C161.223 192.333 161.111 192.456 160.974 192.547C160.837 192.638 160.68 192.694 160.517 192.711C160.481 192.715 160.445 192.717 160.409 192.717Z" fill="#3F3D56"/>
<path d="M165.091 188.786C167.288 186.986 165.564 183.304 162.815 184.011C162.446 184.099 162.105 184.281 161.825 184.54C160.139 186.134 159.878 190.214 159.878 190.214C159.878 190.214 162.855 190.617 165.091 188.786Z" fill="#3F3D56"/>
</g>
<defs>
<clipPath id="clip0_5_582">
<rect width="348" height="220" fill="white"/>
</clipPath>
</defs>
</svg>
