<svg width="256" height="170" viewBox="0 0 256 170" fill="none" xmlns="http://www.w3.org/2000/svg">
<g clip-path="url(#clip0_2_303)">
<path d="M44.0212 162.379L47.8689 163.42L53.7203 149.094L48.041 147.558L44.0212 162.379Z" fill="#FFB6B6"/>
<path d="M42.7982 166.351L54.6313 169.552L54.6718 169.402C55.0026 168.182 54.8347 166.881 54.2049 165.785C53.5752 164.689 52.5352 163.888 51.3138 163.557L51.3135 163.557L49.5962 161.335L45.1192 161.882L44.0862 161.602L42.7982 166.351Z" fill="#2F2E41"/>
<path d="M70.59 165.713L74.5764 165.713L76.473 150.358L70.5891 150.358L70.59 165.713Z" fill="#FFB6B6"/>
<path d="M70.4495 169.866L82.7089 169.866V169.711C82.7088 168.447 82.2061 167.235 81.3112 166.342C80.4164 165.448 79.2027 164.946 77.9372 164.946H77.9369L75.6976 163.25L71.5195 164.946L70.4493 164.946L70.4495 169.866Z" fill="#2F2E41"/>
<path d="M72.2921 77.1694L77.6421 152.839L69.0264 153.601L57.0067 97.5212L58.3386 129.969L53.5681 155.489L46.2755 151.967L46.3967 125.395L36.8223 82.4531L39.3706 77.1694H72.2921Z" fill="#2F2E41"/>
<path d="M38.0441 86.5843L37.9906 86.5094C35.1353 82.5176 39.4297 72.9252 40.0774 71.5347C39.3082 71.2855 38.6494 70.7777 38.2131 70.0979C37.7768 69.418 37.59 68.6082 37.6844 67.8063L37.9636 65.4362L38.2547 63.1115L36.1697 61.0294L36.1638 60.9775L34.9639 50.4932L33.2193 43.5297C32.562 40.8972 32.618 38.1375 33.3816 35.5338C34.1453 32.9301 35.589 30.5763 37.5647 28.7138L41.5973 28.0744L46.4982 23.359H54.4015L57.1113 25.9444C62.17 26.8303 63.0391 26.5411 67.3844 31.7481L65.4099 47.937L64.9174 50.1641L64.9188 53.1847L66.1711 54.5745C66.6222 55.0751 66.95 55.674 67.1283 56.3234C67.3067 56.9729 67.3307 57.655 67.1984 58.3153L67.0337 59.1375C68.3253 59.6902 69.5577 69.5127 69.8521 70.8847L70.2919 72.9342C70.6682 73.43 73.1519 76.7371 73.1519 77.6411C73.1519 77.7768 73.0516 77.908 72.8363 78.0536C71.1437 79.1981 64.3955 87.3171 60.2549 85.6625C55.8444 83.9015 38.3118 86.5433 38.1352 86.5703L38.0441 86.5843Z" fill="#3F3D56"/>
<path d="M36.9822 67.7593C36.9822 67.7593 39.0118 56.3054 36.9671 51.9978L28.8558 52.5763L30.0903 68.9168L37.181 87.0597C37.0728 87.6187 37.1146 88.1963 37.3022 88.734C37.4898 89.2716 37.8165 89.7501 38.2492 90.1208C38.6818 90.4916 39.205 90.7415 39.7656 90.8451C40.3263 90.9486 40.9043 90.9022 41.4412 90.7106C41.9781 90.5189 42.4546 90.1888 42.8224 89.7538C43.1902 89.3188 43.4362 88.7943 43.5354 88.2337C43.6346 87.673 43.5835 87.0962 43.3872 86.5616C43.191 86.0271 42.8566 85.5539 42.418 85.1901L36.9822 67.7593Z" fill="#FFB6B6"/>
<path d="M28.8558 45.9229L29.3578 40.4638C29.5467 38.4092 30.1406 36.4122 31.1052 34.5876C32.0699 32.763 33.3862 31.1469 34.9786 29.8322C35.968 29.0214 37.1647 28.503 38.4336 28.3358C39.7026 28.1685 40.993 28.359 42.1592 28.8856C43.7353 29.6102 44.977 30.9054 45.6333 32.5092C46.2896 34.1131 46.3116 35.906 45.6948 37.5254C43.82 42.4352 44.497 47.6274 40.8415 48.2605L41.2386 50.1473L37.6444 61.8603L27.4073 60.6762L28.8558 45.9229Z" fill="#3F3D56"/>
<path d="M69.0587 83.2937C68.7 83.7363 68.4649 84.2657 68.3774 84.8283C68.2898 85.3909 68.3529 85.9666 68.5602 86.4969C68.7675 87.0273 69.1116 87.4934 69.5577 87.8481C70.0037 88.2027 70.5358 88.4331 71.0998 88.516C71.6639 88.5989 72.2399 88.5313 72.7693 88.32C73.2987 88.1088 73.7628 87.7614 74.1143 87.3131C74.4658 86.8649 74.6923 86.3317 74.7707 85.7678C74.8492 85.2039 74.7769 84.6293 74.561 84.1023L77.9542 64.9236L75.9582 48.6584L67.8907 49.6782C66.7309 54.3024 70.9687 65.1372 70.9687 65.1372L69.0587 83.2937Z" fill="#FFB6B6"/>
<path d="M78.968 56.3178L69.1619 59.4821L65.3863 53.6005L65.4056 51.6726C61.6967 51.7672 59.2941 41.642 56.4923 37.1942C55.5697 35.7269 55.2394 33.9645 55.5683 32.2633C55.8972 30.5621 56.8607 29.0491 58.264 28.0301C59.3042 27.2855 60.5323 26.8462 61.8094 26.7619C63.0866 26.6777 64.3618 26.9518 65.4912 27.5533C67.3106 28.5309 68.9186 29.8581 70.2225 31.4586C71.5265 33.059 72.5007 34.9011 73.0892 36.8789L74.6527 42.1339L78.968 56.3178Z" fill="#3F3D56"/>
<path d="M49.9166 21.081C54.7641 21.081 58.6938 17.1569 58.6938 12.3162C58.6938 7.47553 54.7641 3.55139 49.9166 3.55139C45.0691 3.55139 41.1394 7.47553 41.1394 12.3162C41.1394 17.1569 45.0691 21.081 49.9166 21.081Z" fill="#FFB6B6"/>
<path d="M43.5464 18.4941C43.4699 18.427 43.3977 18.3553 43.323 18.2864C43.3203 18.2934 43.3199 18.3007 43.317 18.3077L43.5464 18.4941Z" fill="#2F2E41"/>
<path d="M57.1094 3.06056C56.6733 2.35952 56.0693 1.77796 55.3518 1.36834C54.8614 1.13083 54.3461 0.948511 53.8154 0.824733L52.4263 0.446271C51.7146 0.226352 50.9824 0.0791264 50.2409 0.00685448C49.2112 -0.0438686 48.1874 0.188941 47.2812 0.67985C46.3751 1.17076 45.6214 1.90089 45.1026 2.7905C44.683 3.53382 44.3463 4.46009 43.5364 4.73204C42.8833 4.95133 42.1707 4.64201 41.4843 4.70202C41.0821 4.76022 40.7005 4.9166 40.3732 5.15729C40.046 5.39799 39.7833 5.71557 39.6084 6.08189C39.2663 6.81907 39.0979 7.62472 39.1162 8.43699C39.0892 10.2811 39.4497 12.1104 40.1742 13.8069C40.8988 15.5034 41.9715 17.0294 43.323 18.2864C43.5495 17.6901 43.1764 17.0463 42.8814 16.4759C42.583 15.8987 42.3985 15.0941 42.8984 14.6784C43.4546 14.2158 44.3457 14.6644 45.0035 14.3627C45.2139 14.242 45.3912 14.0711 45.5194 13.8654C45.6476 13.6596 45.7227 13.4253 45.7382 13.1834C45.8018 12.7042 45.7354 12.217 45.7655 11.7345C45.7952 11.259 45.9184 10.7939 46.128 10.3659C46.3377 9.93792 46.6297 9.55535 46.9874 9.24005C47.3452 8.92475 47.7616 8.68289 48.2129 8.5283C48.6642 8.3737 49.1416 8.30939 49.6178 8.33903C49.6288 8.33971 49.6397 8.34044 49.6507 8.34122C51.1479 8.44802 52.601 9.46969 54.0418 9.04938C54.7182 8.85209 55.295 8.34977 55.9945 8.26527C56.7692 8.17169 57.498 8.60827 58.1558 9.02748C58.3948 8.01394 58.4253 6.9625 58.2454 5.93685C58.0656 4.9112 57.6791 3.93268 57.1094 3.06056Z" fill="#2F2E41"/>
<path d="M102.975 164.942L100.741 161.358L100.295 163.406C100.217 163.765 100.139 164.129 100.066 164.491C99.432 163.95 98.7571 163.449 98.0966 162.969C96.0688 161.499 94.0419 160.028 92.016 158.555L92.6504 162.229C93.0415 164.491 93.45 166.799 94.4175 168.867C94.5247 169.102 94.6406 169.333 94.7652 169.559H104.192C104.267 169.349 104.32 169.132 104.348 168.911C104.35 168.897 104.351 168.882 104.351 168.868C104.499 167.464 103.722 166.142 102.975 164.942Z" fill="#F0F0F0"/>
<path d="M113.943 169.911L22.5873 170C22.4962 170 22.4089 169.963 22.3446 169.899C22.2802 169.834 22.2441 169.747 22.2441 169.656C22.2441 169.565 22.2802 169.477 22.3446 169.413C22.4089 169.348 22.4962 169.312 22.5873 169.311L113.943 169.222C114.034 169.223 114.121 169.259 114.186 169.324C114.25 169.388 114.286 169.476 114.286 169.567C114.286 169.658 114.25 169.745 114.186 169.81C114.121 169.874 114.034 169.911 113.943 169.911Z" fill="#CACACA"/>
<path d="M208.373 55.9456C208.353 66.072 204.54 75.8247 197.684 83.2864C190.829 90.748 181.426 95.3789 171.324 96.2685C161.223 97.1581 151.153 94.2422 143.096 88.0939C135.038 81.9456 129.575 73.0098 127.78 63.0432C125.986 53.0766 127.99 42.8001 133.398 34.2341C138.807 25.6681 147.228 19.4322 157.008 16.7524C166.787 14.0726 177.216 15.1428 186.245 19.7524C195.274 24.3621 202.25 32.1779 205.801 41.6632C205.89 41.9014 205.976 42.1395 206.06 42.38V42.3823C206.435 43.4394 206.765 44.5162 207.051 45.6126C207.931 48.9864 208.376 52.459 208.373 55.9456Z" fill="#3F3D56"/>
<path d="M163.009 28.3962C161.171 27.4039 159.131 26.8437 157.043 26.7585C154.956 26.6732 152.877 27.065 150.964 27.9041C149.28 28.636 147.507 29.9489 146.945 32.3197C149.217 30.9807 152.158 33.0963 152.743 36.4902L152.607 36.5278C152.298 38.8786 152.987 41.438 154.322 42.8956C154.421 42.2379 154.666 41.6105 155.038 41.059C155.41 40.5075 155.901 40.0458 156.475 39.7074C157.455 39.0637 158.54 38.5961 159.288 37.4896C160.176 36.1779 160.401 34.2609 160.754 32.512C161.106 30.7632 161.775 28.8835 163.009 28.3962Z" fill="#04C5CF"/>
<path d="M150.29 48.4006C149.661 49.3443 148.82 49.9364 148.066 50.6736C147.196 51.4645 146.624 52.5308 146.449 53.693C146.353 54.5142 146.501 55.3489 146.481 56.1792C146.46 57.0095 146.183 57.9441 145.617 58.1505C144.725 58.4726 144.043 56.8167 143.125 56.701C142.396 56.6102 141.74 57.7558 141.951 58.7494C142.162 59.743 143.155 60.1831 143.725 59.5343C144.241 60.3986 143.877 61.9662 143.103 62.2315C143.021 62.776 142.939 63.3182 142.859 63.8626C140.901 62.4947 138.923 61.1041 137.258 59.101C135.406 56.8922 134.257 54.181 133.959 51.3156C133.743 49.0131 134.064 46.3794 133.005 44.6077C132.158 43.1899 130.704 42.8768 129.395 42.9653C129.157 42.9812 128.916 43.0084 128.677 43.0379C129.449 40.7235 130.429 38.4836 131.606 36.3458C131.872 36.2317 132.119 36.078 132.339 35.8898C133.557 34.8577 134.098 32.7684 135.086 31.3234C135.149 31.2304 135.215 31.1396 135.283 31.0512C136.294 29.7332 137.648 29.0549 138.957 28.4242C141.853 27.0201 144.834 25.5977 147.891 25.7928L147.021 25.8767C146.006 28.7169 144.99 31.557 143.973 34.3972C143.818 34.8327 143.662 35.269 143.505 35.7061C142.928 37.3213 142.332 39.0408 142.421 40.8488C142.473 41.9195 142.846 43.0628 143.555 43.4303C144.216 43.7706 144.938 43.3532 145.576 42.9403C145.847 42.7679 146.115 42.5955 146.385 42.4208C147.355 41.797 148.43 41.1573 149.454 41.5747C150.392 41.9558 151.085 43.2284 151.217 44.6008C151.338 45.9349 151.012 47.2714 150.29 48.4006Z" fill="#04C5CF"/>
<path d="M156.059 67.791C153.226 66.0491 150.393 64.3072 147.56 62.5654L147.608 62.4417C145.847 63.1116 145.116 66.2383 145.407 68.7952C145.698 71.3521 146.685 73.6379 147.184 76.1293C147.856 79.5387 147.602 83.0657 146.449 86.3441C150.174 82.17 153.471 77.6335 156.29 72.8027C156.683 72.1938 156.983 71.5294 157.18 70.8316C157.388 70.088 157.314 69.2939 156.972 68.6014C156.74 68.2597 156.426 67.9812 156.059 67.791Z" fill="#04C5CF"/>
<path d="M144.878 36.1013C144.546 36.8146 144.494 37.6269 144.735 38.3762C145.014 38.9799 145.521 39.4489 146.146 39.681L147.711 40.4559C148.232 40.7136 148.793 40.974 149.324 40.7619C149.964 40.5061 150.408 39.5037 150.293 38.5731C150.171 37.5828 149.546 36.9016 148.968 36.3215C148.159 35.5097 147.35 34.6979 146.541 33.8862L146.085 34.4438C145.592 34.9242 145.184 35.4846 144.878 36.1013Z" fill="#04C5CF"/>
<path d="M199.981 46.6879C200.685 46.8535 201.39 47.0191 202.094 47.1847C201.971 49.5598 200.792 51.758 199.211 52.5542C198.552 52.8854 197.818 53.0079 197.273 53.6272C196.78 54.1898 196.53 55.0654 196.301 55.9024C195.899 57.3634 195.497 58.8243 195.095 60.2851C194.663 61.8595 194.109 63.6085 192.987 64.1756C192.023 64.6633 190.922 64.0667 190.181 63.0663C189.44 62.0659 188.988 60.7207 188.55 59.4095C188.577 60.8387 187.912 62.2406 186.969 62.7374C186.024 63.2342 184.874 62.785 184.243 61.6758C183.789 60.8795 183.6 59.8292 183.155 59.0216C182.709 58.214 181.776 57.7513 181.29 58.5089C180.969 59.0126 181.01 59.7838 180.851 60.4235C180.771 60.8482 180.561 61.2375 180.249 61.5371C179.937 61.8368 179.539 62.0319 179.111 62.0954C178.717 62.0864 178.33 61.9975 177.972 61.8341C177.614 61.6707 177.292 61.4362 177.028 61.1449C175.637 59.7239 174.731 57.9001 174.441 55.9342C174.243 54.9916 174.268 54.0163 174.513 53.085C174.793 52.2026 175.467 51.522 176.137 51.6899C176.578 50.7597 175.708 49.5257 174.924 49.6346C174.138 49.7435 173.523 50.5851 172.878 51.2316C172.235 51.8781 171.335 52.3477 170.688 51.7057C170.702 51.9405 170.623 52.1715 170.467 52.3477C170.311 52.524 170.091 52.6312 169.856 52.6456C169.832 52.6471 169.809 52.6476 169.786 52.6472C169.355 52.5238 168.955 52.3121 168.611 52.0256C167.128 51.1023 165.245 51.7148 164.191 53.4615C164.849 50.6622 165.815 47.45 167.839 46.7922C168.666 46.5222 169.568 46.7445 170.349 46.2772C171.733 45.4492 172.012 42.321 170.817 41.0302C170.969 42.2507 170.94 43.6753 170.295 44.5101C169.65 45.3449 168.296 44.8005 168.377 43.5664C168.359 43.74 168.286 43.9033 168.169 44.033C168.052 44.1626 167.897 44.252 167.726 44.2882C167.555 44.3245 167.377 44.3058 167.217 44.2348C167.058 44.1638 166.925 44.0442 166.837 43.8931C166.408 43.2398 166.444 42.1713 166.749 41.3909C167.062 40.6842 167.512 40.0459 168.073 39.5127C169.152 38.358 170.247 37.1897 171.496 36.4638C172.748 35.7379 174.193 35.4929 175.447 36.2143C176.108 36.5954 176.69 37.2306 177.364 37.5663C177.523 37.6645 177.699 37.7306 177.883 37.7608C178.067 37.791 178.256 37.7846 178.437 37.7421C178.619 37.6997 178.791 37.6219 178.942 37.5132C179.094 37.4045 179.222 37.2671 179.321 37.1088C179.328 37.0965 179.336 37.0842 179.343 37.0717C179.845 36.1916 179.609 34.8849 179.795 33.7847C180.129 31.8406 182.076 30.931 183.155 32.2149C182.348 32.0085 181.515 32.9613 181.415 34.1159C181.312 35.2706 181.896 36.4366 182.678 36.7859C183.991 37.3667 185.277 35.9057 186.269 34.5537C187.305 33.1382 188.343 31.7234 189.381 30.3094C189.547 30.0687 189.734 29.8425 189.938 29.6334C190.263 29.3167 190.697 29.1353 191.151 29.1261C191.606 29.1168 192.047 29.2803 192.385 29.5835C193.434 30.4387 193.927 32.1923 194.788 33.3991C196.038 35.1526 197.907 35.5791 199.647 35.9194C200.944 36.1712 202.242 36.4245 203.541 36.6793C204.407 38.2875 205.162 39.9527 205.801 41.6632C203.42 42.7476 201.4 44.4915 199.981 46.6879Z" fill="#04C5CF"/>
<path d="M207.05 45.6126C206.784 46.396 206.638 47.2152 206.618 48.0422C205.506 46.6856 205.329 44.1427 206.06 42.3823C206.435 43.4394 206.765 44.5162 207.05 45.6126Z" fill="#04C5CF"/>
<path d="M204.175 73.9824C203.201 75.9558 202.069 77.8471 200.79 79.6377C199.972 79.2883 199.093 79.9121 198.327 80.4974C197.528 81.1099 196.567 81.7065 195.747 81.1485C194.908 80.5768 194.638 78.9775 194.904 77.7094C195.209 76.5396 195.744 75.4418 196.476 74.4791C197.157 73.4628 197.887 72.408 198.834 72.0133C199.783 71.6185 201.003 72.1766 201.281 73.5241L201.953 73.5014C201.576 72.9842 201.773 71.9134 202.28 71.7252C202.864 71.5051 203.37 72.3059 203.716 73.0137C203.87 73.3335 204.027 73.6557 204.175 73.9824Z" fill="#04C5CF"/>
<path d="M178.421 64.4004C176.976 64.4912 175.831 62.7144 175.071 60.9665C174.31 59.2186 173.616 57.2197 172.311 56.33C171.566 55.8216 170.717 55.7518 169.909 55.5055C169.45 55.3899 169.026 55.1668 168.671 54.8548C168.316 54.5428 168.041 54.1508 167.868 53.7114L166.951 53.3415C165.669 53.9817 164.494 54.8179 163.47 55.82C162.3 57.0613 161.571 58.6525 161.396 60.3482C161.221 62.1808 161.868 64.2242 163.076 64.9126C164.031 65.4566 165.142 65.1137 166.11 65.6117C167.318 66.2338 168.035 68.0412 168.307 69.8257C168.579 71.6102 168.51 73.4647 168.704 75.2694C168.898 77.0742 169.434 78.9521 170.542 79.8769C171.929 81.0343 173.964 80.0726 174.586 77.9658C174.891 76.9324 174.881 75.7663 175.109 74.6935C175.511 72.8044 176.596 71.4028 177.456 69.8532C178.316 68.3035 178.994 66.1988 178.421 64.4004Z" fill="#04C5CF"/>
<path d="M164.14 45.837C164.274 45.9609 164.4 46.0943 164.516 46.236C164.636 46.4424 164.697 46.6775 164.693 46.9161C164.689 47.1546 164.62 47.3875 164.493 47.5897C164.667 47.5798 164.837 47.5339 164.993 47.455C165.148 47.3761 165.285 47.2659 165.396 47.1313C165.66 46.8313 165.892 46.5049 166.088 46.1572C166.181 46.0382 166.247 45.9009 166.282 45.7544C166.317 45.6079 166.321 45.4556 166.293 45.3076C166.224 45.113 166.063 45.03 165.95 44.8836C165.793 44.5975 165.686 44.2869 165.633 43.9649C165.57 43.6632 165.424 43.3849 165.212 43.1614C165 42.9378 164.729 42.7778 164.43 42.6994L164.503 42.7133C164.38 42.7863 164.282 42.8961 164.225 43.0271C164.167 43.1582 164.152 43.304 164.181 43.4441C164.225 43.7272 164.407 43.9622 164.389 44.2509C164.363 44.6661 163.947 44.8609 163.922 45.2761C163.918 45.4844 163.996 45.6859 164.14 45.837Z" fill="#04C5CF"/>
<path d="M161.663 38.782L161.67 38.7807C161.714 38.7403 161.755 38.6964 161.793 38.6496L161.663 38.782Z" fill="#04C5CF"/>
<path d="M162.097 40.7307C162.27 40.5786 162.399 40.3818 162.468 40.1617C162.537 39.9417 162.544 39.7069 162.489 39.483C162.384 39.011 162.012 38.6936 161.67 38.7807C161.57 38.8814 161.447 38.9552 161.311 38.9951C161.175 39.0351 161.031 39.0398 160.893 39.009C160.681 38.9546 160.449 38.8143 160.265 38.9737C160.16 39.0928 160.086 39.2363 160.051 39.391C159.983 39.5996 159.915 39.8081 159.847 40.0166C159.814 40.0913 159.806 40.1741 159.823 40.2537C159.836 40.2856 159.857 40.3136 159.884 40.335C159.911 40.3565 159.943 40.3706 159.977 40.3761C160.385 40.4963 160.793 40.6164 161.201 40.7366C161.342 40.8012 161.495 40.8342 161.65 40.8332C161.804 40.8322 161.957 40.7972 162.097 40.7307Z" fill="#04C5CF"/>
<path d="M192.91 67.6347C192.722 67.3263 192.533 67.0178 192.344 66.7093C192.159 66.3521 191.906 66.0344 191.598 65.7741C191.532 65.7185 191.455 65.6764 191.372 65.6504C191.289 65.6244 191.202 65.615 191.116 65.6226C191.029 65.6302 190.945 65.6548 190.868 65.6949C190.791 65.735 190.723 65.7898 190.667 65.8562L190.657 65.8682L190.68 66.0444C191.186 66.5853 191.53 67.256 191.675 67.9814C191.718 68.2967 191.703 68.6229 191.74 68.9396C191.744 69.0864 191.777 69.2309 191.837 69.365C191.897 69.4991 191.983 69.6201 192.09 69.721C192.387 69.9192 192.736 69.627 192.947 69.2704C193.136 68.9775 193.221 68.6296 193.188 68.2828C193.141 68.05 193.046 67.8295 192.91 67.6347Z" fill="#04C5CF"/>
<path d="M195.87 68.0362C195.906 67.7474 195.883 67.4543 195.801 67.1749C195.787 66.7969 195.888 66.4236 196.089 66.1031C196.289 65.8008 196.44 65.4693 196.538 65.1203C196.579 64.9614 196.572 64.7937 196.516 64.6391C196.454 64.499 196.303 64.4351 196.216 64.546L196.402 64.6654C196.151 64.6208 195.893 64.6332 195.648 64.7019C195.508 64.7553 195.383 64.8417 195.284 64.9536C195.184 65.0655 195.113 65.1997 195.077 65.3448C195.046 65.571 194.996 65.7941 194.927 66.0118C194.816 66.2391 194.602 66.3148 194.467 66.5143C194.375 66.6912 194.329 66.8882 194.332 67.0874C194.336 67.2867 194.389 67.482 194.486 67.6557C194.655 67.9399 194.924 68.1512 195.241 68.2484C195.468 68.3296 195.766 68.3339 195.87 68.0362Z" fill="#04C5CF"/>
<path d="M201.141 69.6242C201.223 69.8373 201.333 70.0385 201.467 70.2228C201.72 70.4766 202.063 70.3206 202.369 70.259C202.647 70.2152 202.931 70.2472 203.192 70.3518C203.453 70.4563 203.681 70.6295 203.851 70.8528C203.733 70.2616 203.474 69.7074 203.096 69.2369C202.718 68.7664 202.233 68.3932 201.681 68.1488C200.964 67.9008 200.208 67.7828 199.449 67.8002L199.319 67.8334C199.65 68.7935 200.687 68.7721 201.141 69.6242Z" fill="#04C5CF"/>
<path d="M178.817 71.587L178.819 71.5911L178.856 71.5198L178.817 71.587Z" fill="#04C5CF"/>
<path d="M178.017 73.1337C177.843 73.4498 177.693 73.7788 177.568 74.1177C177.404 74.6667 177.295 75.2308 177.244 75.8015C177.203 76.126 177.19 76.5405 177.394 76.6986C177.452 76.7373 177.523 76.7535 177.592 76.7441C177.662 76.7347 177.726 76.7003 177.771 76.6474C177.885 76.5278 177.977 76.3905 178.045 76.2409C178.445 75.5526 178.756 74.8163 178.969 74.0497C179.192 73.2364 179.139 72.3722 178.818 71.5923C178.551 72.1061 178.284 72.6199 178.017 73.1337Z" fill="#04C5CF"/>
<path d="M170.303 31.957C170.43 32.081 170.591 32.1652 170.765 32.1992C170.94 32.2331 171.12 32.2154 171.284 32.1483C171.625 31.9996 171.937 31.7937 172.208 31.5394C172.432 31.3739 172.622 31.1669 172.767 30.9298C172.847 30.788 172.899 30.6319 172.919 30.4703C172.938 30.3086 172.926 30.1447 172.882 29.988C172.819 29.8377 172.719 29.706 172.591 29.605C172.464 29.5041 172.312 29.4374 172.152 29.4112C171.698 29.277 171.245 29.1428 170.792 29.0087L171.12 28.7137C170.783 28.533 170.41 28.8684 170.199 29.2836C170.064 29.5547 169.97 29.8443 169.92 30.143C169.848 30.4551 169.845 30.779 169.911 31.0923C169.978 31.4055 170.111 31.7006 170.303 31.957Z" fill="#04C5CF"/>
<path d="M178.302 29.2756C178.429 29.4162 178.606 29.503 178.795 29.5184C178.984 29.5338 179.173 29.4766 179.321 29.3585C179.449 29.2625 179.556 29.1406 179.633 29.0008C179.711 28.8609 179.758 28.7063 179.772 28.547C179.804 28.1912 179.628 27.7957 179.377 27.7649L179.434 27.4317C178.95 27.3443 178.353 27.3268 178.094 27.9147C178.006 28.1399 177.979 28.3841 178.016 28.6229C178.052 28.8617 178.151 29.0868 178.302 29.2756Z" fill="#04C5CF"/>
<g opacity="0.35">
<path d="M254.998 57.9573C257.674 56.7924 252.248 56.1144 246.092 55.8914C239.937 55.6684 232.49 55.6808 228.556 55.0466C224.752 54.4333 225.032 53.3428 224.712 52.3547C224.392 51.3667 222.929 50.3536 216.993 50.134C209.595 49.8603 197.395 50.9138 191.811 50.2813C186.6 49.6911 189.697 47.8396 182.098 47.7688C177.759 47.7283 172.169 48.3387 167.34 48.486C163.918 48.6343 160.489 48.4557 157.1 47.9529C154.747 47.5678 153.108 47.0797 150.459 46.7396C143.505 45.8467 129.9 46.1468 117.757 47.2912C105.614 48.4356 95.2055 50.311 89.3353 52.1685C83.4651 54.0259 81.8433 55.8548 83.2107 57.4056C84.0839 58.3959 86.3183 59.3219 91.7383 59.7199C101.876 60.4642 119.926 59.183 130.401 59.8602C136.24 60.2376 138.83 61.1734 143.953 61.6854C149.457 62.2355 157.513 62.2647 165.429 62.2516C181.911 62.2245 198.814 62.0553 216.05 61.7453C223.249 61.6157 230.792 61.4473 238.453 60.8301C246.113 60.2128 253.927 59.0218 255.543 57.9053" fill="white"/>
</g>
<path d="M208.485 109.407C204.744 109.407 200.645 109.266 196.186 108.983C173.123 107.521 143.249 102.436 112.067 94.6663C80.8858 86.8964 52.1219 77.3691 31.0745 67.84C20.8216 63.198 12.9527 58.804 7.68637 54.7798C2.11071 50.5195 -0.328159 46.806 0.437218 43.7429C1.92852 37.7753 15.1334 36.4698 25.9484 36.4254L25.952 37.2933C11.1003 37.3541 2.33845 39.7194 1.28055 43.9531C-0.0670387 49.3453 10.9233 57.7635 31.4333 67.0496C52.4345 76.5577 81.1455 86.0667 112.278 93.8244C143.41 101.582 173.229 106.658 196.241 108.117C218.715 109.543 232.378 107.268 233.725 101.875C234.844 97.3981 227.468 90.8028 212.957 83.3038L213.357 82.5332C223.901 87.982 236.14 95.7971 234.568 102.085C233.803 105.148 229.903 107.282 222.976 108.427C219.028 109.08 214.179 109.407 208.485 109.407Z" fill="#04C5CF"/>
<path d="M65.7686 110.537C55.4559 110.537 45.8686 110.184 37.2857 109.471C26.0671 108.538 17.1771 107.04 10.8631 105.017C4.17806 102.875 0.631495 100.195 0.321861 97.0534C-0.28156 90.9327 11.7165 85.2726 21.8878 81.602L22.1832 82.4185C8.21531 87.4588 0.75867 92.626 1.18669 96.9686C1.73183 102.499 14.9156 106.741 37.3577 108.606C60.3373 110.515 90.5785 109.839 122.511 106.699C154.443 103.561 184.236 98.3374 206.402 91.9907C228.049 85.7926 240.152 79.0657 239.607 73.5349C239.154 68.9429 229.989 65.2057 213.798 63.0112L213.915 62.1513C225.679 63.7457 239.836 67.0001 240.472 73.4499C240.782 76.5919 237.826 79.9101 231.688 83.3126C225.89 86.5263 217.463 89.7267 206.642 92.8249C184.427 99.1857 154.579 104.42 122.596 107.563C102.532 109.535 83.1274 110.537 65.7686 110.537Z" fill="#04C5CF"/>
<path d="M127.139 128.867C129.937 128.867 132.204 126.603 132.204 123.81C132.204 121.017 129.937 118.752 127.139 118.752C124.342 118.752 122.075 121.017 122.075 123.81C122.075 126.603 124.342 128.867 127.139 128.867Z" fill="#04C5CF"/>
<path d="M27.4074 99.0079C30.2045 99.0079 32.472 96.7436 32.472 93.9504C32.472 91.1572 30.2045 88.8929 27.4074 88.8929C24.6102 88.8929 22.3427 91.1572 22.3427 93.9504C22.3427 96.7436 24.6102 99.0079 27.4074 99.0079Z" fill="#E6E6E6"/>
<path d="M120.397 21.4862C122.109 21.4862 123.497 20.1001 123.497 18.3902C123.497 16.6804 122.109 15.2943 120.397 15.2943C118.685 15.2943 117.297 16.6804 117.297 18.3902C117.297 20.1001 118.685 21.4862 120.397 21.4862Z" fill="#FF6584"/>
<path d="M101.639 44.8573C104.436 44.8573 106.703 42.593 106.703 39.7998C106.703 37.0066 104.436 34.7423 101.639 34.7423C98.8416 34.7423 96.5741 37.0066 96.5741 39.7998C96.5741 42.593 98.8416 44.8573 101.639 44.8573Z" fill="#E6E6E6"/>
<path d="M153.2 121.493C153.147 121.022 152.928 120.658 152.544 120.399C152.159 120.137 151.675 120.006 151.092 120.006C150.674 120.006 150.313 120.073 150.008 120.205C149.703 120.335 149.466 120.513 149.297 120.742C149.132 120.968 149.049 121.224 149.049 121.513C149.049 121.755 149.105 121.964 149.218 122.139C149.334 122.315 149.485 122.462 149.67 122.582C149.859 122.698 150.061 122.795 150.277 122.875C150.492 122.951 150.699 123.014 150.898 123.064L151.892 123.322C152.217 123.402 152.55 123.51 152.892 123.646C153.233 123.781 153.55 123.96 153.841 124.183C154.133 124.405 154.368 124.68 154.547 125.008C154.73 125.336 154.821 125.729 154.821 126.186C154.821 126.763 154.672 127.275 154.373 127.722C154.078 128.17 153.649 128.523 153.086 128.781C152.525 129.04 151.848 129.169 151.052 129.169C150.29 129.169 149.63 129.048 149.074 128.806C148.517 128.564 148.081 128.221 147.766 127.777C147.451 127.33 147.277 126.799 147.244 126.186H148.785C148.815 126.554 148.934 126.861 149.143 127.106C149.355 127.348 149.625 127.528 149.954 127.648C150.285 127.764 150.648 127.822 151.042 127.822C151.476 127.822 151.863 127.754 152.201 127.618C152.542 127.479 152.811 127.286 153.006 127.041C153.202 126.793 153.299 126.503 153.299 126.171C153.299 125.87 153.213 125.623 153.041 125.43C152.872 125.238 152.641 125.079 152.35 124.953C152.061 124.827 151.735 124.716 151.37 124.62L150.167 124.292C149.352 124.07 148.706 123.743 148.228 123.312C147.754 122.882 147.517 122.312 147.517 121.602C147.517 121.016 147.677 120.504 147.995 120.066C148.313 119.629 148.744 119.289 149.287 119.047C149.831 118.802 150.444 118.679 151.127 118.679C151.816 118.679 152.424 118.8 152.951 119.042C153.482 119.284 153.899 119.617 154.204 120.041C154.509 120.462 154.668 120.946 154.681 121.493H153.2ZM158.759 129.169C158.276 129.169 157.838 129.08 157.447 128.901C157.056 128.718 156.746 128.455 156.517 128.11C156.292 127.765 156.179 127.343 156.179 126.842C156.179 126.411 156.262 126.057 156.428 125.778C156.593 125.5 156.817 125.28 157.099 125.117C157.381 124.955 157.696 124.832 158.044 124.749C158.392 124.666 158.746 124.603 159.107 124.56C159.565 124.507 159.936 124.464 160.221 124.431C160.506 124.395 160.713 124.337 160.843 124.257C160.972 124.178 161.036 124.048 161.036 123.869V123.835C161.036 123.4 160.914 123.064 160.669 122.825C160.427 122.587 160.065 122.467 159.585 122.467C159.084 122.467 158.69 122.578 158.401 122.8C158.116 123.019 157.919 123.263 157.81 123.531L156.413 123.213C156.579 122.749 156.821 122.375 157.139 122.089C157.46 121.801 157.83 121.592 158.247 121.463C158.665 121.33 159.104 121.264 159.565 121.264C159.87 121.264 160.193 121.301 160.534 121.374C160.879 121.443 161.2 121.572 161.499 121.761C161.8 121.95 162.047 122.22 162.24 122.572C162.432 122.92 162.528 123.372 162.528 123.929V129H161.076V127.956H161.017C160.92 128.148 160.776 128.337 160.584 128.523C160.392 128.708 160.145 128.862 159.843 128.985C159.542 129.108 159.18 129.169 158.759 129.169ZM159.083 127.976C159.494 127.976 159.845 127.895 160.137 127.732C160.432 127.57 160.655 127.358 160.808 127.096C160.964 126.831 161.041 126.547 161.041 126.246V125.261C160.988 125.314 160.886 125.364 160.733 125.411C160.584 125.454 160.413 125.492 160.221 125.525C160.029 125.555 159.842 125.583 159.659 125.609C159.477 125.633 159.325 125.652 159.202 125.669C158.914 125.705 158.65 125.767 158.411 125.853C158.176 125.939 157.987 126.063 157.845 126.226C157.705 126.385 157.636 126.597 157.636 126.862C157.636 127.23 157.772 127.509 158.044 127.697C158.315 127.883 158.662 127.976 159.083 127.976ZM170.767 121.364L167.998 129H166.407L163.633 121.364H165.229L167.163 127.24H167.242L169.171 121.364H170.767ZM175.196 129.154C174.443 129.154 173.795 128.993 173.252 128.672C172.711 128.347 172.294 127.891 171.999 127.305C171.707 126.715 171.561 126.024 171.561 125.232C171.561 124.449 171.707 123.76 171.999 123.163C172.294 122.567 172.705 122.101 173.232 121.766C173.762 121.432 174.382 121.264 175.091 121.264C175.522 121.264 175.94 121.335 176.344 121.478C176.748 121.621 177.111 121.844 177.433 122.149C177.754 122.454 178.008 122.85 178.193 123.337C178.379 123.821 178.472 124.41 178.472 125.102V125.629H172.401V124.516H177.015C177.015 124.125 176.936 123.778 176.776 123.477C176.617 123.172 176.394 122.931 176.105 122.756C175.82 122.58 175.486 122.492 175.101 122.492C174.683 122.492 174.319 122.595 174.007 122.8C173.699 123.003 173.46 123.268 173.291 123.596C173.126 123.921 173.043 124.274 173.043 124.655V125.525C173.043 126.035 173.132 126.469 173.311 126.827C173.494 127.185 173.747 127.459 174.072 127.648C174.397 127.833 174.776 127.926 175.21 127.926C175.492 127.926 175.749 127.886 175.981 127.807C176.213 127.724 176.414 127.601 176.583 127.439C176.752 127.277 176.881 127.076 176.97 126.837L178.377 127.091C178.265 127.505 178.062 127.868 177.771 128.18C177.482 128.488 177.12 128.728 176.682 128.901C176.248 129.07 175.752 129.154 175.196 129.154ZM166.992 148.864C166.77 148.864 166.568 148.845 166.386 148.809C166.204 148.776 166.068 148.739 165.978 148.7L166.336 147.482C166.608 147.554 166.85 147.586 167.062 147.576C167.274 147.566 167.461 147.487 167.624 147.337C167.789 147.188 167.935 146.945 168.061 146.607L168.245 146.099L165.451 138.364H167.042L168.976 144.29H169.056L170.99 138.364H172.585L169.438 147.019C169.293 147.417 169.107 147.753 168.882 148.028C168.656 148.307 168.388 148.516 168.076 148.655C167.765 148.794 167.403 148.864 166.992 148.864ZM176.939 146.154C176.223 146.154 175.599 145.99 175.065 145.662C174.531 145.334 174.117 144.875 173.822 144.285C173.527 143.695 173.38 143.005 173.38 142.217C173.38 141.424 173.527 140.732 173.822 140.138C174.117 139.545 174.531 139.085 175.065 138.756C175.599 138.428 176.223 138.264 176.939 138.264C177.655 138.264 178.28 138.428 178.814 138.756C179.347 139.085 179.762 139.545 180.056 140.138C180.351 140.732 180.499 141.424 180.499 142.217C180.499 143.005 180.351 143.695 180.056 144.285C179.762 144.875 179.347 145.334 178.814 145.662C178.28 145.99 177.655 146.154 176.939 146.154ZM176.944 144.906C177.408 144.906 177.793 144.784 178.098 144.538C178.403 144.293 178.628 143.967 178.774 143.559C178.923 143.151 178.998 142.702 178.998 142.212C178.998 141.724 178.923 141.277 178.774 140.869C178.628 140.458 178.403 140.129 178.098 139.88C177.793 139.631 177.408 139.507 176.944 139.507C176.477 139.507 176.089 139.631 175.781 139.88C175.476 140.129 175.249 140.458 175.1 140.869C174.954 141.277 174.881 141.724 174.881 142.212C174.881 142.702 174.954 143.151 175.1 143.559C175.249 143.967 175.476 144.293 175.781 144.538C176.089 144.784 176.477 144.906 176.944 144.906ZM186.996 142.833V138.364H188.487V146H187.025V144.678H186.946C186.77 145.085 186.488 145.425 186.101 145.697C185.716 145.965 185.237 146.099 184.664 146.099C184.173 146.099 183.739 145.992 183.361 145.776C182.987 145.558 182.692 145.234 182.476 144.807C182.264 144.379 182.158 143.851 182.158 143.221V138.364H183.645V143.042C183.645 143.562 183.789 143.977 184.077 144.285C184.366 144.593 184.74 144.747 185.201 144.747C185.479 144.747 185.756 144.678 186.031 144.538C186.31 144.399 186.54 144.189 186.722 143.907C186.908 143.625 186.999 143.267 186.996 142.833ZM190.484 146V138.364H191.921V139.577H192.001C192.14 139.166 192.385 138.843 192.737 138.607C193.091 138.369 193.492 138.249 193.94 138.249C194.032 138.249 194.142 138.253 194.268 138.259C194.397 138.266 194.498 138.274 194.571 138.284V139.706C194.511 139.689 194.405 139.671 194.253 139.651C194.1 139.628 193.948 139.616 193.795 139.616C193.444 139.616 193.131 139.691 192.856 139.84C192.584 139.986 192.369 140.19 192.21 140.452C192.05 140.71 191.971 141.005 191.971 141.337V146H190.484ZM177.168 163V155.364H178.595V156.607H178.689C178.848 156.186 179.109 155.857 179.47 155.622C179.831 155.384 180.264 155.264 180.767 155.264C181.278 155.264 181.705 155.384 182.05 155.622C182.398 155.861 182.655 156.189 182.821 156.607H182.9C183.083 156.199 183.373 155.874 183.77 155.632C184.168 155.387 184.642 155.264 185.192 155.264C185.885 155.264 186.45 155.481 186.887 155.915C187.328 156.35 187.549 157.004 187.549 157.879V163H186.062V158.018C186.062 157.501 185.921 157.127 185.64 156.895C185.358 156.663 185.021 156.547 184.63 156.547C184.146 156.547 183.77 156.696 183.502 156.994C183.233 157.289 183.099 157.669 183.099 158.133V163H181.618V157.924C181.618 157.51 181.488 157.177 181.23 156.925C180.971 156.673 180.635 156.547 180.221 156.547C179.939 156.547 179.679 156.621 179.44 156.771C179.205 156.916 179.014 157.12 178.868 157.382C178.726 157.644 178.654 157.947 178.654 158.292V163H177.168ZM192.758 163.154C192.042 163.154 191.417 162.99 190.883 162.662C190.35 162.334 189.935 161.875 189.64 161.285C189.345 160.695 189.198 160.005 189.198 159.217C189.198 158.424 189.345 157.732 189.64 157.138C189.935 156.545 190.35 156.085 190.883 155.756C191.417 155.428 192.042 155.264 192.758 155.264C193.474 155.264 194.098 155.428 194.632 155.756C195.166 156.085 195.58 156.545 195.875 157.138C196.17 157.732 196.317 158.424 196.317 159.217C196.317 160.005 196.17 160.695 195.875 161.285C195.58 161.875 195.166 162.334 194.632 162.662C194.098 162.99 193.474 163.154 192.758 163.154ZM192.763 161.906C193.227 161.906 193.611 161.784 193.916 161.538C194.221 161.293 194.446 160.967 194.592 160.559C194.741 160.151 194.816 159.702 194.816 159.212C194.816 158.724 194.741 158.277 194.592 157.869C194.446 157.458 194.221 157.129 193.916 156.88C193.611 156.631 193.227 156.507 192.763 156.507C192.295 156.507 191.908 156.631 191.599 156.88C191.294 157.129 191.067 157.458 190.918 157.869C190.772 158.277 190.699 158.724 190.699 159.212C190.699 159.702 190.772 160.151 190.918 160.559C191.067 160.967 191.294 161.293 191.599 161.538C191.908 161.784 192.295 161.906 192.763 161.906ZM199.463 158.466V163H197.977V155.364H199.403V156.607H199.498C199.674 156.202 199.949 155.877 200.323 155.632C200.701 155.387 201.177 155.264 201.75 155.264C202.27 155.264 202.726 155.374 203.117 155.592C203.508 155.808 203.812 156.129 204.027 156.557C204.242 156.984 204.35 157.513 204.35 158.143V163H202.864V158.322C202.864 157.768 202.719 157.336 202.431 157.024C202.143 156.709 201.747 156.552 201.243 156.552C200.898 156.552 200.592 156.626 200.323 156.776C200.058 156.925 199.848 157.143 199.692 157.432C199.539 157.717 199.463 158.062 199.463 158.466ZM209.635 163.154C208.883 163.154 208.235 162.993 207.691 162.672C207.151 162.347 206.733 161.891 206.438 161.305C206.147 160.715 206.001 160.024 206.001 159.232C206.001 158.449 206.147 157.76 206.438 157.163C206.733 156.567 207.144 156.101 207.671 155.766C208.201 155.432 208.821 155.264 209.531 155.264C209.961 155.264 210.379 155.335 210.783 155.478C211.188 155.621 211.551 155.844 211.872 156.149C212.194 156.454 212.447 156.85 212.633 157.337C212.818 157.821 212.911 158.41 212.911 159.102V159.629H206.841V158.516H211.455C211.455 158.125 211.375 157.778 211.216 157.477C211.057 157.172 210.833 156.931 210.545 156.756C210.26 156.58 209.925 156.492 209.541 156.492C209.123 156.492 208.758 156.595 208.447 156.8C208.139 157.003 207.9 157.268 207.731 157.596C207.565 157.921 207.482 158.274 207.482 158.655V159.525C207.482 160.035 207.572 160.469 207.751 160.827C207.933 161.185 208.187 161.459 208.511 161.648C208.836 161.833 209.216 161.926 209.65 161.926C209.932 161.926 210.188 161.886 210.42 161.807C210.652 161.724 210.853 161.601 211.022 161.439C211.191 161.277 211.32 161.076 211.41 160.837L212.817 161.091C212.704 161.505 212.502 161.868 212.21 162.18C211.922 162.488 211.559 162.728 211.121 162.901C210.687 163.07 210.192 163.154 209.635 163.154ZM215.281 165.864C215.059 165.864 214.857 165.845 214.675 165.809C214.493 165.776 214.357 165.739 214.267 165.7L214.625 164.482C214.897 164.554 215.139 164.586 215.351 164.576C215.563 164.566 215.75 164.487 215.913 164.337C216.079 164.188 216.224 163.945 216.35 163.607L216.534 163.099L213.74 155.364H215.331L217.265 161.29H217.345L219.279 155.364H220.874L217.727 164.019C217.582 164.417 217.396 164.753 217.171 165.028C216.945 165.307 216.677 165.516 216.365 165.655C216.054 165.794 215.692 165.864 215.281 165.864ZM224.146 152.818L224.017 160.072H222.639L222.51 152.818H224.146ZM223.33 163.094C223.055 163.094 222.82 162.998 222.624 162.806C222.429 162.611 222.333 162.375 222.336 162.1C222.333 161.828 222.429 161.596 222.624 161.404C222.82 161.209 223.055 161.111 223.33 161.111C223.599 161.111 223.831 161.209 224.026 161.404C224.222 161.596 224.321 161.828 224.325 162.1C224.321 162.282 224.273 162.45 224.181 162.602C224.091 162.751 223.972 162.871 223.823 162.96C223.673 163.05 223.509 163.094 223.33 163.094Z" fill="#3F3D56"/>
</g>
<defs>
<clipPath id="clip0_2_303">
<rect width="255.398" height="170" fill="white" transform="translate(0.299988)"/>
</clipPath>
</defs>
</svg>
