<svg width="260" height="245" viewBox="0 0 260 245" fill="none" xmlns="http://www.w3.org/2000/svg">
<g clip-path="url(#clip0_17_86)">
<path d="M28.5923 230.668C28.4989 235.216 29.1103 239.749 30.4036 244.099C30.449 244.257 30.5033 244.415 30.5576 244.573H57.2207C56.8395 242.647 56.2344 240.775 55.4183 238.997C53.1995 234.163 49.5768 230.027 45.9994 225.919C41.0725 220.258 36.2634 214.644 35.5026 207.283C33.5497 210.338 31.991 213.641 30.8655 217.107C32.2434 217.631 33.508 218.427 34.5879 219.45C34.8867 219.738 35.2037 220.156 35.0497 220.556C34.9049 220.89 34.5064 221.002 34.1531 221.076C33.3018 221.244 32.4505 221.411 31.5991 221.569C30.929 221.708 30.2497 221.838 29.5705 221.969C28.9734 224.83 28.6459 227.743 28.5923 230.668Z" fill="#F2F2F2"/>
<path d="M6.195 227.657C10.4698 230.324 13.1868 234.451 15.4057 239.071C17.3366 239.522 19.1192 240.484 20.5771 241.859C20.885 242.147 21.202 242.566 21.039 242.965C20.9031 243.3 20.4956 243.411 20.1424 243.486C19.3001 243.653 18.4397 243.82 17.5974 243.978C17.6789 244.174 17.7605 244.378 17.8419 244.573H46.099C44.8162 242.798 43.3957 241.132 41.8514 239.591C41.5162 239.247 41.1721 238.922 40.8189 238.587C37.2168 235.247 33.0808 232.568 28.5923 230.668C21.5213 227.635 13.7889 226.595 6.195 227.657Z" fill="#F2F2F2"/>
<path d="M41.3895 244.573H66.5491C66.6865 242.506 66.6744 240.43 66.5129 238.364C65.9681 231.97 64.0788 225.773 60.9751 220.2C57.8715 214.627 53.6274 209.811 48.5353 206.084C49.8394 210.852 49.1693 215.592 47.8107 220.351C48.0009 220.416 48.1911 220.472 48.3632 220.546C49.7411 221.07 51.0056 221.866 52.0855 222.889C52.3844 223.177 52.7013 223.595 52.5474 223.995C52.4116 224.329 52.004 224.441 51.6508 224.515C50.7995 224.683 49.9481 224.85 49.1058 225.008C48.4266 225.147 47.7473 225.277 47.0681 225.417C46.7511 225.473 46.4341 225.538 46.1171 225.603C46.0719 225.714 46.0447 225.817 45.9994 225.919C44.4054 230.427 42.6665 234.972 41.8514 239.591C41.6496 240.751 41.5105 241.92 41.4348 243.095C41.4076 243.588 41.3895 244.081 41.3895 244.573Z" fill="#F2F2F2"/>
<path d="M233.914 17.4779C229.211 17.4779 225.399 13.5654 225.399 8.73896C225.399 3.91257 229.211 0 233.914 0C238.617 0 242.429 3.91257 242.429 8.73896C242.429 13.5654 238.617 17.4779 233.914 17.4779Z" fill="#FD6584"/>
<path d="M214.855 4.60138C215.096 3.79306 215.562 3.07459 216.195 2.53434C216.828 1.99409 217.602 1.65563 218.42 1.56059C218.439 1.55791 218.456 1.56144 218.475 1.56022C218.499 1.55276 218.523 1.54702 218.547 1.54305C222.442 1.02654 226.937 2.93793 228.56 6.72675C228.956 6.17261 229.477 5.72573 230.079 5.4247C230.681 5.12368 231.345 4.97755 232.014 4.99895C232.877 5.05797 233.702 5.38849 234.375 5.94552C235.049 6.50255 235.538 7.25902 235.778 8.11195C235.803 8.21635 235.796 8.32636 235.756 8.42605C235.717 8.52573 235.647 8.60991 235.558 8.66638C235.301 8.89008 234.996 9.04881 234.668 9.12985C233.961 9.2836 233.251 9.42446 232.539 9.5524C231.149 9.80201 229.752 10.0038 228.348 10.1578C225.497 10.4713 222.629 10.5826 219.763 10.4908C218.809 10.4603 217.889 10.4278 217.014 9.99551C216.378 9.67304 215.835 9.18629 215.437 8.58307C215.063 8.00327 214.816 7.34635 214.716 6.65846C214.615 5.97057 214.663 5.26842 214.855 4.60138Z" fill="#F0F0F0"/>
<path d="M232.553 16.2533C232.794 15.445 233.26 14.7266 233.893 14.1863C234.527 13.6461 235.3 13.3076 236.118 13.2126C236.137 13.2099 236.155 13.2134 236.173 13.2122C236.197 13.2047 236.221 13.199 236.246 13.195C240.14 12.6785 244.635 14.5899 246.258 18.3787C246.654 17.8246 247.175 17.3777 247.777 17.0767C248.379 16.7756 249.044 16.6295 249.713 16.6509C250.576 16.71 251.4 17.0405 252.073 17.5975C252.747 18.1545 253.237 18.911 253.476 19.7639C253.502 19.8683 253.494 19.9783 253.454 20.078C253.415 20.1777 253.345 20.2619 253.256 20.3184C252.999 20.542 252.694 20.7008 252.367 20.7818C251.659 20.9356 250.95 21.0764 250.237 21.2044C248.848 21.454 247.451 21.6558 246.046 21.8098C243.196 22.1233 240.327 22.2346 237.462 22.1428C236.507 22.1123 235.587 22.0798 234.712 21.6475C234.076 21.325 233.533 20.8382 233.135 20.235C232.761 19.6552 232.515 18.9983 232.414 18.3104C232.314 17.6225 232.361 16.9204 232.553 16.2533Z" fill="#F0F0F0"/>
<path d="M150.636 151.892C150.852 152.216 151.419 152.602 151.64 152.922L151.404 152.188L151.484 152.018L151.986 150.989L164.756 124.577L164.761 124.572L186.409 79.8188V79.8137L186.906 78.7893V78.7841L197.619 56.6343L198.126 55.5842C197.745 55.5945 197.363 55.6099 196.982 55.6305L196.471 56.6857L185.787 78.7841L185.782 78.7893L185.285 79.8137V79.8188L164.189 123.434V123.439L163.693 124.463V124.469L150.922 150.86L150.752 151.215L150.636 151.892Z" fill="#3F3D56"/>
<path d="M152.061 79.8187H247.631C247.375 79.4739 247.115 79.129 246.844 78.7892H152.848C152.578 79.129 152.317 79.4739 152.061 79.8187Z" fill="#3F3D56"/>
<path d="M139.953 123.439C139.983 123.784 140.018 124.129 140.063 124.469H164.545V123.439H139.953Z" fill="#3F3D56"/>
<path d="M243.995 75.397V158.231C244.341 157.856 244.672 157.475 244.998 157.094V76.5346C244.672 76.1537 244.341 75.7728 243.995 75.397Z" fill="#3F3D56"/>
<path d="M151.172 150.988H244.496V152.018H151.172V150.988Z" fill="#3F3D56"/>
<path d="M151.253 151.892H151.138V151.722C151.173 151.781 151.212 151.838 151.253 151.892ZM152.026 79.6925C152.282 79.3476 152.542 79.0028 152.813 78.663C158.141 71.8029 164.834 66.1885 172.444 62.1948C180.055 58.2012 188.409 55.9202 196.947 55.5042C197.328 55.4836 197.709 55.4682 198.09 55.4579C198.662 55.4424 199.234 55.4321 199.811 55.4321C208.106 55.4276 216.312 57.1882 223.911 60.6028C231.51 64.0174 238.337 69.0119 243.96 75.2708C244.306 75.6465 244.637 76.0275 244.963 76.4084C245.6 77.1445 246.215 77.896 246.809 78.663C247.079 79.0028 247.34 79.3476 247.596 79.6925C256.072 91.0333 260.445 105.045 259.964 119.329C259.484 133.614 254.181 147.283 244.963 157.997C244.637 158.378 244.306 158.759 243.96 159.135C237.898 165.871 230.449 171.137 222.155 174.547C213.861 177.958 204.931 179.428 196.014 178.851C187.096 178.273 178.417 175.663 170.606 171.21C162.796 166.756 156.051 160.572 150.862 153.107C150.641 152.788 150.421 152.468 150.205 152.144C144.643 143.874 141.148 134.326 140.028 124.342C139.983 124.003 139.948 123.658 139.918 123.313C139.722 121.305 139.624 119.269 139.622 117.203C139.607 103.637 143.968 90.4469 152.026 79.6925ZM141.036 124.342C142.128 133.925 145.448 143.098 150.717 151.089C150.852 151.3 150.993 151.511 151.138 151.722C151.173 151.781 151.212 151.838 151.253 151.892C151.288 151.949 151.329 152.005 151.369 152.062C156.485 159.565 163.191 165.781 170.982 170.246C178.773 174.71 187.447 177.307 196.355 177.841C205.263 178.374 214.174 176.832 222.418 173.328C230.662 169.825 238.027 164.451 243.96 157.611C244.306 157.22 244.642 156.828 244.963 156.427C253.783 145.763 258.737 132.296 258.987 118.31C259.237 104.325 254.766 90.6812 246.332 79.6925C246.066 79.3476 245.8 79.0027 245.525 78.663C245.344 78.4314 245.158 78.2049 244.963 77.9784C244.642 77.5769 244.306 77.1856 243.96 76.7944C238.419 70.396 231.619 65.2756 224.009 61.7708C216.399 58.2661 208.152 56.4566 199.811 56.4616C199.064 56.4616 198.321 56.4771 197.584 56.5079C197.198 56.5182 196.816 56.5388 196.435 56.5594C188.273 57.0383 180.295 59.25 173.008 63.0545C165.72 66.8591 159.281 72.1739 154.097 78.663C153.822 79.0027 153.556 79.3476 153.29 79.6925C143.825 92.0438 139.392 107.678 140.921 123.313C140.956 123.658 140.991 124.003 141.036 124.342ZM151.253 151.892H151.138V151.722C151.173 151.781 151.212 151.838 151.253 151.892Z" fill="#CCCCCC"/>
<path d="M207.397 35.8447C207.397 36.1278 207.405 36.4085 207.423 36.6868C207.524 38.2921 207.919 39.8634 208.588 41.318C208.593 41.3304 208.599 41.342 208.604 41.3535C208.636 41.421 208.668 41.4884 208.7 41.555C208.899 41.9664 209.12 42.3663 209.362 42.7529C210.465 44.5279 211.978 45.9966 213.766 47.0291C215.554 48.0617 217.562 48.6265 219.613 48.6734L219.49 55.9712L217.877 55.0998L217.589 55.6615L219.477 56.682L219.247 70.2357L219.244 70.4167L220.491 70.7016L220.488 70.5197L220.096 48.6743C221.747 48.65 223.376 48.2894 224.89 47.6133C226.404 46.9373 227.772 45.9593 228.915 44.7362C228.994 44.6528 229.072 44.5667 229.148 44.4815L229.156 44.4717C230.108 43.4062 230.878 42.1834 231.434 40.8548C231.422 40.869 231.409 40.8823 231.397 40.8965C236.549 27.6084 233.551 21.4484 225.467 24.3576C225.424 24.3355 225.38 24.3142 225.336 24.292C222.509 22.8942 219.272 22.6377 216.269 23.5734C213.266 24.509 210.715 26.5686 209.122 29.3438C209.045 29.4751 208.972 29.6091 208.901 29.744C207.911 31.6168 207.394 33.7141 207.397 35.8447Z" fill="#E5E5E5"/>
<path d="M192.693 24.5417C192.844 27.0912 193.487 29.5845 194.584 31.877C196.696 36.2627 200.403 39.588 205.022 40.8285C205.03 40.8327 205.039 40.8345 205.047 40.8337C206.21 41.1448 207.403 41.3192 208.603 41.3536H208.704C208.829 41.3587 208.955 41.3587 209.08 41.3587C209.165 41.3587 209.25 41.3587 209.336 41.3536C213.637 41.2855 217.739 39.4843 220.757 36.3389C223.775 33.1934 225.466 28.9561 225.466 24.5417V24.3564C225.459 23.2831 225.307 22.2161 225.015 21.1855C225.015 21.1804 225.01 21.1752 225.01 21.1701C224.465 19.3791 223.483 17.7612 222.156 16.4704C218.871 13.1348 213.669 11.0397 209.08 7.72468C199.028 0.466629 191.645 7.68865 192.693 24.5417Z" fill="#E5E5E5"/>
<path opacity="0.2" d="M194.584 31.8769C196.696 36.2627 200.403 39.5879 205.022 40.8285C205.03 40.8327 205.039 40.8345 205.047 40.8337C206.207 41.129 207.394 41.2913 208.588 41.3175H208.704C208.914 41.3227 209.125 41.3227 209.336 41.3175C213.648 41.2071 217.745 39.3585 220.739 36.1717C223.734 32.985 225.385 28.7163 225.336 24.2895C225.321 23.247 225.213 22.208 225.015 21.1855C225.015 21.1803 225.01 21.1752 225.01 21.17C224.465 19.3791 223.483 17.7612 222.156 16.4703C222.602 18.6516 222.62 20.902 222.211 23.0907C221.802 25.2794 220.972 27.3628 219.772 29.2197C218.571 31.0767 217.022 32.6701 215.216 33.9075C213.41 35.1448 211.382 36.0014 209.25 36.4274C209.095 36.4583 208.939 36.4891 208.784 36.5149C208.333 36.5921 207.881 36.6487 207.425 36.6848C205.073 36.8806 202.708 36.5523 200.492 35.7225C198.276 34.8926 196.261 33.5808 194.584 31.8769Z" fill="black"/>
<path d="M208.525 51.8518L206.051 50.5153L206.428 49.7794L208.541 50.921L208.7 41.5553V41.5542L208.704 41.3558V41.3205L208.786 36.5158L208.901 29.7443L208.989 24.5413H209.035L209.121 29.3437V29.3449L209.248 36.4292L209.336 41.3174L209.337 41.3582L209.362 42.7528L209.863 70.7298L209.867 70.9146L208.193 71.3967L208.196 71.2103L208.525 51.8518Z" fill="#3F3D56"/>
<path d="M148.83 84.9822C159.232 82.8432 169.667 80.9028 180.229 79.7154C190.244 78.5065 200.343 78.2068 210.409 78.8198C219.5 79.4491 228.668 80.9247 237.208 84.2888C243.789 86.8811 250.804 90.8032 254.359 97.344C257.785 103.649 256.449 110.92 252.718 116.737C248.228 123.737 241.228 128.533 233.95 132.039C225.663 136.03 216.799 138.618 207.924 140.818C203.423 141.934 198.898 142.943 194.372 143.946C193.428 144.156 193.025 142.667 193.972 142.457C203.099 140.433 212.252 138.403 221.152 135.473C229.388 132.762 237.817 129.288 244.561 123.595C250.018 118.989 255.206 112.262 254.884 104.613C254.559 96.9025 248.255 91.5188 242.077 88.205C234.355 84.0637 225.582 82.0464 216.986 80.9921C207.143 79.8665 197.217 79.7279 187.348 80.5784C174.158 81.6084 161.163 83.9977 148.218 86.6739" fill="black"/>
<path d="M197.664 97.2623C193.287 99.5077 190.622 102.473 190.622 105.726C190.622 112.733 202.976 118.413 218.216 118.413C224.842 118.413 230.921 117.338 235.677 115.549C230.625 118.14 223.291 119.772 215.126 119.772C199.886 119.772 187.531 114.092 187.531 107.085C187.531 103.125 191.48 99.5889 197.664 97.2623Z" fill="#F1F1F1"/>
<path d="M187.928 102.075C182.988 104.609 179.981 107.955 179.981 111.625C179.981 119.532 193.922 125.941 211.118 125.941C218.594 125.941 225.453 124.729 230.821 122.709C225.12 125.634 216.844 127.475 207.63 127.475C190.434 127.475 176.494 121.066 176.494 113.159C176.494 108.69 180.949 104.701 187.928 102.075Z" fill="#F1F1F1"/>
<path d="M201.391 99.3823C198.307 100.964 196.429 103.054 196.429 105.345C196.429 110.282 205.133 114.283 215.87 114.283C220.053 114.339 224.214 113.656 228.172 112.266C224.612 114.091 219.445 115.241 213.692 115.241C202.956 115.241 194.252 111.239 194.252 106.303C194.252 103.512 197.034 101.021 201.391 99.3823Z" fill="#F1F1F1"/>
<path d="M217.813 108.836C224.154 108.836 227.238 107.051 228.709 105.553C228.977 105.278 229.16 104.927 229.234 104.546C229.308 104.164 229.27 103.769 229.125 103.409C228.98 103.05 228.734 102.743 228.418 102.527C228.103 102.311 227.732 102.196 227.353 102.196H205.23C204.928 102.196 204.635 102.292 204.389 102.471C204.144 102.65 203.959 102.903 203.86 103.195C203.762 103.488 203.754 103.804 203.839 104.101C203.924 104.397 204.096 104.659 204.333 104.85C206.587 106.669 210.755 108.836 217.813 108.836Z" fill="#3F3D56"/>
<path d="M213.219 85.9869C214.943 84.6422 217.108 84.0345 219.26 84.291C215.44 85.2588 218.454 90.6762 214.976 96.2945C213.08 99.3563 216.767 100.857 220.279 101.268C218.399 101.734 216.421 101.521 214.676 100.666C212.931 99.8107 211.526 98.365 210.698 96.5719C209.869 94.7788 209.668 92.7477 210.127 90.82C210.586 88.8923 211.678 87.1856 213.219 85.9869Z" fill="#3F3D56"/>
<path d="M217.134 83.1627H217.948V103.062H217.134V83.1627Z" fill="#3F3D56"/>
<path d="M138.743 88.7476C140.907 87.1839 143.349 86.0729 145.931 85.478C148.513 84.8831 151.184 84.8158 153.791 85.2802C156.398 85.7446 158.891 86.7314 161.126 88.1843C163.362 89.6373 165.297 91.5279 166.82 93.7482C173.228 103.086 179.657 127.572 175.119 141.757C161.581 127.082 140.783 125.557 133.871 117.562C126.484 109.019 129.645 95.3236 138.743 88.7476Z" fill="#FF587A"/>
<path d="M150.62 109.892C146.99 109.892 144.048 106.873 144.048 103.148C144.048 99.4234 146.99 96.4039 150.62 96.4039C154.249 96.4039 157.191 99.4234 157.191 103.148C157.191 106.873 154.249 109.892 150.62 109.892Z" fill="white"/>
<path d="M180.674 149.102C178.297 149.102 176.37 147.124 176.37 144.685C176.37 142.245 178.297 140.267 180.674 140.267C183.051 140.267 184.978 142.245 184.978 144.685C184.978 147.124 183.051 149.102 180.674 149.102Z" fill="#FF587A"/>
<path opacity="0.2" d="M143.589 101.592C143.154 102.357 142.869 103.202 142.753 104.08C142.636 104.957 142.689 105.85 142.908 106.706C143.127 107.563 143.509 108.367 144.031 109.072C144.553 109.777 145.205 110.37 145.95 110.817C146.695 111.263 147.519 111.555 148.374 111.675C149.229 111.795 150.099 111.74 150.933 111.515C151.768 111.29 152.551 110.899 153.239 110.363C153.926 109.827 154.503 109.158 154.939 108.393C153.766 109.449 152.265 110.042 150.705 110.067C149.144 110.091 147.627 109.544 146.423 108.525C145.22 107.506 144.409 106.08 144.136 104.503C143.863 102.927 144.146 101.302 144.934 99.9193C144.4 100.399 143.946 100.964 143.589 101.592Z" fill="#231F20"/>
<path opacity="0.2" d="M133.858 117.594C140.771 125.589 161.569 127.114 175.106 141.789C175.529 140.447 175.854 139.075 176.079 137.683C162.549 124.342 142.908 122.656 136.23 114.932C130.252 108.018 131.183 97.7301 136.577 90.5717C129.179 97.6103 127.09 109.765 133.858 117.594Z" fill="#231F20"/>
<path d="M62.9899 239.588H67.8952L70.2288 220.17H62.9888L62.9899 239.588Z" fill="#FFB6B6"/>
<path d="M61.7388 244.468L77.5558 244.468V244.262C77.5557 242.587 76.907 240.98 75.7525 239.795C74.598 238.61 73.0321 237.944 71.3994 237.944H71.399L68.5098 235.695L63.1193 237.945L61.7385 237.945L61.7388 244.468Z" fill="#2F2E41"/>
<path d="M81.9992 236.416L86.7841 237.525L93.2284 219.111L86.1661 217.475L81.9992 236.416Z" fill="#FFB6B6"/>
<path d="M79.7315 240.893L95.1601 244.468L95.2041 244.268C95.5637 242.634 95.2759 240.919 94.404 239.503C93.5321 238.086 92.1477 237.083 90.5551 236.713L90.5547 236.713L88.2193 233.866L82.4782 234.842L81.1314 234.53L79.7315 240.893Z" fill="#2F2E41"/>
<path d="M56.7769 120.877C54.4771 127.996 54.7202 135.723 57.3298 144.016L58.4453 190.71C56.6011 192.793 55.4438 201.286 58.2846 207.367C62.0782 215.488 59.4648 226.718 62.1464 232.106H69.9244L71.8358 210.171L73.5193 207.698L73.7754 187.914C74.8085 185.403 76.0054 182.914 73.9044 180.006L73.9604 176.569L74.259 158.251L85.9893 175.855C86.3225 179.839 88.307 181.927 90.9343 183.276L87.3014 199.731C80.9476 205.313 82.5015 213.951 82.3966 221.947L80.3133 231.383L89.8862 232.262L94.1107 219.465L98.8604 211.579L107.121 180.054L101.36 166.332L99.0058 160.724L85.8567 129.404L56.7769 120.877Z" fill="#2F2E41"/>
<path d="M138.043 95.489C137.66 95.8819 137.197 96.1837 136.688 96.3732C136.178 96.5627 135.634 96.6353 135.095 96.5858C134.555 96.5363 134.032 96.366 133.564 96.0868C133.095 95.8076 132.692 95.4263 132.382 94.9699L119.701 98.6281L121.783 91.9358L133.505 89.4879C134.287 89.005 135.214 88.8332 136.111 89.005C137.008 89.1768 137.812 89.6802 138.372 90.4199C138.931 91.1596 139.206 92.0842 139.146 93.0185C139.085 93.9527 138.693 94.8318 138.043 95.489Z" fill="#FFB8B8"/>
<path d="M127.672 90.0838L115.295 89.9907C111.957 89.033 108.438 88.9512 105.061 89.7528L104.404 89.9087L99.2387 89.3075C96.159 82.9901 90.4449 77.2785 82.774 72.0168C81.6173 71.06 80.2761 70.3655 78.839 69.979C77.4018 69.5925 75.9012 69.5227 74.4358 69.7743C72.9705 70.0259 71.5737 70.5931 70.3374 71.4386C69.1011 72.2841 68.0532 73.3888 67.2629 74.6799C65.8359 77.0172 65.3336 79.8259 65.8587 82.5309C66.3838 85.2359 67.8966 87.6326 70.0873 89.2302L93.4617 103.334C95.5126 104.571 97.842 105.24 100.221 105.273L100.278 105.303L113.611 100.176L120.47 99.2804L129.771 96.5063L127.672 90.0838Z" fill="#18E7C3"/>
<path d="M78.0134 60.4413C71.5639 60.4413 66.3355 55.0755 66.3355 48.4565C66.3355 41.8375 71.5639 36.4717 78.0134 36.4717C84.463 36.4717 89.6914 41.8375 89.6914 48.4565C89.6914 55.0755 84.463 60.4413 78.0134 60.4413Z" fill="#FFB8B8"/>
<path d="M67.1074 56.0575C66.2418 54.79 65.6279 52.76 65.2653 51.2763C64.7801 49.3227 64.7004 47.2862 65.0311 45.299C65.3619 43.3117 66.0959 41.4179 67.1854 39.7404C67.5875 39.0566 68.1638 38.4985 68.8521 38.1261C69.5587 37.8023 70.4903 37.8795 70.9829 38.4919C70.9844 37.9545 71.0932 37.4231 71.3026 36.9305C71.512 36.4379 71.8175 35.9946 72.2004 35.6279C72.9723 34.8986 73.8991 34.3639 74.9073 34.0661C76.8497 33.4583 78.9163 33.4014 80.8876 33.9016C82.8589 34.4019 84.6616 35.4405 86.1041 36.9073C86.6676 37.4958 86.4666 34.5552 87.0924 35.0732C87.6986 35.6296 88.493 35.9204 89.3055 35.8834C90.105 35.796 91.5754 38.7198 91.5839 37.8947C92.425 38.7597 92.7955 42.4073 92.5324 43.599C92.2693 44.7908 88.3553 44.264 87.2332 44.6725C86.4898 44.943 85.6824 44.9522 84.9126 45.1283C83.5438 45.4913 82.3519 46.356 81.5619 47.5591C80.772 48.7623 80.4385 50.2206 80.6246 51.6588C80.1321 50.9792 79.5359 50.3857 78.859 49.9012C78.518 49.662 78.1263 49.5098 77.7164 49.4572C77.3065 49.4047 76.8903 49.4534 76.5025 49.5993C76.1524 49.792 75.8444 50.0562 75.5974 50.3756C75.3504 50.6949 75.1697 51.0627 75.0662 51.4564C74.8114 52.227 74.7126 53.045 74.453 53.8139C73.6913 56.0701 73.2983 58.4384 71.1751 58.9733C69.4995 59.3955 68.2891 57.788 67.1074 56.0575Z" fill="#2F2E41"/>
<path d="M55.7805 118.501L57.0626 115.87C58.6323 105.89 60.183 96.5817 58.0763 88.209C57.9439 80.8999 60.1452 74.0333 66.2573 70.2836L69.0146 68.5912L70.4102 64.9579L83.2624 65.2801L83.3002 70.0429L87.9032 77.5772V77.6082L87.6158 118.606L86.3449 122.837L88.2625 127.759L87.2451 130.899L61.9077 126.742L58.9613 126.257C58.6211 126.145 58.2929 125.998 57.9817 125.818C56.9245 125.216 56.0958 124.265 55.6292 123.121C55.6027 123.055 55.58 122.992 55.5573 122.926C55.3585 122.392 55.2437 121.829 55.2169 121.257C55.1709 120.304 55.365 119.355 55.7805 118.501Z" fill="#18E7C3"/>
<path opacity="0.2" d="M55.2169 121.257C55.2437 121.829 55.3585 122.392 55.5573 122.926L57.9817 125.818C58.2929 125.998 58.6211 126.145 58.9613 126.257L61.9077 126.742L57.6451 118.517L67.0138 97.4667L55.2169 121.257Z" fill="black"/>
<path d="M45.0198 145.605C45.4902 145.275 45.8846 144.844 46.1751 144.342C46.4656 143.839 46.6452 143.278 46.7013 142.696C46.7574 142.115 46.6886 141.528 46.4998 140.977C46.3109 140.425 46.0065 139.923 45.6082 139.506L51.7746 126.791L44.6357 127.683L39.8744 139.621C39.2354 140.354 38.8808 141.302 38.8776 142.286C38.8745 143.27 39.223 144.221 39.8573 144.958C40.4915 145.696 41.3674 146.169 42.3189 146.288C43.2704 146.407 44.2314 146.164 45.0198 145.605Z" fill="#FFB8B8"/>
<path d="M70.0183 101.855L65.3403 101.192C65.3403 101.192 64.8887 108.43 62.6511 109.527C60.4135 110.624 61.1678 110.804 60.9039 111.966C60.6401 113.127 59.446 114.882 57.6735 115.682C55.901 116.482 47.8386 136.602 47.8386 136.602L41.0497 134.978C41.6778 133.231 42.0915 131.41 42.281 129.559C42.5195 126.759 45.6113 120.153 46.6295 119.172C47.6477 118.191 47.2452 116.462 47.7729 114.14C48.3006 111.818 47.9342 113.971 48.8138 110.1C49.6933 106.23 59.5814 83.0324 59.9958 79.4585C60.4103 75.8846 65.2626 73.7809 65.2626 73.7809L69.0342 74.6836L70.0183 101.855Z" fill="#18E7C3"/>
<path d="M147.708 245H0.471649C0.346558 245 0.226593 244.949 0.138138 244.858C0.0496826 244.767 0 244.644 0 244.516C0 244.388 0.0496826 244.264 0.138138 244.174C0.226593 244.083 0.346558 244.032 0.471649 244.032H147.708C147.833 244.032 147.953 244.083 148.041 244.174C148.13 244.264 148.18 244.388 148.18 244.516C148.18 244.644 148.13 244.767 148.041 244.858C147.953 244.949 147.833 245 147.708 245Z" fill="#CCCCCC"/>
</g>
<defs>
<clipPath id="clip0_17_86">
<rect width="260" height="245" fill="white" transform="matrix(-1 0 0 1 260 0)"/>
</clipPath>
</defs>
</svg>
