<svg width="257" height="193" viewBox="0 0 257 193" fill="none" xmlns="http://www.w3.org/2000/svg">
<g clip-path="url(#clip0_2_346)">
<path d="M181.847 74.7178H160.031V88.6483H181.847V74.7178Z" fill="#04C5CF"/>
<path d="M147.855 96.5H126.039V110.43H147.855V96.5Z" fill="#04C5CF"/>
<path d="M245.621 79.2769V49.643H229.132V30.3937H217.971V49.643H201.482V79.2769H192.35V12.664H173.832V6.33202H149.226V0H124.874V6.33202H101.79V12.664H81.7497V79.0236H71.0955V49.3898H54.6069V30.1404H43.4454V49.3898H26.9568V79.0236H16.3027V184.135H40.655V146.903H57.3973V184.135H122.844V140.824H151.255V184.135H190.828V184.388H215.18V147.156H231.923V184.388H256.275V79.2769H245.621ZM25.0543 91.9409H34.6938V99.5394H25.0543V91.9409ZM25.1811 113.217H34.8206V120.815H25.1811V113.217ZM34.9475 142.091H25.308V134.492H34.9475V142.091ZM60.1877 73.4514H37.8647V68.8924H60.1877V73.4514ZM60.1877 66.8661H37.8647V62.3071H60.1877V66.8661ZM60.1877 60.2808H37.8647V55.7218H60.1877V60.2808ZM63.3586 91.9409H72.9981V99.5394H63.3586V91.9409ZM63.4854 113.217H73.1249V120.815H63.4854V113.217ZM73.2517 142.091H63.6122V134.492H73.2517V142.091ZM112.697 129.426H94.9406V121.575H112.697V129.426ZM112.697 106.885H94.9406V99.0328H112.697V106.885ZM112.697 84.3425H94.9406V76.4908H112.697V84.3425ZM112.697 61.8005H94.9406V53.9488H112.697V61.8005ZM112.697 39.2585H94.9406V31.4068H112.697V39.2585ZM145.928 129.426H128.171V121.575H145.928V129.426ZM145.928 106.885H128.171V99.0328H145.928V106.885ZM145.928 84.3425H128.171V76.4908H145.928V84.3425ZM145.928 61.8005H128.171V53.9488H145.928V61.8005ZM145.928 39.2585H128.171V31.4068H145.928V39.2585ZM179.159 129.426H161.402V121.575H179.159V129.426ZM179.159 106.885H161.402V99.0328H179.159V106.885ZM179.159 84.3425H161.402V76.4908H179.159V84.3425ZM179.159 61.8005H161.402V53.9488H179.159V61.8005ZM179.159 39.2585H161.402V31.4068H179.159V39.2585ZM199.58 92.1942H209.219V99.7926H199.58V92.1942ZM199.706 113.47H209.346V121.068H199.706V113.47ZM209.473 142.344H199.833V134.745H209.473V142.344ZM234.713 73.7047H212.39V69.1457H234.713V73.7047ZM234.713 67.1194H212.39V62.5604H234.713V67.1194ZM234.713 60.5341H212.39V55.9751H234.713V60.5341ZM237.884 92.1942H247.523V99.7926H237.884V92.1942ZM238.011 113.47H247.65V121.068H238.011V113.47ZM247.777 142.344H238.138V134.745H247.777V142.344Z" fill="#F2F2F2"/>
<path d="M31.3171 158.48C31.2461 159.482 31.135 160.603 30.9633 161.78L34.0646 158.346L34.0817 158.404C33.892 157.577 33.5867 156.782 33.1746 156.04L33.1944 156.095L31.3171 158.48Z" fill="#04C5CF"/>
<path d="M31.3292 158.304L33.1468 155.994C32.7601 155.289 32.2008 154.693 31.5211 154.263C31.4878 154.243 31.4543 154.225 31.4208 154.206C31.4308 154.479 31.4784 156.081 31.3292 158.304Z" fill="#04C5CF"/>
<path d="M29.6885 167.364C29.6086 167.607 29.526 167.845 29.4409 168.079L34.0082 165.406L34.0146 165.473C34.11 165.057 34.1895 164.641 34.253 164.225L29.6926 167.394L29.6885 167.364Z" fill="#04C5CF"/>
<path d="M30.3237 165.119L34.4371 161.732L34.4488 161.796C34.4633 160.676 34.3449 159.558 34.0961 158.466L30.9357 161.965C30.7697 163.068 30.5657 164.12 30.3237 165.119Z" fill="#04C5CF"/>
<path d="M30.8652 161.899L25.9432 156.415L25.9695 156.353C25.5068 157.004 25.1112 157.699 24.7885 158.429L30.4052 164.4C30.5977 163.529 30.7479 162.685 30.8652 161.899Z" fill="#04C5CF"/>
<path d="M24.7354 158.553L24.7356 158.553C24.7445 158.532 24.7522 158.51 24.7611 158.49L24.7354 158.553Z" fill="#04C5CF"/>
<path d="M24.4615 159.225L24.4362 159.288C24.4443 159.266 24.4534 159.247 24.4615 159.225Z" fill="#04C5CF"/>
<path d="M30.3729 164.545L24.7356 158.553C24.6403 158.771 24.549 158.995 24.4617 159.225L30.2233 165.179C30.2757 164.967 30.3256 164.755 30.3729 164.545Z" fill="#04C5CF"/>
<path d="M34.2651 164.145C34.3773 163.392 34.4385 162.631 34.4482 161.869L30.2791 165.302C30.1139 165.968 29.9321 166.608 29.7338 167.222L34.2562 164.08L34.2651 164.145Z" fill="#04C5CF"/>
<path d="M23.7141 164.573L28.2773 170.517C28.6522 169.793 28.9833 169.048 29.2689 168.285L23.7009 162.446C23.6457 163.176 23.6396 163.908 23.6826 164.639L23.7141 164.573Z" fill="#04C5CF"/>
<path d="M31.3375 154.201L31.3784 154.183C30.3791 153.65 29.2972 153.707 28.2603 154.247L31.2488 158.3C31.4097 155.895 31.3386 154.225 31.3375 154.201Z" fill="#04C5CF"/>
<path d="M29.2929 168.477C29.031 169.164 28.7318 169.835 28.3967 170.49L32.9867 168.118L32.9913 168.184C33.3371 167.601 33.6075 166.976 33.7961 166.325C33.869 166.069 33.9356 165.812 33.9957 165.555L29.374 168.26C29.347 168.333 29.3204 168.405 29.2929 168.477Z" fill="#04C5CF"/>
<path d="M31.2365 158.48L28.1794 154.334L28.208 154.275C27.333 154.78 26.5811 155.473 26.0063 156.303L30.8882 161.742C31.0571 160.577 31.1665 159.47 31.2365 158.48Z" fill="#04C5CF"/>
<path d="M29.3188 168.151C29.6592 167.224 29.9493 166.279 30.1879 165.321L24.4119 159.352C24.2744 159.725 24.1482 160.113 24.0331 160.516C23.8734 161.093 23.7668 161.684 23.7147 162.281L29.3144 168.153L29.3188 168.151Z" fill="#04C5CF"/>
<path d="M35.2515 174.59C34.5569 175.317 33.7554 176.109 32.8709 176.907L37.4532 176.237L37.4297 176.292C37.8115 175.535 38.0846 174.728 38.2408 173.894L38.2213 173.949L35.2515 174.59Z" fill="#04C5CF"/>
<path d="M38.1027 171.472C38.0897 171.436 38.0758 171.4 38.0618 171.365C37.8952 171.581 36.9084 172.845 35.3732 174.463L38.2499 173.841C38.4023 173.052 38.3516 172.237 38.1027 171.472Z" fill="#04C5CF"/>
<path d="M28.3226 180.395C28.1058 180.531 27.8899 180.663 27.6747 180.789L32.9004 181.638L32.8624 181.694C33.2015 181.434 33.5283 181.165 33.8428 180.885L28.3062 180.421L28.3226 180.395Z" fill="#04C5CF"/>
<path d="M30.2454 179.071L35.5772 179.082L35.5457 179.138C36.2723 178.285 36.8952 177.349 37.4012 176.349L32.7316 177.032C31.8991 177.775 31.0704 178.455 30.2454 179.071Z" fill="#04C5CF"/>
<path d="M28.4478 180.315L33.9383 180.775L33.9033 180.831C34.4712 180.322 35.0041 179.775 35.4983 179.195L30.0943 179.184C29.5418 179.591 28.993 179.968 28.4478 180.315Z" fill="#04C5CF"/>
<path d="M21.723 183.028C21.7619 182.989 21.803 182.946 21.8436 182.904C22.9632 182.726 24.0572 182.414 25.102 181.975L25.2512 178.024C25.2954 177.923 25.3385 177.822 25.3802 177.72L25.2214 181.925C25.9724 181.606 26.7035 181.243 27.4109 180.837L26.901 173.493C26.9404 173.472 26.9799 173.452 27.0207 173.43L27.53 180.765L27.535 180.766C28.3892 180.269 29.2161 179.726 30.0119 179.14L29.4567 171.912C29.496 171.884 29.5352 171.856 29.5746 171.826L30.1298 179.053C30.3059 178.923 30.4793 178.792 30.6499 178.66L30.1919 171.344C30.2311 171.312 30.2703 171.28 30.3094 171.247L30.7678 178.569C31.4726 178.02 32.1274 177.466 32.7198 176.935L32.4317 169.578L32.4916 169.547C32.287 169.6 32.079 169.663 31.8693 169.732C32.2637 169.282 32.6184 168.8 32.9296 168.289L28.2956 170.683C27.9749 171.291 27.6141 171.878 27.2156 172.439C27.1328 172.517 27.05 172.595 26.9684 172.676L26.9745 172.764C26.9367 172.814 26.899 172.864 26.8608 172.913L26.8526 172.794C26.7941 172.854 26.737 172.918 26.6792 172.979C27.266 172.248 27.781 171.461 28.2171 170.631L23.6874 164.731C23.7183 165.258 23.7699 165.789 23.8363 166.316C23.4158 165.633 22.905 165.01 22.3178 164.463L22.3535 164.509L21.3066 167.357C21.5493 168.332 21.7906 169.432 21.9919 170.605L23.8523 166.44C23.8608 166.505 23.8698 166.569 23.8787 166.634L22.0228 170.789C22.2064 171.889 22.3379 172.952 22.4172 173.978L24.6447 170.484C24.6575 170.534 24.6702 170.584 24.6829 170.634L22.4314 174.165C22.4804 174.849 22.5057 175.514 22.5072 176.159L25.2301 172.572C25.2446 172.62 25.2588 172.665 25.2729 172.711L22.5212 176.336L22.5078 176.308C22.5071 176.564 22.5025 176.816 22.494 177.065L25.5654 173.612C25.5817 173.66 25.5968 173.705 25.6108 173.745L22.4863 177.258C22.4831 177.335 22.4802 177.412 22.4763 177.489C22.4397 178.223 22.3632 178.954 22.247 179.679L22.5434 179.38C22.4873 179.496 22.4326 179.611 22.3794 179.724L22.2107 179.894C22.1913 180.005 22.1693 180.113 22.1481 180.223C22.0858 180.359 22.0259 180.492 21.9681 180.622C22.0239 180.373 22.0758 180.122 22.1202 179.87L15.9855 175.656C17.586 179.744 20.5999 183.633 20.7928 183.88C20.9495 183.588 21.0918 183.287 21.2224 182.981C21.2604 182.977 21.2984 182.973 21.3363 182.969C21.3206 183.007 21.3043 183.044 21.2883 183.082C21.2692 183.084 21.2498 183.087 21.2308 183.089C21.2456 183.093 21.2635 183.098 21.2796 183.102C21.1876 183.316 21.0922 183.527 20.9899 183.731C21.1238 183.61 21.3277 183.42 21.5716 183.179C23.0141 183.547 26.9003 184.333 30.2278 183.172L25.1296 182.064C24.0386 182.526 22.8942 182.849 21.723 183.028ZM25.3054 176.587L25.4277 176.463L25.4207 176.649L25.2985 176.772L25.3054 176.587Z" fill="#04C5CF"/>
<path d="M38.0008 171.308L38.044 171.32C37.6148 170.273 36.745 169.628 35.6011 169.384L35.3138 174.408C36.9744 172.658 37.9864 171.327 38.0008 171.308Z" fill="#04C5CF"/>
<path d="M27.3067 181.001C26.6663 181.363 26.0067 181.69 25.3307 181.98L30.3806 183.077L30.3421 183.131C30.981 182.902 31.5884 182.593 32.1496 182.211C32.3694 182.06 32.5847 181.905 32.7956 181.745L27.5076 180.885C27.4406 180.924 27.3735 180.963 27.3067 181.001Z" fill="#04C5CF"/>
<path d="M32.8377 176.829C33.7116 176.04 34.5034 175.257 35.1899 174.539L35.4838 169.398L35.5436 169.371C34.5468 169.203 33.5251 169.258 32.552 169.531L32.8377 176.829Z" fill="#04C5CF"/>
<path d="M22.2779 164.427C21.6917 163.876 20.9751 163.482 20.1952 163.283C20.1574 163.275 20.1197 163.267 20.0822 163.26C20.1761 163.516 20.7174 165.025 21.2638 167.186L22.2779 164.427Z" fill="#04C5CF"/>
<path d="M21.9351 170.747L15.5567 167.052L15.5625 166.984C15.3239 167.746 15.1629 168.529 15.082 169.323L22.2721 173.268C22.1853 172.38 22.067 171.531 21.9351 170.747Z" fill="#04C5CF"/>
<path d="M15.0696 169.457L15.0699 169.457C15.072 169.435 15.0725 169.411 15.0748 169.39L15.0696 169.457Z" fill="#04C5CF"/>
<path d="M15.0174 170.181L15.0127 170.248C15.0137 170.226 15.0163 170.204 15.0174 170.181Z" fill="#04C5CF"/>
<path d="M22.2863 173.416L15.0699 169.457C15.0467 169.694 15.0293 169.935 15.0176 170.181L22.3403 174.065C22.3243 173.847 22.3063 173.631 22.2863 173.416Z" fill="#04C5CF"/>
<path d="M22.3939 177.313L15.291 173.479C15.4645 174.19 15.6855 174.889 15.9526 175.57L15.9619 175.497L22.1418 179.742C22.2744 178.938 22.3586 178.127 22.3939 177.313Z" fill="#04C5CF"/>
<path d="M20.0013 163.281L20.0346 163.251C18.9191 163.052 17.908 163.441 17.0891 164.275L21.1861 167.207C20.5943 164.869 20.0098 163.303 20.0013 163.281Z" fill="#04C5CF"/>
<path d="M21.2298 167.381L17.0389 164.382L17.0479 164.317C16.3722 165.067 15.8715 165.958 15.5819 166.925L21.9084 170.591C21.7086 169.432 21.4698 168.345 21.2298 167.381Z" fill="#04C5CF"/>
<path d="M22.4 177.171C22.4367 176.184 22.4202 175.196 22.3505 174.211L15.0096 170.317C14.9942 170.714 14.9942 171.122 15.0094 171.541C15.0364 172.139 15.1179 172.734 15.2531 173.318L22.3966 177.174L22.4 177.171Z" fill="#04C5CF"/>
<path d="M248.459 157.72C248.388 158.722 248.277 159.843 248.105 161.021L251.207 157.586L251.224 157.644C251.034 156.818 250.729 156.022 250.317 155.281L250.336 155.335L248.459 157.72Z" fill="#04C5CF"/>
<path d="M248.471 157.545L250.289 155.234C249.902 154.529 249.343 153.933 248.663 153.503C248.63 153.483 248.596 153.465 248.563 153.446C248.573 153.719 248.62 155.321 248.471 157.545Z" fill="#04C5CF"/>
<path d="M246.83 166.604C246.751 166.847 246.668 167.085 246.583 167.319L251.15 164.646L251.157 164.713C251.252 164.297 251.331 163.881 251.395 163.466L246.835 166.634L246.83 166.604Z" fill="#04C5CF"/>
<path d="M247.466 164.36L251.579 160.972L251.591 161.036C251.605 159.916 251.487 158.798 251.238 157.706L248.078 161.205C247.912 162.308 247.708 163.36 247.466 164.36Z" fill="#04C5CF"/>
<path d="M248.007 161.139L243.085 155.655L243.112 155.594C242.649 156.244 242.253 156.939 241.931 157.669L247.547 163.64C247.74 162.769 247.89 161.925 248.007 161.139Z" fill="#04C5CF"/>
<path d="M241.877 157.793L241.878 157.793C241.886 157.773 241.894 157.75 241.903 157.73L241.877 157.793Z" fill="#04C5CF"/>
<path d="M247.515 163.786L241.878 157.793C241.782 158.011 241.691 158.235 241.604 158.465L247.365 164.419C247.418 164.207 247.468 163.996 247.515 163.786Z" fill="#04C5CF"/>
<path d="M241.603 158.465L241.578 158.528C241.586 158.506 241.595 158.487 241.603 158.465Z" fill="#04C5CF"/>
<path d="M251.407 163.385C251.519 162.632 251.581 161.871 251.59 161.109L247.421 164.542C247.256 165.208 247.074 165.848 246.876 166.462L251.398 163.32L251.407 163.385Z" fill="#04C5CF"/>
<path d="M240.856 163.813L245.419 169.757C245.794 169.033 246.125 168.288 246.411 167.525L240.843 161.686C240.788 162.416 240.782 163.149 240.825 163.879L240.856 163.813Z" fill="#04C5CF"/>
<path d="M248.479 153.441L248.52 153.423C247.521 152.89 246.439 152.947 245.402 153.488L248.391 157.541C248.552 155.135 248.481 153.465 248.479 153.441Z" fill="#04C5CF"/>
<path d="M246.435 167.717C246.173 168.404 245.874 169.076 245.539 169.73L250.129 167.359L250.133 167.425C250.479 166.841 250.75 166.217 250.938 165.565C251.011 165.309 251.078 165.052 251.138 164.795L246.516 167.5C246.489 167.573 246.462 167.646 246.435 167.717Z" fill="#04C5CF"/>
<path d="M248.378 157.72L245.321 153.574L245.35 153.515C244.475 154.02 243.723 154.713 243.148 155.543L248.03 160.982C248.199 159.818 248.308 158.71 248.378 157.72Z" fill="#04C5CF"/>
<path d="M246.461 167.391C246.801 166.464 247.091 165.519 247.33 164.561L241.554 158.592C241.416 158.965 241.29 159.353 241.175 159.756C241.015 160.333 240.909 160.924 240.857 161.521L246.456 167.394L246.461 167.391Z" fill="#04C5CF"/>
<path d="M252.394 173.831C251.699 174.557 250.897 175.349 250.013 176.147L254.595 175.477L254.572 175.532C254.954 174.775 255.227 173.968 255.383 173.134L255.363 173.189L252.394 173.831Z" fill="#04C5CF"/>
<path d="M255.245 170.712C255.232 170.676 255.218 170.64 255.204 170.605C255.037 170.821 254.05 172.086 252.515 173.703L255.392 173.081C255.544 172.292 255.494 171.477 255.245 170.712Z" fill="#04C5CF"/>
<path d="M245.465 179.635C245.248 179.772 245.032 179.903 244.817 180.029L250.042 180.878L250.004 180.934C250.344 180.674 250.67 180.405 250.985 180.125L245.448 179.661L245.465 179.635Z" fill="#04C5CF"/>
<path d="M247.387 178.311L252.719 178.322L252.688 178.378C253.414 177.525 254.037 176.589 254.543 175.589L249.874 176.272C249.041 177.016 248.212 177.695 247.387 178.311Z" fill="#04C5CF"/>
<path d="M245.59 179.555L251.08 180.015L251.045 180.071C251.613 179.562 252.146 179.015 252.64 178.435L247.236 178.424C246.684 178.831 246.135 179.208 245.59 179.555Z" fill="#04C5CF"/>
<path d="M238.865 182.268C238.904 182.229 238.945 182.186 238.986 182.145C240.105 181.967 241.199 181.654 242.244 181.215L242.393 177.264C242.437 177.164 242.48 177.062 242.522 176.96L242.363 181.165C243.114 180.847 243.846 180.483 244.553 180.078L244.043 172.733C244.082 172.712 244.122 172.692 244.163 172.67L244.672 180.005L244.677 180.006C245.531 179.509 246.358 178.966 247.154 178.38L246.599 171.153C246.638 171.124 246.677 171.096 246.717 171.066L247.272 178.294C247.448 178.163 247.621 178.032 247.792 177.901L247.334 170.584C247.373 170.552 247.412 170.52 247.451 170.487L247.91 177.809C248.615 177.261 249.269 176.706 249.862 176.176L249.574 168.818L249.634 168.787C249.429 168.84 249.221 168.903 249.011 168.972C249.406 168.523 249.76 168.04 250.072 167.529L245.438 169.923C245.117 170.531 244.756 171.118 244.358 171.679C244.275 171.757 244.192 171.835 244.11 171.916L244.116 172.004C244.079 172.054 244.041 172.104 244.003 172.153L243.995 172.034C243.936 172.094 243.879 172.158 243.821 172.219C244.408 171.488 244.923 170.702 245.359 169.872L240.829 163.971C240.86 164.498 240.912 165.029 240.978 165.556C240.558 164.873 240.047 164.25 239.46 163.703L239.496 163.749L238.449 166.597C238.691 167.572 238.933 168.672 239.134 169.845L240.994 165.68C241.003 165.745 241.012 165.809 241.021 165.874L239.165 170.029C239.348 171.129 239.48 172.192 239.559 173.218L241.787 169.724C241.799 169.774 241.812 169.825 241.825 169.874L239.573 173.405C239.622 174.089 239.648 174.754 239.649 175.4L242.372 171.813C242.387 171.86 242.401 171.906 242.415 171.951L239.663 175.576L239.65 175.548C239.649 175.804 239.644 176.056 239.636 176.305L242.707 172.852C242.724 172.9 242.739 172.945 242.753 172.985L239.628 176.498C239.625 176.575 239.622 176.652 239.618 176.729C239.582 177.463 239.505 178.194 239.389 178.92L239.685 178.62C239.629 178.736 239.575 178.851 239.521 178.964L239.353 179.134C239.333 179.245 239.311 179.354 239.29 179.463C239.228 179.599 239.168 179.732 239.11 179.862C239.166 179.613 239.218 179.363 239.262 179.11L233.128 174.896C234.728 178.984 237.742 182.873 237.935 183.12C238.091 182.828 238.234 182.528 238.364 182.221C238.402 182.217 238.44 182.214 238.478 182.21C238.463 182.247 238.446 182.284 238.43 182.322C238.411 182.324 238.392 182.327 238.373 182.329C238.388 182.333 238.406 182.338 238.422 182.342C238.33 182.556 238.234 182.767 238.132 182.971C238.266 182.851 238.47 182.661 238.714 182.42C240.156 182.787 244.042 183.574 247.37 182.412L242.272 181.305C241.181 181.766 240.036 182.09 238.865 182.268ZM242.447 175.827L242.57 175.704L242.563 175.889L242.44 176.012L242.447 175.827Z" fill="#04C5CF"/>
<path d="M255.143 170.548L255.186 170.56C254.757 169.513 253.887 168.868 252.743 168.624L252.456 173.649C254.116 171.898 255.128 170.567 255.143 170.548Z" fill="#04C5CF"/>
<path d="M244.449 180.241C243.808 180.603 243.149 180.93 242.473 181.22L247.523 182.317L247.484 182.371C248.123 182.142 248.73 181.833 249.291 181.451C249.511 181.301 249.727 181.145 249.938 180.985L244.65 180.126C244.583 180.164 244.515 180.203 244.449 180.241Z" fill="#04C5CF"/>
<path d="M249.98 176.069C250.854 175.28 251.645 174.497 252.332 173.779L252.626 168.639L252.686 168.611C251.689 168.444 250.667 168.498 249.694 168.772L249.98 176.069Z" fill="#04C5CF"/>
<path d="M239.42 163.667C238.834 163.116 238.117 162.723 237.337 162.523C237.299 162.515 237.262 162.507 237.224 162.5C237.318 162.757 237.859 164.266 238.406 166.426L239.42 163.667Z" fill="#04C5CF"/>
<path d="M239.077 169.988L232.699 166.292L232.704 166.225C232.466 166.986 232.305 167.77 232.224 168.563L239.414 172.508C239.327 171.62 239.209 170.771 239.077 169.988Z" fill="#04C5CF"/>
<path d="M232.159 169.421L232.155 169.489C232.156 169.466 232.158 169.444 232.159 169.421Z" fill="#04C5CF"/>
<path d="M232.212 168.697L232.212 168.697C232.214 168.675 232.215 168.652 232.217 168.63L232.212 168.697Z" fill="#04C5CF"/>
<path d="M239.428 172.657L232.212 168.697C232.189 168.934 232.171 169.175 232.16 169.421L239.482 173.306C239.466 173.087 239.448 172.871 239.428 172.657Z" fill="#04C5CF"/>
<path d="M239.536 176.554L232.433 172.719C232.607 173.43 232.828 174.129 233.095 174.811L233.104 174.737L239.284 178.982C239.416 178.178 239.501 177.367 239.536 176.554Z" fill="#04C5CF"/>
<path d="M237.143 162.521L237.177 162.491C236.061 162.293 235.05 162.681 234.231 163.515L238.328 166.447C237.736 164.11 237.152 162.544 237.143 162.521Z" fill="#04C5CF"/>
<path d="M238.372 166.621L234.181 163.622L234.19 163.557C233.514 164.308 233.013 165.198 232.724 166.166L239.05 169.831C238.851 168.672 238.612 167.585 238.372 166.621Z" fill="#04C5CF"/>
<path d="M239.542 176.411C239.579 175.424 239.562 174.436 239.492 173.451L232.152 169.557C232.136 169.954 232.136 170.362 232.151 170.781C232.178 171.379 232.26 171.974 232.395 172.558L239.539 176.415L239.542 176.411Z" fill="#04C5CF"/>
<path d="M16.3027 184.135H256.275V187.563C256.275 189.005 255.701 190.388 254.68 191.408C253.659 192.427 252.274 193 250.83 193H21.7476C20.3035 193 18.9186 192.427 17.8975 191.408C16.8763 190.388 16.3027 189.005 16.3027 187.563V184.135Z" fill="#2F2E41"/>
<path d="M256.275 181.349H16.3027V186.161H256.275V181.349Z" fill="#3F3D56"/>
<path d="M202.28 16.7099L205.036 18.455L203.362 15.4173C203.836 15.0397 204.423 14.8307 205.029 14.8233C205.044 14.8233 205.058 14.8234 205.073 14.8237C205.265 14.8268 205.456 14.8126 205.645 14.7815L206.579 15.3728L206.179 14.646C206.84 14.4156 207.412 13.9822 207.813 13.4078L209.484 14.4663L208.428 12.5491C209.406 11.3774 210.724 10.6589 212.174 10.6589C213.912 10.6589 215.461 11.6912 216.46 13.2996C216.756 13.7809 217.174 14.1755 217.671 14.4434C218.169 14.7113 218.729 14.843 219.294 14.825C219.325 14.8239 219.356 14.8233 219.387 14.8233C221.306 14.8233 222.862 16.9959 222.862 19.676C222.862 22.3561 221.306 24.5287 219.387 24.5287C218.965 24.5271 218.55 24.4233 218.177 24.2261C217.524 23.9091 216.809 23.7376 216.083 23.7234C215.357 23.7092 214.636 23.8528 213.971 24.144C213.409 24.3962 212.8 24.5273 212.184 24.5287C211.568 24.5301 210.958 24.4019 210.395 24.1523C209.735 23.8666 209.021 23.7259 208.302 23.7398C207.583 23.7537 206.875 23.9218 206.226 24.2328C205.857 24.4257 205.446 24.5272 205.029 24.5287C203.11 24.5287 201.554 22.3561 201.554 19.676C201.543 18.6422 201.792 17.6222 202.28 16.7099Z" fill="#F2F2F2"/>
<path d="M62.0611 30.962L63.8143 32.0721L62.7499 30.1397C63.0513 29.8995 63.4244 29.7666 63.81 29.7619C63.8195 29.7619 63.8289 29.762 63.8383 29.7621C63.9601 29.7641 64.0818 29.7551 64.202 29.7353L64.7961 30.1115L64.5415 29.6491C64.9624 29.5025 65.3262 29.2268 65.5809 28.8615L66.6443 29.5348L65.9725 28.3152C66.2554 27.9509 66.616 27.6539 67.028 27.446C67.4401 27.238 67.8934 27.1242 68.355 27.1128C69.4608 27.1128 70.4459 27.7695 71.0819 28.7926C71.2699 29.0987 71.5356 29.3498 71.8522 29.5202C72.1687 29.6906 72.5248 29.7744 72.8843 29.763C72.9041 29.7622 72.9239 29.7619 72.9438 29.7619C74.1646 29.7619 75.1542 31.1439 75.1542 32.8488C75.1542 34.5536 74.1646 35.9357 72.9438 35.9357C72.6753 35.9347 72.4111 35.8686 72.1738 35.7432C71.7582 35.5416 71.3038 35.4325 70.8418 35.4234C70.3799 35.4144 69.9215 35.5057 69.4983 35.691C69.1408 35.8514 68.7535 35.9348 68.3615 35.9357C67.9696 35.9366 67.5819 35.855 67.2237 35.6963C66.8038 35.5145 66.3497 35.425 65.8922 35.4338C65.4346 35.4427 64.9843 35.5496 64.5718 35.7474C64.3366 35.8702 64.0754 35.9347 63.81 35.9357C62.5892 35.9357 61.5995 34.5536 61.5995 32.8488C61.5924 32.1912 61.7512 31.5423 62.0611 30.962Z" fill="#F2F2F2"/>
<path d="M14.8784 36.9127L16.6316 38.0228L15.5671 36.0904C15.8686 35.8502 16.2416 35.7173 16.6273 35.7126C16.6367 35.7126 16.6461 35.7127 16.6555 35.7128C16.7773 35.7148 16.8991 35.7058 17.0193 35.686L17.6134 36.0622L17.3587 35.5998C17.7797 35.4532 18.1435 35.1776 18.3981 34.8122L19.4615 35.4855L18.7897 34.2659C19.0726 33.9016 19.4332 33.6047 19.8453 33.3967C20.2574 33.1887 20.7107 33.0749 21.1723 33.0635C22.2781 33.0635 23.2632 33.7202 23.8991 34.7433C24.0871 35.0495 24.3529 35.3005 24.6694 35.4709C24.986 35.6413 25.3421 35.7251 25.7016 35.7137C25.7213 35.713 25.7411 35.7126 25.761 35.7126C26.9818 35.7126 27.9715 37.0946 27.9715 38.7995C27.9715 40.5044 26.9818 41.8864 25.761 41.8864C25.4926 41.8854 25.2283 41.8194 24.9911 41.6939C24.5755 41.4923 24.121 41.3832 23.6591 41.3742C23.1971 41.3651 22.7387 41.4564 22.3156 41.6417C21.9581 41.8021 21.5707 41.8855 21.1788 41.8864C20.7869 41.8873 20.3992 41.8057 20.0409 41.647C19.6211 41.4652 19.167 41.3757 18.7094 41.3846C18.2519 41.3934 17.8016 41.5003 17.3891 41.6982C17.1539 41.8209 16.8927 41.8855 16.6273 41.8864C15.4065 41.8864 14.4168 40.5044 14.4168 38.7995C14.4097 38.1419 14.5684 37.493 14.8784 36.9127Z" fill="#F2F2F2"/>
<path d="M78.1751 151.174L77.8689 151.48C77.8689 151.48 77.971 154.843 78.073 155.556C78.1751 156.27 78.5834 157.493 78.2772 158.41C77.971 159.327 77.8689 160.041 77.971 160.142C78.073 160.244 77.8689 160.652 77.8689 160.652L78.6855 160.142L80.0124 157.085L79.3999 153.824L78.1751 151.174Z" fill="#04C5CF"/>
<path opacity="0.1" d="M78.1751 151.174L77.8689 151.48C77.8689 151.48 77.971 154.843 78.073 155.556C78.1751 156.27 78.5834 157.493 78.2772 158.41C77.971 159.327 77.8689 160.041 77.971 160.142C78.073 160.244 77.8689 160.652 77.8689 160.652L78.6855 160.142L80.0124 157.085L79.3999 153.824L78.1751 151.174Z" fill="black"/>
<path d="M83.5848 182.869C83.5848 182.869 83.5848 181.748 83.3807 181.544C83.1765 181.34 82.8703 180.627 82.462 180.627C82.0537 180.627 80.6248 181.035 80.6248 181.137C80.6364 181.455 80.5661 181.77 80.4206 182.054C80.2165 182.359 79.0937 183.582 80.2165 183.786C80.5898 183.847 80.9715 183.834 81.3395 183.747C81.7075 183.659 82.0544 183.499 82.36 183.277C82.462 183.175 82.8703 183.073 82.9724 183.175C83.0744 183.277 83.5848 182.869 83.5848 182.869Z" fill="#04C5CF"/>
<path d="M86.4427 181.035L87.0552 182.156C87.0552 182.156 87.2593 183.175 87.5655 183.277H87.8717C87.8717 183.277 88.1779 184.398 88.8924 184.296C89.6069 184.194 90.4235 183.786 90.4235 183.582C90.4235 183.379 90.4235 182.767 90.1172 182.563C89.6879 182.213 89.279 181.839 88.8924 181.442L88.3821 180.933L86.4427 181.035Z" fill="#04C5CF"/>
<path d="M78.6093 143.703C78.4129 143.803 78.2434 143.949 78.1151 144.128C77.9868 144.307 77.9034 144.514 77.872 144.732C77.8152 145.46 78.5356 146.146 78.3039 146.838C78.1723 147.231 77.7625 147.485 77.6445 147.883C77.5824 148.2 77.629 148.528 77.7767 148.815C77.9379 149.209 78.1341 149.588 78.363 149.947C78.7932 150.621 79.3532 151.261 79.4682 152.052C79.5001 152.191 79.4986 152.335 79.464 152.473C79.4294 152.61 79.3626 152.738 79.269 152.845C79.4762 152.688 79.7132 152.576 79.9655 152.514C81.0087 152.166 81.9778 151.627 82.8235 150.925C83.1307 150.709 83.362 150.402 83.4844 150.048C83.6401 149.421 83.1642 148.795 83.2098 148.151C83.239 147.74 83.477 147.376 83.6117 146.986C83.7288 146.598 83.7661 146.19 83.7214 145.787C83.6766 145.383 83.5508 144.993 83.3513 144.64C83.1861 144.298 82.953 143.993 82.6662 143.744C82.3794 143.495 82.0448 143.307 81.6828 143.191C81.126 143.062 80.5451 143.078 79.9967 143.24C79.5176 143.339 79.0519 143.495 78.6093 143.703Z" fill="#2F2E41"/>
<path d="M79.184 149.355C79.4087 148.938 79.7416 148.589 80.1476 148.344C80.5537 148.099 81.0181 147.968 81.4923 147.964C83.1255 147.964 82.8192 147.862 82.8192 147.862L82.3089 149.9L81.2882 150.919L79.184 149.355Z" fill="#04C5CF"/>
<path d="M79.6041 147.2C79.6041 147.2 80.5227 148.728 79.9103 149.34C79.2978 149.951 79.6041 150.563 79.7061 150.665C79.8082 150.766 82.6661 150.97 82.6661 150.97L82.7682 149.544L83.0744 148.321C83.0744 148.321 81.4413 148.015 81.6454 147.301C81.8496 146.588 79.6041 147.2 79.6041 147.2Z" fill="#FBBEBE"/>
<path opacity="0.1" d="M79.6041 147.2C79.6041 147.2 80.5227 148.728 79.9103 149.34C79.2978 149.951 79.6041 150.563 79.7061 150.665C79.8082 150.766 82.6661 150.97 82.6661 150.97L82.7682 149.544L83.0744 148.321C83.0744 148.321 81.4413 148.015 81.6454 147.301C81.8496 146.588 79.6041 147.2 79.6041 147.2Z" fill="black"/>
<path d="M86.7477 161.671C86.6386 162.021 86.5023 162.362 86.34 162.69C86.2381 162.792 85.9324 161.977 85.9324 161.977L86.2381 161.264L86.7477 161.671Z" fill="#FBBEBE"/>
<path d="M85.5751 157.034L85.9833 159.378H79.8592L80.1654 157.034H85.5751Z" fill="#FBBEBE"/>
<path d="M80.7268 148.015C81.7979 148.015 82.6661 147.148 82.6661 146.079C82.6661 145.009 81.7979 144.142 80.7268 144.142C79.6557 144.142 78.7875 145.009 78.7875 146.079C78.7875 147.148 79.6557 148.015 80.7268 148.015Z" fill="#FBBEBE"/>
<path d="M81.1351 150.053C81.1351 150.053 80.0124 150.155 80.0124 149.951C80.0124 149.747 79.9103 149.136 79.7061 149.238C79.502 149.34 78.1751 149.442 78.2772 149.747C78.3792 150.053 78.5834 150.665 78.3792 150.665C78.291 150.683 78.2073 150.718 78.1334 150.77C78.0594 150.821 77.9966 150.887 77.9489 150.963C77.9011 151.039 77.8694 151.124 77.8557 151.213C77.8419 151.302 77.8464 151.393 77.8689 151.48C77.971 151.989 79.0937 155.047 79.0937 155.047C79.0937 155.047 79.1958 156.066 79.502 156.372C79.6266 156.532 79.6942 156.729 79.6942 156.932C79.6942 157.135 79.6266 157.332 79.502 157.493C79.2979 157.697 80.0124 157.9 80.3186 158.308C80.6248 158.716 82.9724 158.41 83.0745 158.308C83.1765 158.206 85.6262 158.206 85.8303 158.002C86.0345 157.799 85.7283 157.187 85.7283 157.187C85.7283 157.187 85.6262 156.27 85.7283 155.964C85.8303 155.658 85.32 150.665 85.0138 150.359C84.7076 150.053 85.9324 149.136 85.9324 149.136C85.9324 149.136 85.7283 148.321 84.4014 148.219C84.4014 148.219 83.9931 147.607 83.5848 147.607C83.1765 147.607 82.29 148.081 82.29 148.081C82.29 148.081 82.0537 149.442 81.7475 149.544C81.5055 149.662 81.2954 149.837 81.1351 150.053Z" fill="#04C5CF"/>
<path d="M85.2179 148.83L85.9324 149.136C85.9324 149.136 87.9738 155.455 87.7696 156.677C87.5655 157.9 87.0551 162.079 86.7489 162.079C86.4427 162.079 85.8303 161.467 85.8303 161.467V160.448C85.8303 160.244 85.5241 159.633 85.7282 159.633C85.9324 159.633 86.2386 159.429 86.0344 159.225C85.8303 159.021 85.6262 158.716 85.8303 158.41C86.0344 158.104 86.1365 158.002 86.0344 157.697C85.9324 157.391 85.7282 157.085 85.9324 156.881C86.1365 156.677 85.422 155.658 85.422 155.658L84.2993 151.174L84.5034 149.34L85.2179 148.83Z" fill="#04C5CF"/>
<path d="M85.6262 158.512C85.6262 158.512 81.7476 158.206 81.2372 158.206C80.7269 158.206 79.5819 157.726 79.5819 157.726C79.5819 157.726 76.6441 160.652 77.6648 165.442C78.6855 170.232 78.8896 176.143 79.502 177.875C79.9182 179.111 80.2591 180.37 80.5227 181.646C80.5227 181.646 81.5434 179.812 83.4827 181.85C83.4827 181.85 83.6869 180.321 83.3807 179.71C83.0744 179.098 82.6662 175.837 82.6662 175.837C82.6662 175.837 81.9517 170.64 81.9517 170.028C81.9517 169.417 81.5434 164.219 81.6455 164.117C81.7476 164.015 82.2579 168.092 82.36 168.805C82.462 169.518 82.7682 175.022 83.0745 175.633C83.3807 176.245 84.8096 181.137 85.6262 181.442C86.4428 181.748 89.1986 181.34 89.0966 181.137C88.9945 180.933 88.28 179.812 88.0759 179.506L87.2593 178.283L85.32 171.659L86.2386 163.608C86.2386 163.608 86.749 158.41 85.6262 158.512Z" fill="#2F2E41"/>
<path d="M81.9082 145.824H79.4212C79.3157 145.824 79.2136 145.786 79.1334 145.718C79.0532 145.649 79.0001 145.554 78.9836 145.45L78.7365 143.887H82.6151L82.2683 145.532C82.2509 145.614 82.2057 145.688 82.1401 145.742C82.0745 145.795 81.9926 145.824 81.9082 145.824Z" fill="#2F2E41"/>
<path d="M210.083 145.341H214.006V150.938C213.491 150.938 212.981 150.837 212.505 150.64C212.029 150.443 211.596 150.155 211.232 149.791C210.867 149.427 210.578 148.995 210.381 148.52C210.184 148.044 210.083 147.535 210.083 147.02V145.341Z" fill="#2F2E41"/>
<path d="M207.794 178.13L207.513 179.53H209.475L209.569 178.13H207.794Z" fill="#FBBEBE"/>
<path d="M207.794 179.25C207.794 179.25 207.42 178.97 207.233 179.157C207.046 179.343 206.392 182.981 206.299 183.075C206.205 183.168 203.402 184.567 204.056 184.66C204.71 184.754 207.233 184.847 207.607 184.66C207.98 184.474 209.008 182.701 209.008 182.701V184.287H209.195C209.195 184.287 209.382 182.608 209.849 182.142C210.316 181.675 209.475 180.089 209.475 180.089C209.475 180.089 209.662 179.063 209.569 179.063C209.475 179.063 207.794 179.25 207.794 179.25Z" fill="#04C5CF"/>
<path d="M213.586 177.151L213.306 178.55H215.268L215.361 177.151H213.586Z" fill="#A0616A"/>
<path d="M211.344 168.056C211.344 168.056 212.278 170.854 212.465 171.134C212.652 171.414 213.306 176.638 213.306 176.638C213.306 176.638 212.652 177.664 213.493 177.757C214.333 177.851 213.96 177.571 214.52 177.757C214.673 177.815 214.836 177.836 214.998 177.82C215.16 177.804 215.317 177.751 215.455 177.664C215.455 177.664 215.735 177.104 215.548 176.918C215.361 176.731 215.735 171.88 215.735 171.88L215.174 170.201L214.707 164.884C214.707 164.884 215.268 163.485 214.987 163.112C214.707 162.739 213.773 163.392 213.773 163.392L211.344 168.056Z" fill="#2F2E41"/>
<path d="M210.129 160.78C210.129 160.78 209.849 163.765 209.662 163.951C209.475 164.138 207.42 169.362 207.42 169.362C207.42 169.362 206.859 170.015 207.046 172.44C207.233 174.866 207.7 177.291 207.7 177.291C207.7 177.291 207.326 178.69 207.98 178.69C208.634 178.69 208.915 178.317 209.195 178.597C209.475 178.877 209.662 178.597 209.755 178.41C209.849 178.224 210.223 177.571 210.223 177.384C210.223 177.198 210.596 172.44 210.596 172.44C210.596 172.44 213.679 165.631 213.96 165.257C214.24 164.884 215.828 162.832 215.735 161.433L210.129 160.78Z" fill="#2F2E41"/>
<path d="M212.465 148.186C213.548 148.186 214.427 147.309 214.427 146.227C214.427 145.145 213.548 144.268 212.465 144.268C211.381 144.268 210.503 145.145 210.503 146.227C210.503 147.309 211.381 148.186 212.465 148.186Z" fill="#FBBEBE"/>
<path d="M212.091 147.907C212.091 147.907 212.839 149.586 212.932 150.052C213.025 150.519 214.801 149.119 214.801 149.119C214.801 149.119 213.866 147.533 214.147 146.787L212.091 147.907Z" fill="#E2ABAB"/>
<path d="M215.081 148.839C215.081 148.839 213.679 147.813 212.652 149.959C211.624 152.104 211.344 152.011 211.344 152.011C211.344 152.011 210.129 152.384 210.503 154.996C210.877 157.608 209.288 161.06 209.942 161.246C210.596 161.433 216.669 162.459 216.669 161.713C216.669 160.966 216.109 158.074 216.576 156.302C217.043 154.53 215.922 148.373 215.081 148.839Z" fill="#3F3D56"/>
<path d="M213.679 149.306C213.679 149.306 212.558 150.985 212.652 152.291C212.745 153.597 212.745 154.436 212.745 154.436C212.745 154.436 210.877 163.392 211.25 163.392C211.624 163.392 212.745 163.858 212.839 163.578C212.932 163.298 215.268 157.608 215.268 157.608C215.268 157.608 215.828 151.918 215.174 150.612C214.52 149.306 213.679 149.306 213.679 149.306Z" fill="#3F3D56"/>
<path d="M211.437 163.112C211.437 163.112 210.503 166.283 211.811 166.377C213.118 166.47 212.371 163.298 212.371 163.298L211.437 163.112Z" fill="#FBBEBE"/>
<path d="M213.924 177.824C213.924 177.824 213.597 177.579 213.433 177.742C213.269 177.905 212.697 181.091 212.615 181.173C212.533 181.255 210.078 182.48 210.651 182.562C211.224 182.643 213.433 182.725 213.76 182.562C214.087 182.398 214.987 180.846 214.987 180.846V182.235H215.151C215.151 182.235 215.315 180.765 215.724 180.356C216.133 179.948 215.396 178.559 215.396 178.559C215.396 178.559 215.56 177.66 215.478 177.66C215.396 177.66 213.924 177.824 213.924 177.824Z" fill="#04C5CF"/>
<path d="M211.495 144.944C211.557 144.868 211.639 144.81 211.731 144.777C211.818 144.761 211.907 144.769 211.989 144.799C212.575 144.969 213.083 145.338 213.426 145.842C213.493 145.971 213.593 146.079 213.716 146.155C213.796 146.179 213.874 146.209 213.95 146.244C214.169 146.388 214.038 146.722 213.913 146.952C213.591 147.542 213.443 148.21 213.484 148.881C213.482 148.997 213.516 149.112 213.583 149.208C213.688 149.305 213.827 149.36 213.971 149.362C214.424 149.419 214.881 149.444 215.338 149.435C215.785 149.427 216.281 149.364 216.571 149.024C216.883 148.658 216.834 148.098 216.631 147.663C216.428 147.227 216.099 146.863 215.865 146.444C215.643 146.001 215.468 145.536 215.342 145.057C215.18 144.445 214.919 143.864 214.57 143.336C214.393 143.073 214.165 142.849 213.898 142.679C213.631 142.508 213.332 142.394 213.019 142.343C212.17 142.249 211.387 142.77 210.705 143.283C209.939 143.859 209.124 144.572 209.062 145.527C209.013 146.301 209.478 147.002 209.721 147.738C210.097 148.876 209.939 150.111 209.778 151.298C210.47 150.884 211.253 150.309 211.207 149.506C211.177 148.963 210.767 148.53 210.512 148.051C209.81 146.731 210.61 145.847 211.495 144.944Z" fill="#2F2E41"/>
<path d="M239.085 154.478C239.679 153.443 239.986 152.269 239.974 151.077C239.974 148.003 238.068 145.511 235.716 145.511C233.364 145.511 231.458 148.003 231.458 151.077C231.446 152.269 231.753 153.443 232.347 154.478C231.764 155.517 231.458 156.688 231.458 157.879C231.458 159.07 231.764 160.241 232.347 161.281C231.764 162.32 231.458 163.491 231.458 164.682C231.458 165.873 231.764 167.044 232.347 168.083C231.764 169.122 231.458 170.293 231.458 171.484C231.458 172.675 231.764 173.847 232.347 174.886C231.753 175.921 231.446 177.095 231.458 178.287C231.458 181.361 233.364 183.853 235.716 183.853C238.068 183.853 239.974 181.361 239.974 178.287C239.986 177.095 239.679 175.92 239.085 174.886C239.668 173.847 239.974 172.675 239.974 171.484C239.974 170.293 239.668 169.122 239.085 168.083C239.668 167.044 239.974 165.873 239.974 164.682C239.974 163.491 239.668 162.32 239.085 161.281C239.668 160.241 239.974 159.07 239.974 157.879C239.974 156.688 239.668 155.517 239.085 154.478Z" fill="#3F3D56"/>
<path d="M235.716 149.84C238.068 149.84 239.974 147.348 239.974 144.274C239.974 141.2 238.068 138.708 235.716 138.708C233.364 138.708 231.458 141.2 231.458 144.274C231.458 147.348 233.364 149.84 235.716 149.84Z" fill="#3F3D56"/>
<path d="M235.716 143.037C238.068 143.037 239.974 140.546 239.974 137.472C239.974 134.398 238.068 131.906 235.716 131.906C233.364 131.906 231.458 134.398 231.458 137.472C231.458 140.546 233.364 143.037 235.716 143.037Z" fill="#3F3D56"/>
<path d="M251.656 90.9196C252.238 90.1801 252.768 89.4013 253.242 88.5889L242.053 86.7542L254.154 86.844C255.315 84.3222 255.948 81.5904 256.015 78.8158C256.082 76.0412 255.582 73.2822 254.544 70.7075L238.309 79.1163L253.281 68.1276C251.879 65.7074 249.992 63.6015 247.738 61.9411C245.485 60.2808 242.913 59.1015 240.184 58.4767C237.454 57.852 234.625 57.7951 231.872 58.3098C229.119 58.8244 226.502 59.8995 224.184 61.468C221.866 63.0366 219.895 65.065 218.396 67.4269C216.897 69.7888 215.901 72.4336 215.471 75.1965C215.04 77.9595 215.184 80.7814 215.893 83.4864C216.602 86.1915 217.862 88.7218 219.593 90.9196C218.686 92.0705 217.906 93.3157 217.267 94.6336L231.791 102.167L216.304 96.978C215.217 100.187 214.948 103.617 215.523 106.956C216.097 110.295 217.496 113.439 219.593 116.102C217.227 119.106 215.755 122.715 215.345 126.514C214.936 130.314 215.605 134.153 217.278 137.59C218.95 141.028 221.558 143.927 224.802 145.955C228.047 147.983 231.797 149.058 235.625 149.058C239.452 149.058 243.203 147.983 246.447 145.955C249.692 143.927 252.299 141.028 253.972 137.59C255.644 134.153 256.314 130.314 255.904 126.514C255.495 122.715 254.023 119.106 251.656 116.102C254.484 112.513 256.021 108.078 256.021 103.511C256.021 98.9439 254.484 94.5094 251.656 90.9196Z" fill="#F2F2F2"/>
<path d="M215.228 103.511C215.221 108.079 216.759 112.516 219.593 116.102C217.227 119.106 215.755 122.715 215.345 126.514C214.936 130.314 215.605 134.153 217.278 137.59C218.95 141.028 221.558 143.927 224.802 145.955C228.047 147.983 231.797 149.058 235.625 149.058C239.452 149.058 243.203 147.983 246.447 145.955C249.692 143.927 252.299 141.028 253.972 137.59C255.644 134.153 256.314 130.314 255.904 126.514C255.495 122.715 254.023 119.106 251.656 116.102C254.39 112.637 215.228 101.225 215.228 103.511Z" fill="#F2F2F2"/>
<path d="M251.656 90.9196C252.238 90.1801 252.768 89.4013 253.242 88.5889L242.053 86.7542L254.154 86.844C255.315 84.3222 255.948 81.5904 256.015 78.8158C256.082 76.0412 255.582 73.2822 254.544 70.7075L238.309 79.1163L253.281 68.1276C251.879 65.7074 249.992 63.6015 247.738 61.9411C245.485 60.2808 242.913 59.1015 240.184 58.4767C237.454 57.852 234.625 57.7951 231.872 58.3098C229.119 58.8244 226.502 59.8995 224.184 61.468C221.866 63.0366 219.895 65.065 218.396 67.4269C216.897 69.7888 215.901 72.4336 215.471 75.1965C215.04 77.9595 215.184 80.7814 215.893 83.4864C216.602 86.1915 217.862 88.7218 219.593 90.9196C218.686 92.0705 217.906 93.3157 217.267 94.6336L231.791 102.167L216.304 96.978C215.217 100.187 214.948 103.617 215.523 106.956C216.097 110.295 217.496 113.439 219.593 116.102C217.227 119.106 215.755 122.715 215.345 126.514C214.936 130.314 215.605 134.153 217.278 137.59C218.95 141.028 221.558 143.927 224.802 145.955C228.047 147.983 231.797 149.058 235.625 149.058C239.452 149.058 243.203 147.983 246.447 145.955C249.692 143.927 252.299 141.028 253.972 137.59C255.644 134.153 256.314 130.314 255.904 126.514C255.495 122.715 254.023 119.106 251.656 116.102C254.484 112.513 256.021 108.078 256.021 103.511C256.021 98.9439 254.484 94.5094 251.656 90.9196Z" fill="#57B894"/>
<path opacity="0.1" d="M215.228 103.511C215.221 108.079 216.759 112.516 219.593 116.102C217.227 119.106 215.755 122.715 215.345 126.514C214.936 130.314 215.605 134.153 217.278 137.59C218.95 141.028 221.558 143.927 224.802 145.955C228.047 147.983 231.797 149.058 235.625 149.058C239.452 149.058 243.203 147.983 246.447 145.955C249.692 143.927 252.299 141.028 253.972 137.59C255.644 134.153 256.314 130.314 255.904 126.514C255.495 122.715 254.023 119.106 251.656 116.102C254.39 112.637 215.228 101.225 215.228 103.511Z" fill="black"/>
<path d="M24.7338 154.478C25.3275 153.443 25.6343 152.269 25.6226 151.077C25.6226 148.003 23.7161 145.511 21.3644 145.511C19.0127 145.511 17.1063 148.003 17.1063 151.077C17.0945 152.269 17.4013 153.443 17.995 154.478C17.4123 155.517 17.1063 156.688 17.1063 157.879C17.1063 159.07 17.4123 160.241 17.995 161.281C17.4123 162.32 17.1063 163.491 17.1063 164.682C17.1063 165.873 17.4123 167.044 17.995 168.083C17.4123 169.122 17.1063 170.293 17.1063 171.484C17.1063 172.675 17.4123 173.847 17.995 174.886C17.4013 175.921 17.0945 177.095 17.1063 178.287C17.1063 181.361 19.0127 183.853 21.3644 183.853C23.7161 183.853 25.6226 181.361 25.6226 178.287C25.6343 177.095 25.3275 175.92 24.7338 174.886C25.3166 173.847 25.6226 172.675 25.6226 171.484C25.6226 170.293 25.3166 169.122 24.7338 168.083C25.3166 167.044 25.6226 165.873 25.6226 164.682C25.6226 163.491 25.3166 162.32 24.7338 161.281C25.3166 160.241 25.6226 159.07 25.6226 157.879C25.6226 156.688 25.3166 155.517 24.7338 154.478Z" fill="#3F3D56"/>
<path d="M21.3644 149.84C23.7161 149.84 25.6226 147.348 25.6226 144.274C25.6226 141.2 23.7161 138.708 21.3644 138.708C19.0127 138.708 17.1063 141.2 17.1063 144.274C17.1063 147.348 19.0127 149.84 21.3644 149.84Z" fill="#3F3D56"/>
<path d="M21.3644 143.037C23.7161 143.037 25.6226 140.546 25.6226 137.472C25.6226 134.398 23.7161 131.906 21.3644 131.906C19.0127 131.906 17.1063 134.398 17.1063 137.472C17.1063 140.546 19.0127 143.037 21.3644 143.037Z" fill="#3F3D56"/>
<path d="M37.3048 90.9196C37.8865 90.1801 38.4164 89.4013 38.8906 88.5889L27.7019 86.7542L39.8027 86.844C40.9636 84.3222 41.5968 81.5904 41.6638 78.8158C41.7308 76.0412 41.23 73.2822 40.1922 70.7075L23.9576 79.1163L38.9297 68.1276C37.527 65.7074 35.6402 63.6015 33.3869 61.9411C31.1336 60.2808 28.5619 59.1015 25.8322 58.4767C23.1025 57.852 20.2732 57.7951 17.5205 58.3098C14.7678 58.8244 12.1508 59.8995 9.83236 61.468C7.51396 63.0366 5.54387 65.065 4.04483 67.4269C2.5458 69.7888 1.54992 72.4336 1.11925 75.1965C0.68857 77.9595 0.832319 80.7814 1.54154 83.4864C2.25076 86.1915 3.51026 88.7218 5.24157 90.9196C4.33478 92.0705 3.55489 93.3157 2.91542 94.6336L17.439 102.167L1.9528 96.978C0.865437 100.187 0.596714 103.617 1.17095 106.956C1.74519 110.295 3.14426 113.439 5.24157 116.102C2.87514 119.106 1.40305 122.715 0.993619 126.514C0.584184 130.314 1.25392 134.153 2.92627 137.59C4.59861 141.028 7.20606 143.927 10.4505 145.955C13.6949 147.983 17.4454 149.058 21.2732 149.058C25.1009 149.058 28.8514 147.983 32.0958 145.955C35.3403 143.927 37.9477 141.028 39.6201 137.59C41.2924 134.153 41.9622 130.314 41.5527 126.514C41.1433 122.715 39.6712 119.106 37.3048 116.102C40.1324 112.513 41.6697 108.078 41.6697 103.511C41.6697 98.9439 40.1325 94.5094 37.3048 90.9196Z" fill="#F2F2F2"/>
<path d="M0.876611 103.511C0.869569 108.079 2.40763 112.516 5.24158 116.102C2.87515 119.106 1.40306 122.715 0.993626 126.514C0.584191 130.314 1.25393 134.153 2.92628 137.59C4.59862 141.028 7.20607 143.927 10.4505 145.955C13.695 147.983 17.4454 149.058 21.2732 149.058C25.1009 149.058 28.8514 147.983 32.0958 145.955C35.3403 143.927 37.9477 141.028 39.6201 137.59C41.2924 134.153 41.9622 130.314 41.5527 126.514C41.1433 122.715 39.6712 119.106 37.3048 116.102C40.0385 112.637 0.876611 101.225 0.876611 103.511Z" fill="#F2F2F2"/>
<path d="M37.3048 90.9196C37.8865 90.1801 38.4164 89.4013 38.8906 88.5889L27.7019 86.7542L39.8027 86.844C40.9636 84.3222 41.5968 81.5904 41.6638 78.8158C41.7308 76.0412 41.23 73.2822 40.1922 70.7075L23.9576 79.1163L38.9297 68.1276C37.527 65.7074 35.6402 63.6015 33.3869 61.9411C31.1336 60.2808 28.5619 59.1015 25.8322 58.4767C23.1025 57.852 20.2732 57.7951 17.5205 58.3098C14.7678 58.8244 12.1508 59.8995 9.83236 61.468C7.51396 63.0366 5.54387 65.065 4.04483 67.4269C2.5458 69.7888 1.54992 72.4336 1.11925 75.1965C0.68857 77.9595 0.832319 80.7814 1.54154 83.4864C2.25076 86.1915 3.51026 88.7218 5.24157 90.9196C4.33478 92.0705 3.55489 93.3157 2.91542 94.6336L17.439 102.167L1.9528 96.978C0.865437 100.187 0.596714 103.617 1.17095 106.956C1.74519 110.295 3.14426 113.439 5.24157 116.102C2.87514 119.106 1.40305 122.715 0.993619 126.514C0.584184 130.314 1.25392 134.153 2.92627 137.59C4.59861 141.028 7.20606 143.927 10.4505 145.955C13.6949 147.983 17.4454 149.058 21.2732 149.058C25.1009 149.058 28.8514 147.983 32.0958 145.955C35.3403 143.927 37.9477 141.028 39.6201 137.59C41.2924 134.153 41.9622 130.314 41.5527 126.514C41.1433 122.715 39.6712 119.106 37.3048 116.102C40.1324 112.513 41.6697 108.078 41.6697 103.511C41.6697 98.9439 40.1325 94.5094 37.3048 90.9196Z" fill="#57B894"/>
<path opacity="0.1" d="M0.876611 103.511C0.869569 108.079 2.40763 112.516 5.24158 116.102C2.87515 119.106 1.40306 122.715 0.993626 126.514C0.584191 130.314 1.25393 134.153 2.92628 137.59C4.59862 141.028 7.20607 143.927 10.4505 145.955C13.695 147.983 17.4454 149.058 21.2732 149.058C25.1009 149.058 28.8514 147.983 32.0958 145.955C35.3403 143.927 37.9477 141.028 39.6201 137.59C41.2924 134.153 41.9622 130.314 41.5527 126.514C41.1433 122.715 39.6712 119.106 37.3048 116.102C40.0385 112.637 0.876611 101.225 0.876611 103.511Z" fill="black"/>
<path d="M147.866 89.8022L137.746 99.9071L132.951 95.1196L131.084 96.9835L137.74 103.629L149.733 91.6661L147.866 89.8022Z" fill="#57B894"/>
<path d="M180.083 66.7537L169.962 76.8586L165.167 72.0711L163.3 73.935L169.956 80.5803L181.95 68.6176L180.083 66.7537Z" fill="#57B894"/>
</g>
<defs>
<clipPath id="clip0_2_346">
<rect width="255.398" height="193" fill="white" transform="translate(0.876587)"/>
</clipPath>
</defs>
</svg>
