<svg width="40" height="40" viewBox="0 0 40 40" fill="none" xmlns="http://www.w3.org/2000/svg">
<path d="M33.493 15.9305C35.868 15.9305 40 17.1962 40 19.9305C40 22.743 35.868 24.4305 33.493 24.4305H25.3958L18.4167 38.6727C18.0208 39.454 17.2847 39.9305 16.4861 39.9305H14.5C13.7639 39.9305 13.2292 38.7274 13.4305 37.9305L18.4167 24.4305L7.99999 24.4305L4.77777 29.4305C4.56943 29.743 4.2361 29.9305 3.88888 29.9305H0.972211C0.430544 29.9305 -1.12823e-05 29.4384 -1.12823e-05 28.8368C-1.12823e-05 28.7352 0.0138776 28.6337 0.0347109 28.5321L2.22221 19.9305L0.0347109 11.329C0.00693309 11.2274 -1.12823e-05 11.1259 -1.12823e-05 11.0243C-1.12823e-05 10.4149 0.437488 9.93054 0.972211 9.93054H3.88888C4.2361 9.93054 4.56943 10.118 4.77777 10.4305L7.99999 15.9305H18.4167L13.4305 1.93054C13.2222 1.13367 13.7639 -0.069456 14.5 -0.069456L16.4861 -0.0694567C17.2847 -0.0694567 18.0208 0.414918 18.4167 1.18836L25.3958 15.9305H33.493Z" fill="currentColor"/>
</svg>
