<svg width="60" height="60" viewBox="0 0 60 60" fill="none" xmlns="http://www.w3.org/2000/svg">
<g clip-path="url(#clip0_130_518)">
<path d="M53.88 21.84V38.676C53.772 39 53.64 39.336 53.52 39.66C52.548 42.072 51.3 44.34 49.692 46.368C49.116 47.088 48.42 47.532 47.484 47.268C47.196 47.184 46.908 47.016 46.668 46.812C45.948 46.212 45.312 45.492 44.58 44.904C43.86 44.388 43.044 45.264 43.548 45.948C43.776 46.272 44.04 46.56 44.304 46.848C44.82 47.4 45.36 47.928 45.864 48.492C46.596 49.296 46.56 49.776 45.708 50.448C44.172 51.648 42.528 52.656 40.764 53.46C39.912 53.856 39.048 54.192 38.172 54.492H21.744C19.116 53.556 16.644 52.188 14.376 50.484C13.5 49.872 13.488 49.272 14.22 48.468C14.904 47.712 15.624 46.992 16.308 46.236C16.476 46.056 16.656 45.792 16.644 45.564C16.644 45.324 16.476 45.036 16.296 44.88C16.032 44.652 15.684 44.712 15.42 44.952C14.82 45.492 14.232 46.056 13.632 46.596C13.416 46.788 13.2 46.98 12.948 47.124C12.144 47.556 11.316 47.4 10.692 46.692C9.48 45.324 8.52 43.764 7.668 42.144C7.032 40.932 6.492 39.696 6.06 38.412V22.116C6.42 20.94 6.888 19.92 7.776 17.964C8.424 17.4 8.652 16.968 9.024 16.8C9.024 16.644 8.832 16.524 9.024 16.2C9.66 15.144 10.332 14.352 10.5 14.208C11.136 13.668 11.46 13.392 11.88 13.356C12.384 13.32 12.888 13.56 13.38 14.052C14.004 14.676 14.616 15.324 15.252 15.936C16.2 16.956 17.244 15.708 16.44 14.772C15.876 14.124 15.288 13.5 14.7 12.876C13.98 12.156 13.152 11.316 14.268 10.512C17.16 8.22001 20.316 6.43201 23.796 5.48401H36.204C37.776 5.90401 39.3 6.49201 40.788 7.21201C42.552 8.07601 44.208 9.14401 45.732 10.404C46.584 11.112 46.608 11.58 45.84 12.408C45.24 13.056 44.628 13.704 44.028 14.352C43.572 14.856 43.056 15.564 43.668 16.14C43.956 16.392 44.376 16.392 44.724 16.068C45.264 15.564 45.768 15.012 46.284 14.496C46.464 14.304 46.668 14.136 46.836 13.944C47.58 13.08 48.888 13.2 49.512 14.064C50.424 15.312 51.348 16.56 52.104 17.892C52.824 19.152 53.424 20.472 53.892 21.828L53.88 21.84Z" fill="url(#paint0_linear_130_518)"/>
<path d="M36.144 48.2041C35.988 48.2041 35.832 48.1681 35.676 48.1081C34.98 47.8441 34.296 47.5681 33.6 47.3041C33.108 47.1121 32.628 46.9201 32.136 46.7281C32.016 46.6801 31.896 46.6441 31.776 46.5961C31.524 47.1241 31.068 47.7481 30.168 47.7481C30.144 47.7481 30.12 47.7481 30.084 47.7481C29.22 47.7121 28.776 47.1121 28.512 46.5601C28.392 46.5961 28.284 46.6441 28.176 46.6801C27.732 46.8601 27.276 47.0401 26.832 47.2201C26.136 47.5081 25.404 47.7961 24.696 48.0841C24.516 48.1561 24.348 48.1921 24.168 48.1921C23.58 48.1921 23.1 47.8081 22.968 47.2201C22.86 46.7161 23.028 46.2841 23.46 45.9001C23.88 45.5401 24.288 45.1681 24.696 44.7961C25.416 44.1481 26.172 43.4881 26.928 42.8401C27.216 42.6001 27.276 42.4081 27.24 41.9641C27.144 40.7641 27.132 39.5401 27.132 38.3641C27.132 38.1601 27.132 37.9441 27.132 37.7401C27.132 36.6481 27.132 35.5561 27.132 34.4881C27.132 33.8761 27.132 33.2761 27.132 32.6641C27.132 32.2081 26.988 31.4281 26.052 31.4281C25.944 31.4281 25.824 31.4281 25.704 31.4641C25.332 31.5361 24.96 31.5961 24.6 31.6561C24.552 31.6561 24.504 31.6681 24.456 31.6801C24.312 32.4241 24.036 32.9881 23.196 33.0841C23.136 33.0841 23.088 33.0841 23.028 33.0841C22.368 33.0841 22.008 32.6641 21.768 32.1841C21.48 32.2441 21.192 32.3161 20.904 32.3761C20.904 32.5201 20.904 32.6521 20.904 32.7961C20.868 33.5761 20.412 34.0921 19.68 34.2001C19.62 34.2001 19.56 34.2121 19.5 34.2121C18.888 34.2121 18.324 33.8041 18.132 33.2281C18.096 33.1201 18.072 33.0121 18.048 32.9161C18.048 32.9161 17.4 33.0361 17.208 33.0841C17.088 33.8041 16.836 34.3321 16.008 34.4641C15.936 34.4761 15.852 34.4881 15.78 34.4881C15.18 34.4881 14.796 34.0921 14.532 33.6361C14.472 33.6481 14.412 33.6721 14.352 33.6841C13.836 33.8401 13.296 33.9961 12.756 34.1161C12.636 34.1401 12.444 34.1761 12.228 34.1761C11.964 34.1761 11.736 34.1161 11.544 34.0081C11.088 33.7441 10.908 33.1441 10.86 32.9641C10.764 32.5801 10.824 32.0401 11.64 31.6681C12.216 31.4041 12.804 31.1401 13.38 30.8761C14.448 30.3961 15.552 29.8921 16.632 29.3881C19.128 28.2361 21.636 27.0721 24.132 25.9081L26.34 24.8881C26.34 24.8881 26.34 24.8881 26.364 24.8881C26.424 24.8521 26.532 24.7921 26.664 24.7681C27 24.6961 27.156 24.6361 27.144 23.9161C27.096 21.2521 27.108 18.5521 27.132 15.9361V15.4801C27.132 14.2441 27.228 12.7921 27.804 11.3761C27.876 11.1961 27.972 11.0041 28.068 10.8361C28.572 9.96005 29.328 9.45605 30.144 9.45605C30.912 9.45605 31.644 9.90005 32.16 10.6921C32.76 11.6041 33.072 12.7081 33.108 14.0521C33.156 16.1281 33.168 18.2281 33.168 20.2561C33.168 20.9281 33.168 21.5881 33.168 22.2601V22.4761C33.168 23.0881 33.168 23.7241 33.156 24.3601C33.156 24.5281 33.156 24.5281 33.3 24.6001C36 25.8481 38.736 27.1201 41.388 28.3441C42.636 28.9201 43.884 29.5081 45.132 30.0841C45.804 30.3961 46.464 30.6961 47.136 31.0081C47.604 31.2241 48.072 31.4401 48.54 31.6561C49.464 32.0881 49.488 32.7601 49.356 33.2521C49.188 33.8161 48.624 34.2241 48.012 34.2241C47.892 34.2241 47.784 34.2121 47.676 34.1761C47.088 34.0201 46.488 33.8401 45.912 33.6721C45.84 33.6481 45.756 33.6241 45.684 33.6001C45.588 33.8041 45.456 34.0081 45.228 34.1401C44.94 34.2961 44.58 34.3921 44.22 34.3921C44.136 34.3921 44.064 34.3921 43.98 34.3801C43.38 34.3081 42.972 33.7801 42.972 33.0601C42.96 33.0601 42.948 33.0601 42.936 33.0601C42.66 33.0361 42.384 32.9761 42.108 32.9281C42.096 32.9881 42.072 33.0601 42.06 33.1201C41.856 33.7801 41.352 34.1761 40.692 34.1761C40.62 34.1761 40.56 34.1761 40.488 34.1641C39.804 34.0801 39.324 33.5401 39.276 32.7961C39.276 32.6521 39.276 32.4961 39.276 32.3521C39.276 32.3521 38.688 32.2321 38.424 32.1841C38.208 32.7121 37.728 33.0601 37.188 33.0601C37.116 33.0601 37.032 33.0601 36.96 33.0361C35.856 32.8321 35.748 32.0761 35.748 31.7521C35.748 31.6801 35.748 31.6321 35.748 31.6201C35.724 31.6081 35.652 31.5841 35.472 31.5721C35.196 31.5481 34.932 31.5121 34.668 31.4641C34.584 31.4521 34.5 31.4401 34.416 31.4281C34.344 31.4281 34.272 31.4161 34.2 31.4161C33.576 31.4161 33.192 31.8241 33.192 32.4721C33.192 33.7321 33.192 35.0041 33.18 36.2641C33.18 37.6201 33.18 39.0241 33.168 40.4161C33.168 41.1481 33.096 41.8681 33.048 42.4081C33.048 42.4681 33.048 42.4801 33.048 42.4801C33.048 42.4801 33.048 42.5041 33.12 42.5521C34.056 43.3561 34.992 44.1961 35.904 45.0001L36.588 45.6001C36.72 45.7201 36.852 45.8521 36.984 45.9721C37.68 46.6441 37.416 47.2801 37.26 47.5201C36.912 48.0721 36.492 48.1801 36.192 48.1801L36.144 48.2041Z" fill="#313B6B"/>
<path d="M58.188 28.236C57.636 28.236 57.096 28.236 56.556 28.236C55.524 28.236 55.248 27.996 55.092 26.94C54.852 25.188 54.456 23.484 53.88 21.84C53.412 20.484 52.812 19.164 52.092 17.904C51.324 16.572 50.4 15.324 49.5 14.076C48.876 13.212 47.568 13.092 46.824 13.956C46.656 14.148 46.452 14.328 46.272 14.508C45.756 15.036 45.252 15.576 44.712 16.08C44.364 16.404 43.944 16.404 43.656 16.152C43.056 15.576 43.56 14.868 44.016 14.364C44.616 13.704 45.228 13.068 45.828 12.42C46.596 11.592 46.572 11.124 45.72 10.416C44.196 9.15596 42.552 8.08796 40.776 7.22396C39.288 6.50396 37.764 5.91596 36.192 5.49596C35.076 5.19596 33.936 4.96796 32.772 4.83596C32.064 4.75196 31.884 4.53596 31.872 3.81596C31.86 3.11996 31.872 2.43596 31.848 1.73996C31.8 0.791963 30.972 0.0119629 30.06 0.0119629C29.136 0.0119629 28.332 0.743963 28.248 1.67996C28.212 2.19596 28.212 2.71196 28.212 3.22796C28.212 4.69196 28.212 4.70396 26.82 4.89596C25.788 5.02796 24.768 5.23196 23.784 5.49596C20.304 6.45596 17.136 8.23196 14.256 10.524C13.128 11.328 13.968 12.168 14.688 12.888C15.264 13.512 15.864 14.136 16.428 14.784C17.244 15.72 16.2 16.968 15.24 15.948C14.616 15.324 13.992 14.688 13.368 14.064C12.876 13.572 12.36 13.332 11.868 13.368C11.448 13.392 11.124 13.668 10.488 14.22C9.996 14.628 9.588 15.144 8.976 16.032C8.688 16.452 8.256 17.076 7.776 17.976C7.776 17.976 6.828 19.74 6.06 22.128C6.036 22.2 6.012 22.272 6.012 22.272C5.484 24.024 5.364 24.912 5.208 25.608C5.088 26.16 4.98 26.724 4.908 27.288C4.824 27.936 4.452 28.236 3.816 28.236C3.156 28.236 2.496 28.236 1.836 28.236C0.791999 28.248 0.0359993 29.04 0.0239993 30.12C0.0119993 31.128 0.803999 31.98 1.812 32.004C2.328 32.016 2.844 32.004 3.36 32.004C4.524 32.004 4.848 32.28 4.98 33.456C5.172 35.16 5.532 36.816 6.072 38.4C6.504 39.684 7.044 40.92 7.68 42.132C8.532 43.752 9.492 45.3 10.704 46.68C11.328 47.4 12.168 47.544 12.96 47.112C13.212 46.98 13.428 46.776 13.644 46.584C14.244 46.044 14.832 45.48 15.432 44.94C15.696 44.712 16.044 44.652 16.308 44.868C16.488 45.024 16.656 45.324 16.656 45.552C16.656 45.78 16.476 46.044 16.32 46.224C15.636 46.98 14.916 47.7 14.232 48.456C13.5 49.26 13.524 49.86 14.388 50.472C16.656 52.176 19.128 53.544 21.756 54.48C23.568 55.128 25.452 55.56 27.384 55.752C28.08 55.824 28.212 55.992 28.224 56.7C28.224 57.228 28.2 57.756 28.224 58.284C28.416 60.588 31.728 60.48 31.848 58.236C31.872 57.72 31.848 57.204 31.848 56.688C31.848 55.956 31.98 55.8 32.664 55.728C34.548 55.5 36.384 55.08 38.172 54.48C39.048 54.18 39.912 53.832 40.764 53.448C42.528 52.632 44.172 51.636 45.708 50.436C46.56 49.764 46.608 49.284 45.864 48.48C45.348 47.928 44.82 47.388 44.304 46.836C44.04 46.548 43.776 46.248 43.548 45.936C43.044 45.252 43.86 44.364 44.58 44.892C45.312 45.48 45.948 46.2 46.668 46.8C46.896 47.004 47.184 47.184 47.484 47.256C48.42 47.52 49.116 47.076 49.692 46.356C51.312 44.328 52.56 42.06 53.52 39.648C53.652 39.324 53.772 39 53.88 38.664C54.504 36.876 54.888 35.016 55.152 33.132C55.272 32.292 55.62 32.004 56.448 31.992C57.036 31.992 57.624 31.992 58.212 31.992C59.016 31.98 60.024 31.08 60 30.06C59.976 29.22 59.232 28.404 58.188 28.212V28.236ZM49.932 39.516C49.68 40.02 48.396 42.396 47.832 43.212C47.1 44.268 47.1 44.256 45.972 43.608C45.252 43.188 44.532 42.72 43.764 42.444C42.228 41.892 40.884 43.128 41.28 44.748C41.532 45.816 41.94 46.836 42.336 47.868C42.576 48.492 42.576 48.636 42.024 48.972C39.9 50.28 37.656 51.336 35.232 51.912C34.176 52.164 33.096 52.344 32.016 52.512C31.512 52.596 28.596 52.56 27.744 52.512C25.98 52.26 24.24 51.888 22.56 51.264C20.952 50.664 19.428 49.884 17.964 48.972C17.472 48.672 17.484 48.468 17.688 47.916C18.096 46.872 18.504 45.816 18.768 44.724C19.08 43.428 18.204 42.312 16.92 42.36C16.344 42.384 15.768 42.66 15.228 42.924C14.616 43.212 14.064 43.62 13.476 43.956C13.008 44.22 12.804 44.16 12.492 43.716C12.312 43.452 12.12 43.188 11.952 42.924C11.652 42.444 10.284 39.984 10.152 39.696C9.876 39.084 9.744 38.832 9.684 38.748C9.684 38.712 9.672 38.676 9.66 38.616C9.264 36.996 8.088 35.136 7.788 31.368C7.728 30.612 7.68 30.18 7.716 29.676C7.752 29.064 7.848 28.548 7.932 28.2C8.292 26.664 8.592 25.44 8.7 25.08C9.048 23.88 9.252 23.16 9.624 22.152C9.9 21.408 10.116 20.94 10.524 20.016C10.848 19.296 11.184 18.576 11.796 17.784C12.324 17.1 12.588 16.956 12.852 16.932C13.212 16.896 13.428 17.1 14.064 17.52C14.652 17.916 15.288 18.312 15.948 18.564C17.676 19.2 19.116 17.94 18.72 16.104C18.48 14.988 18.048 13.932 17.664 12.852C17.472 12.324 17.448 12.204 17.928 11.916C25.608 6.65996 34.44 6.71996 42.12 11.976C42.564 12.276 42.528 12.372 42.348 12.888C41.94 14.064 41.52 15.24 41.244 16.44C41.004 17.472 41.7 18.432 42.72 18.684C43.5 18.876 44.196 18.648 44.856 18.252C45.432 17.904 45.996 17.52 46.572 17.148C46.752 17.028 46.956 16.896 47.16 16.944C47.16 16.944 47.268 16.968 47.364 17.064C49.848 19.38 50.76 22.116 50.76 22.116C51.612 24.672 52.56 27.552 52.236 31.524C52.02 34.104 51.648 36.06 49.908 39.552L49.932 39.516Z" fill="#313B6B"/>
<path d="M30.132 10.0559C30.696 10.0559 31.26 10.3799 31.692 11.0399C32.292 11.9639 32.52 13.0199 32.544 14.0879C32.604 16.8239 32.604 19.5599 32.616 22.2959C32.616 22.9919 32.628 23.6759 32.604 24.3719C32.592 24.7559 32.712 24.9839 33.072 25.1519C37.02 26.9639 40.968 28.8119 44.904 30.6359C46.044 31.1639 47.184 31.6799 48.324 32.2079C48.804 32.4239 48.948 32.6999 48.828 33.1319C48.732 33.4559 48.384 33.6959 48.024 33.6959C47.952 33.6959 47.892 33.6959 47.82 33.6719C47.004 33.4559 46.2 33.2039 45.396 32.9759C45.228 33.2639 45.144 33.5759 44.952 33.6839C44.736 33.8039 44.472 33.8759 44.208 33.8759C44.148 33.8759 44.088 33.8759 44.04 33.8759C43.668 33.8279 43.512 33.4559 43.524 33.1079C43.524 32.6999 43.344 32.5919 42.984 32.5439C42.564 32.5079 42.144 32.3999 41.688 32.3039C41.628 32.5559 41.592 32.7839 41.52 32.9999C41.388 33.4199 41.088 33.6479 40.68 33.6479C40.632 33.6479 40.584 33.6479 40.536 33.6479C40.116 33.5999 39.84 33.2879 39.804 32.8079C39.78 32.5319 39.804 32.2559 39.804 31.9319C39.204 31.8119 38.64 31.7039 38.04 31.5839C37.992 31.7279 37.944 31.8479 37.896 31.9679C37.764 32.3159 37.476 32.5439 37.152 32.5439C37.104 32.5439 37.068 32.5439 37.02 32.5319C36.636 32.4599 36.252 32.2799 36.264 31.8239C36.276 31.2119 35.952 31.1039 35.484 31.0679C35.136 31.0439 34.8 30.9839 34.464 30.9239C34.368 30.9119 34.272 30.8999 34.176 30.8999C33.276 30.8999 32.616 31.5479 32.616 32.5199C32.604 35.1719 32.616 37.8119 32.592 40.4639C32.592 41.1119 32.532 41.7599 32.472 42.3959C32.448 42.6839 32.52 42.8519 32.736 43.0319C33.9 44.0399 35.052 45.0599 36.204 46.0679C36.336 46.1879 36.456 46.3079 36.588 46.4279C36.828 46.6559 36.972 46.9319 36.768 47.2439C36.612 47.4839 36.42 47.6519 36.156 47.6519C36.072 47.6519 35.976 47.6399 35.88 47.5919C34.704 47.1359 33.528 46.6679 32.34 46.2119C32.064 46.1039 31.776 46.0079 31.464 45.8999C31.236 46.5719 30.924 47.1959 30.168 47.1959C30.144 47.1959 30.132 47.1959 30.108 47.1959C29.364 47.1599 29.076 46.5479 28.824 45.8759C28.536 45.9719 28.248 46.0679 27.972 46.1759C26.808 46.6439 25.656 47.1239 24.492 47.5799C24.372 47.6279 24.264 47.6519 24.156 47.6519C23.832 47.6519 23.568 47.4479 23.496 47.1239C23.424 46.7999 23.568 46.5599 23.808 46.3559C24.96 45.3479 26.1 44.3039 27.264 43.3079C27.708 42.9359 27.828 42.5639 27.78 41.9519C27.66 40.5599 27.684 39.1559 27.672 37.7639C27.66 36.0719 27.672 34.3799 27.672 32.6879C27.672 31.5599 27.024 30.8879 26.04 30.8879C25.896 30.8879 25.752 30.8999 25.596 30.9359C25.056 31.0319 24.504 31.1279 23.976 31.2119C23.82 32.2319 23.652 32.4839 23.136 32.5439C23.1 32.5439 23.064 32.5439 23.028 32.5439C22.608 32.5439 22.344 32.2679 22.104 31.5599C21.528 31.6919 20.952 31.8119 20.352 31.9439C20.352 32.2559 20.352 32.5319 20.352 32.8079C20.328 33.3119 20.076 33.6119 19.608 33.6719C19.572 33.6719 19.536 33.6719 19.5 33.6719C19.14 33.6719 18.768 33.4319 18.648 33.0719C18.564 32.8319 18.528 32.5679 18.468 32.2799C17.868 32.3999 17.28 32.5079 16.704 32.6159C16.584 33.5879 16.428 33.8399 15.9 33.9239C15.852 33.9239 15.804 33.9359 15.756 33.9359C15.384 33.9359 15.096 33.6599 14.784 32.9879C14.076 33.1919 13.344 33.4199 12.612 33.5879C12.492 33.6119 12.348 33.6359 12.216 33.6359C12.06 33.6359 11.916 33.6119 11.808 33.5399C11.604 33.4199 11.448 33.1079 11.388 32.8559C11.304 32.5079 11.58 32.3399 11.856 32.2199C13.524 31.4639 15.192 30.7079 16.848 29.9519C20.088 28.4519 23.328 26.9519 26.568 25.4519C26.628 25.4159 26.7 25.3679 26.76 25.3559C27.54 25.1999 27.696 24.7199 27.684 23.9399C27.636 21.1319 27.648 18.3239 27.672 15.5159C27.672 14.1959 27.792 12.8759 28.296 11.6279C28.356 11.4599 28.44 11.3039 28.524 11.1599C28.944 10.4279 29.532 10.0679 30.12 10.0679M30.12 8.93994C29.1 8.93994 28.164 9.53994 27.564 10.5959C27.456 10.7879 27.348 11.0039 27.264 11.2079C26.652 12.7079 26.568 14.2319 26.556 15.5159V15.9719C26.532 18.5879 26.52 21.2999 26.568 23.9759C26.568 24.1079 26.568 24.1919 26.568 24.2519C26.568 24.2519 26.556 24.2519 26.544 24.2519C26.316 24.2999 26.16 24.3839 26.076 24.4319L23.928 25.4279C21.456 26.5799 18.9 27.7559 16.38 28.9199C15.3 29.4119 14.196 29.9159 13.128 30.3959C12.552 30.6599 11.964 30.9239 11.388 31.1879C10.104 31.7759 10.2 32.7479 10.296 33.1439C10.368 33.4439 10.608 34.1759 11.244 34.5359C11.52 34.6919 11.832 34.7759 12.204 34.7759C12.408 34.7759 12.636 34.7519 12.852 34.7039C13.344 34.5839 13.812 34.4519 14.268 34.3199C14.58 34.7159 15.06 35.0879 15.744 35.0879C15.852 35.0879 15.948 35.0879 16.056 35.0639C17.064 34.8959 17.46 34.2479 17.628 33.6119C17.94 34.3439 18.672 34.8359 19.464 34.8359C19.548 34.8359 19.632 34.8359 19.716 34.8239C20.724 34.6799 21.372 33.9359 21.42 32.8919C21.432 32.8919 21.456 32.8919 21.468 32.8919C21.768 33.3239 22.248 33.7199 22.992 33.7199C23.064 33.7199 23.136 33.7199 23.208 33.7199C24.252 33.6119 24.672 32.9159 24.864 32.2559C25.164 32.2079 25.464 32.1599 25.764 32.0999C25.848 32.0879 25.932 32.0759 26.016 32.0759C26.22 32.0759 26.544 32.0759 26.544 32.7479C26.544 33.3599 26.544 33.9599 26.544 34.5719C26.544 35.6399 26.544 36.7439 26.544 37.8359C26.544 38.0399 26.544 38.2559 26.544 38.4599C26.544 39.6479 26.556 40.8839 26.652 42.1079C26.676 42.3719 26.664 42.3839 26.532 42.4919C25.776 43.1399 25.02 43.7999 24.3 44.4479C23.892 44.8079 23.472 45.1799 23.064 45.5399C22.32 46.1879 22.296 46.9079 22.392 47.3999C22.572 48.2399 23.28 48.8159 24.132 48.8159C24.372 48.8159 24.624 48.7679 24.864 48.6719C25.584 48.3959 26.304 48.0959 27.012 47.8079C27.42 47.6399 27.84 47.4719 28.248 47.3039C28.596 47.8199 29.148 48.3239 30.036 48.3599C30.072 48.3599 30.108 48.3599 30.144 48.3599C31.068 48.3599 31.644 47.8559 31.992 47.3399C32.448 47.5199 32.916 47.6999 33.372 47.8799C34.068 48.1559 34.752 48.4199 35.448 48.6959C35.664 48.7799 35.892 48.8279 36.108 48.8279C36.468 48.8279 37.14 48.7079 37.644 47.9039C38.004 47.3279 38.1 46.4399 37.284 45.6479C37.152 45.5159 37.008 45.3839 36.864 45.2519L36.192 44.6519C35.328 43.8839 34.428 43.1039 33.54 42.3239C33.588 41.8079 33.636 41.1599 33.648 40.4999C33.648 39.1199 33.66 37.7159 33.66 36.3479C33.66 35.0999 33.66 33.8159 33.672 32.5559C33.672 32.1119 33.936 32.0639 34.128 32.0639C34.176 32.0639 34.224 32.0639 34.26 32.0639C34.344 32.0639 34.416 32.0879 34.5 32.0999C34.704 32.1359 34.92 32.1599 35.148 32.1959C35.268 32.8319 35.736 33.4799 36.78 33.6719C36.888 33.6959 36.996 33.7079 37.116 33.7079C37.716 33.7079 38.28 33.4079 38.628 32.9039H38.652C38.712 33.9359 39.396 34.6919 40.356 34.7999C40.44 34.7999 40.536 34.8119 40.62 34.8119C41.424 34.8119 42.084 34.3679 42.42 33.6359C42.588 34.3799 43.14 34.9199 43.86 35.0159C43.956 35.0279 44.064 35.0399 44.16 35.0399C44.616 35.0399 45.06 34.9199 45.432 34.7159C45.612 34.6199 45.756 34.4879 45.864 34.3439C46.392 34.4999 46.932 34.6559 47.472 34.7999C47.628 34.8479 47.784 34.8599 47.952 34.8599C48.804 34.8599 49.596 34.2839 49.824 33.4799C50.1 32.5079 49.68 31.6559 48.708 31.2119C48.24 30.9959 47.76 30.7799 47.292 30.5639C46.632 30.2639 45.96 29.9519 45.288 29.6519C44.04 29.0759 42.804 28.4999 41.556 27.9239C38.964 26.7239 36.288 25.4759 33.636 24.2519C33.648 23.6759 33.648 23.1119 33.636 22.5599V22.3439C33.636 21.6719 33.636 21.0119 33.636 20.3399C33.636 18.2999 33.624 16.1999 33.576 14.1239C33.54 12.6719 33.204 11.4719 32.544 10.4639C31.92 9.52794 31.02 8.98794 30.072 8.98794L30.12 8.93994Z" fill="white"/>
<path d="M22.8 25.68C22.788 25.872 22.62 26.124 22.452 26.208C21.432 26.676 20.376 27.096 19.2 27.6C19.236 26.748 19.212 26.004 19.332 25.272C19.452 24.48 20.46 23.904 21.348 24.024C22.2 24.132 22.86 24.864 22.812 25.692L22.8 25.68Z" fill="#313B6B" stroke="white" stroke-miterlimit="10"/>
<path d="M37.2 25.68C37.212 25.872 37.38 26.124 37.548 26.208C38.568 26.676 39.624 27.096 40.8 27.6C40.764 26.748 40.788 26.004 40.668 25.272C40.548 24.48 39.54 23.904 38.652 24.024C37.8 24.132 37.14 24.864 37.188 25.692L37.2 25.68Z" fill="#313B6B" stroke="white" stroke-miterlimit="10"/>
<path d="M30.972 28.584V40.308C30.972 41.052 30.684 41.436 30.132 41.448C29.724 41.448 29.4 41.196 29.304 40.764C29.268 40.596 29.244 40.416 29.244 40.236C29.244 32.448 29.244 24.66 29.244 16.86C29.244 16.68 29.244 16.512 29.28 16.332C29.352 15.84 29.664 15.552 30.108 15.552C30.528 15.552 30.888 15.888 30.948 16.344C30.972 16.56 30.972 16.788 30.972 17.004V28.56V28.584Z" fill="white"/>
</g>
<defs>
<linearGradient id="paint0_linear_130_518" x1="12.012" y1="12.648" x2="48.012" y2="48.144" gradientUnits="userSpaceOnUse">
<stop stop-color="#1BECC1"/>
<stop offset="0.68" stop-color="#03C5CE"/>
</linearGradient>
<clipPath id="clip0_130_518">
<rect width="60" height="60" fill="white"/>
</clipPath>
</defs>
</svg>
