<svg width="46" height="28" viewBox="0 0 46 28" fill="none" xmlns="http://www.w3.org/2000/svg">
<g clip-path="url(#clip0_17_62978)">
<path d="M28.7773 2.99365H16.5273V25.0073H28.7773V2.99365Z" fill="#FF5F00"/>
<path d="M17.3044 14.0005C17.3025 11.8804 17.7829 9.7877 18.7093 7.88075C19.6357 5.9738 20.9838 4.30261 22.6516 2.9937C20.5863 1.37033 18.106 0.360785 15.494 0.0804463C12.8821 -0.199894 10.244 0.260274 7.88128 1.40838C5.51853 2.55648 3.52646 4.34618 2.13276 6.57291C0.739074 8.79965 0 11.3736 0 14.0005C0 16.6274 0.739074 19.2013 2.13276 21.4281C3.52646 23.6548 5.51853 25.4445 7.88128 26.5926C10.244 27.7407 12.8821 28.2009 15.494 27.9205C18.106 27.6402 20.5863 26.6307 22.6516 25.0073C20.9838 23.6984 19.6357 22.0272 18.7093 20.1202C17.7829 18.2133 17.3025 16.1206 17.3044 14.0005Z" fill="#EB001B"/>
<path d="M45.3033 14.0005C45.3034 16.6274 44.5644 19.2013 43.1707 21.428C41.7771 23.6548 39.7851 25.4445 37.4224 26.5926C35.0597 27.7407 32.4217 28.2009 29.8098 27.9205C27.1979 27.6402 24.7176 26.6307 22.6523 25.0073C24.3186 23.6971 25.6657 22.0256 26.592 20.1189C27.5182 18.2123 27.9995 16.1202 27.9995 14.0005C27.9995 11.8808 27.5182 9.78869 26.592 7.88204C25.6657 5.97539 24.3186 4.30393 22.6523 2.99369C24.7176 1.37033 27.1979 0.360778 29.8098 0.0804426C32.4217 -0.199894 35.0597 0.260294 37.4224 1.40841C39.7851 2.55652 41.7771 4.34622 43.1707 6.57296C44.5644 8.79969 45.3034 11.3736 45.3033 14.0005Z" fill="#F79E1B"/>
<path d="M43.9686 22.6757V22.225H44.1503V22.1332H43.6875V22.225H43.8693V22.6757H43.9686ZM44.8671 22.6757V22.1323H44.7253L44.5621 22.5061L44.3989 22.1323H44.2569V22.6757H44.3571V22.2658L44.5101 22.6192H44.614L44.767 22.2649V22.6757H44.8671Z" fill="#F79E1B"/>
</g>
<defs>
<clipPath id="clip0_17_62978">
<rect width="46" height="28" fill="white" transform="translate(0 0.000488281)"/>
</clipPath>
</defs>
</svg>
