<svg width="108" height="21" viewBox="0 0 108 21" fill="none" xmlns="http://www.w3.org/2000/svg">
<g clip-path="url(#clip0_17_62975)">
<path d="M42.61 8.05053V8.00053C42.61 7.59551 42.73 7.19956 42.9548 6.86266C43.1796 6.52576 43.4992 6.26301 43.8732 6.10756C44.2472 5.95211 44.6589 5.91093 45.0563 5.98922C45.4537 6.06752 45.819 6.26177 46.1061 6.54747C46.3932 6.83316 46.5892 7.1975 46.6694 7.5945C46.7496 7.9915 46.7105 8.40337 46.5568 8.77813C46.4032 9.15289 46.142 9.47374 45.8062 9.7002C45.4704 9.92665 45.075 10.0486 44.67 10.0505V12.8205C45.6229 12.8186 46.5538 12.5342 47.3451 12.0034C48.1365 11.4725 48.7527 10.7191 49.116 9.83815C49.4793 8.95724 49.5733 7.98841 49.3862 7.05408C49.1991 6.11975 48.7392 5.26185 48.0647 4.58876C47.3903 3.91567 46.5314 3.4576 45.5967 3.27243C44.662 3.08726 43.6933 3.18329 42.8132 3.5484C41.933 3.91351 41.1808 4.5313 40.6517 5.32373C40.1225 6.11615 39.84 7.04765 39.84 8.00053L42.61 8.05053Z" fill="#F9C623"/>
<path d="M80.5287 4.25076V20.1149H76.8187V4.23001H72.7088V0.868354H84.7086V4.25076H80.5287ZM14.8498 0.847603V20.1149H11.1398V4.23001H3.71994V20.1149H0V0.847603H14.8498ZM22.2596 9.73939H23.6396C24.4694 9.82354 25.3019 9.61123 25.9996 9.13761C26.3222 8.86075 26.5799 8.51136 26.7531 8.1159C26.9264 7.72043 27.0107 7.28925 26.9996 6.855C27.0137 6.43224 26.9304 6.01207 26.7565 5.62948C26.5825 5.24688 26.323 4.91293 25.9996 4.6554C25.2273 4.18353 24.3325 3.97318 23.4396 4.05363H22.2596V9.73939ZM23.9996 0.847603C26.0896 0.847603 27.5395 1.07586 28.8995 2.32092C29.5133 2.91313 29.999 3.63359 30.3248 4.4348C30.6506 5.23601 30.8089 6.09977 30.7895 6.96913C30.8266 8.55419 30.2794 10.0942 29.2595 11.275C28.6279 11.8739 27.8857 12.3336 27.0778 12.6261C26.2699 12.9186 25.4132 13.0378 24.5596 12.9765H22.2596V20.1149H18.5497V0.847603H23.9996ZM68.9989 19.4301C67.5783 20.1921 65.9979 20.5771 64.3989 20.5506C63.1505 20.6058 61.9043 20.3959 60.7368 19.9338C59.5693 19.4717 58.505 18.7672 57.6091 17.8634C56.6274 16.9319 55.8512 15.7915 55.3334 14.5201C54.8157 13.2488 54.5686 11.8764 54.6091 10.4968C54.5707 9.09144 54.818 7.69345 55.3349 6.39383C55.8517 5.09421 56.6266 3.92211 57.6091 2.95383C59.1641 1.58172 61.0769 0.719971 63.1049 0.477973C65.1328 0.235975 67.1842 0.624644 68.9989 1.59464V5.99384C68.446 5.31982 67.7597 4.77726 66.9867 4.40308C66.2136 4.02889 65.3719 3.83185 64.5189 3.82537C63.7034 3.83215 62.8972 4.00554 62.1463 4.33562C61.3954 4.6657 60.7145 5.14602 60.1425 5.74915C59.5705 6.35227 59.1186 7.0664 58.8126 7.85074C58.5066 8.63508 58.3525 9.47428 58.359 10.3204V10.5487C58.3323 11.3867 58.4651 12.222 58.7498 13.0068C59.0344 13.7916 59.4653 14.5105 60.0179 15.1224C60.5705 15.7343 61.2339 16.2272 61.9702 16.5729C62.7065 16.9186 63.5012 17.1103 64.3089 17.1371H64.6489C65.4747 17.1426 66.2916 16.9596 67.0416 16.601C67.7916 16.2424 68.4564 15.717 68.9889 15.062V19.4508L68.9989 19.4301ZM88.3785 20.1045H92.0985V0.837228H88.3885L88.3785 20.1045ZM99.4984 9.72901H100.888C101.721 9.80895 102.555 9.59707 103.258 9.12723C103.576 8.85013 103.83 8.50362 104.003 8.11256C104.175 7.72151 104.263 7.29559 104.258 6.86538C104.271 6.44434 104.187 6.02624 104.013 5.64559C103.839 5.26493 103.58 4.93264 103.258 4.67615C102.486 4.20324 101.592 3.98943 100.698 4.064H99.5084L99.4984 9.72901ZM101.198 0.837228C103.288 0.837228 104.728 1.06549 106.098 2.31055C106.716 2.90257 107.204 3.62423 107.532 4.42748C107.86 5.23074 108.018 6.09717 107.998 6.96913C108.035 8.55419 107.488 10.0942 106.468 11.275C105.835 11.8746 105.091 12.3353 104.282 12.6294C103.472 12.9236 102.614 13.0452 101.758 12.9869H99.5084V20.1149H95.7984V0.847603L101.198 0.837228ZM49.1992 7.16627C49.8336 8.50098 50.0722 10.0009 49.8847 11.4764C49.6973 12.9518 49.0923 14.3364 48.1462 15.455C47.2001 16.5735 45.9555 17.3758 44.5699 17.7603C43.1843 18.1447 41.7199 18.0941 40.362 17.6148C39.0041 17.1354 37.8138 16.249 36.9416 15.0675C36.0694 13.8861 35.5545 12.4628 35.4622 10.9777C35.3698 9.49259 35.7041 8.01243 36.4228 6.7245C37.1414 5.43657 38.2121 4.39875 39.4994 3.74236C40.3616 3.30355 41.3003 3.04948 42.2593 2.99533L44.0693 0.100569C41.7634 -0.232522 39.4174 0.269489 37.4266 1.52197C35.4359 2.77445 33.9223 4.7008 33.141 6.97627C32.3596 9.25173 32.3583 11.7371 33.1373 14.0135C33.9162 16.2898 35.4278 18.2179 37.4172 19.4726C39.4066 20.7273 41.7522 21.232 44.0584 20.9015C46.3646 20.571 48.4905 19.4256 50.0776 17.6583C51.6647 15.8911 52.616 13.6101 52.7712 11.1999C52.9263 8.78965 52.2757 6.39767 50.9292 4.42714L49.1992 7.17664" fill="#054279"/>
</g>
<defs>
<clipPath id="clip0_17_62975">
<rect width="108" height="21" fill="white" transform="translate(0 0.000488281)"/>
</clipPath>
</defs>
</svg>
