<svg width="20" height="20" viewBox="0 0 20 20" fill="none" xmlns="http://www.w3.org/2000/svg">
<circle cx="10" cy="10" r="9" stroke="currentColor" stroke-width="2"/>
<path d="M8.85703 7.0694C9.24141 6.74782 9.71953 6.57353 10.2094 6.57353H11.2266C11.8617 6.57353 12.375 7.11114 12.375 7.77639C12.375 8.05869 12.2812 8.32627 12.1148 8.53738H6.75C6.33516 8.53738 6 8.88842 6 9.32292C6 9.75742 6.33516 10.1085 6.75 10.1085H9.64453L8.45859 10.8179C8.41875 10.8424 8.37891 10.867 8.33906 10.894H6.75C6.33516 10.894 6 11.245 6 11.6795C6 12.114 6.33516 12.4651 6.75 12.4651H7.22578C7.16016 12.7081 7.125 12.9659 7.125 13.2261C7.125 14.7579 8.31094 16 9.77344 16H10.7906C11.6227 16 12.4313 15.703 13.0805 15.158L13.2188 15.0426C13.5422 14.7726 13.5938 14.2767 13.3359 13.938C13.0781 13.5992 12.6047 13.5452 12.2812 13.8152L12.143 13.9306C11.7586 14.2522 11.2828 14.4265 10.7906 14.4265H9.77344C9.13828 14.4265 8.625 13.8889 8.625 13.2236C8.625 12.9413 8.71875 12.6737 8.88516 12.4626H14.25C14.6648 12.4626 15 12.1116 15 11.6771C15 11.2426 14.6648 10.8915 14.25 10.8915H11.3555L12.5414 10.1821C12.5813 10.1576 12.6211 10.133 12.6609 10.106H14.25C14.6648 10.106 15 9.75497 15 9.32046C15 8.88596 14.6648 8.53493 14.25 8.53493H13.7742C13.8398 8.28944 13.875 8.03414 13.875 7.77393C13.875 6.24213 12.6891 5 11.2266 5H10.2094C9.37734 5 8.56875 5.29703 7.91953 5.842L7.78125 5.95983C7.45781 6.22986 7.40625 6.72573 7.66406 7.06449C7.92188 7.40326 8.39531 7.45726 8.71875 7.18723L8.85703 7.07186V7.0694Z" fill="currentColor"/>
</svg>
