<svg width="20" height="20" viewBox="0 0 20 20" fill="none" xmlns="http://www.w3.org/2000/svg">
<circle cx="10" cy="10" r="9" stroke="currentColor" stroke-width="2"/>
<path d="M10.5194 17C10.9473 17 11.293 16.609 11.293 16.125V15.1488C11.3317 15.1434 11.368 15.1379 11.4067 15.1297C11.4163 15.127 11.4236 15.127 11.4333 15.1242L12.5938 14.8836C13.0145 14.7961 13.2925 14.3395 13.2151 13.8664C13.1378 13.3934 12.734 13.0762 12.3157 13.1637L11.1673 13.4016C10.4106 13.5273 9.74326 13.4426 9.27422 13.232C8.80518 13.0215 8.61659 12.7316 8.57308 12.4637C8.52472 12.1711 8.56099 12.007 8.60209 11.9059C8.64561 11.7992 8.73506 11.6789 8.91156 11.5449C9.30565 11.2523 9.91008 11.0609 10.6934 10.8258L10.7635 10.8039C11.455 10.5961 12.3012 10.3445 12.9298 9.87969C13.2732 9.62539 13.5971 9.28086 13.7978 8.79961C14.0033 8.31016 14.0468 7.76328 13.9525 7.18086C13.7857 6.1418 13.1523 5.44727 12.3665 5.08359C12.0353 4.93047 11.675 4.83203 11.293 4.78281V3.875C11.293 3.39102 10.9473 3 10.5194 3C10.0914 3 9.74568 3.39102 9.74568 3.875V4.8293C9.73601 4.83203 9.72392 4.83203 9.71425 4.83477H9.70941C9.11948 4.93867 8.14997 5.22578 7.49718 5.55391C7.10793 5.75078 6.93143 6.26758 7.10551 6.70781C7.27959 7.14805 7.73654 7.34766 8.12579 7.15078C8.6311 6.89648 9.4628 6.64492 9.94393 6.56016C10.7152 6.43164 11.3511 6.50547 11.7814 6.70508C12.19 6.89375 12.3762 7.16719 12.4294 7.49531C12.4753 7.78516 12.439 7.95195 12.3979 8.05312C12.352 8.1625 12.2625 8.28281 12.0836 8.4168C11.6871 8.70937 11.0803 8.90078 10.2945 9.13594L10.2268 9.15508C9.53775 9.36289 8.69154 9.61719 8.06293 10.082C7.71961 10.3363 7.39805 10.6836 7.19738 11.1648C6.99429 11.6543 6.95319 12.2012 7.0499 12.7836C7.22398 13.8281 7.91545 14.5062 8.70122 14.859C9.02277 15.0039 9.37576 15.1023 9.74568 15.1598V16.125C9.74568 16.609 10.0914 17 10.5194 17Z" fill="currentColor"/>
</svg>
