<svg width="62" height="19" viewBox="0 0 62 19" fill="none" xmlns="http://www.w3.org/2000/svg">
<mask id="mask0_17_62974" style="mask-type:luminance" maskUnits="userSpaceOnUse" x="0" y="0" width="62" height="20">
<path d="M62 0.000244141H0V19.0002H62V0.000244141Z" fill="white"/>
</mask>
<g mask="url(#mask0_17_62974)">
<path d="M23.5407 0.337286L15.4225 18.7122H10.1267L6.13219 4.04781C5.89 3.14393 5.68011 2.81301 4.94063 2.43308C3.73615 1.81415 1.74698 1.23199 0 0.870426L0.119479 0.337286H8.64448C9.72948 0.337286 10.7079 1.02363 10.9533 2.21247L13.062 12.8446L18.2771 0.337286H23.5407ZM44.2913 12.7129C44.3139 7.86252 37.2226 7.59595 37.2711 5.42969C37.2872 4.77093 37.9492 4.06926 39.3959 3.89155C40.1127 3.8027 42.0922 3.73528 44.3365 4.71271L45.2148 0.815274C44.0103 0.398567 42.4603 0.000244141 40.5293 0.000244141C35.579 0.000244141 32.0915 2.49742 32.0625 6.0762C32.0301 8.72046 34.5489 10.1974 36.4476 11.0767C38.4013 11.9775 39.0568 12.5566 39.0471 13.3593C39.0342 14.5911 37.4907 15.1365 36.0472 15.158C33.5284 15.1947 32.0689 14.5115 30.9032 13.9967L29.9957 18.0228C31.1647 18.5314 33.3282 18.9757 35.5661 19.0002C40.8328 19.0002 44.2751 16.5337 44.2913 12.7129ZM57.3662 18.7122H62L57.9539 0.337286H53.6785C52.7161 0.337286 51.9057 0.867362 51.5472 1.68546L44.0297 18.7122H49.29L50.3363 15.9669H56.7623L57.3662 18.7122ZM51.7765 12.2012L54.4147 5.30101L55.9324 12.2012H51.7765ZM30.6997 0.337286L26.5567 18.7122H21.545L25.6912 0.337286H30.6997Z" fill="#1434CB"/>
</g>
</svg>
